<svg xmlns="http://www.w3.org/2000/svg" viewBox="0 0 2946.4 636.77"><defs><style>.cls-1{fill:#fb923c;}.cls-2{fill:#191d29;}.cls-3{fill:#191d27;}.cls-4{fill:#fff;}</style></defs><g id="Layer_2" data-name="Layer 2"><g id="Ebene_4" data-name="Ebene 4"><path class="cls-1" d="M342.75,6l223,128.76a45,45,0,0,1,21.61,30.08L639.56,424A45,45,0,0,1,618,471.85L342.76,630.74a45,45,0,0,1-45,0L22.5,471.83A45,45,0,0,1,.89,424L53.08,164.89a45,45,0,0,1,21.61-30.08L297.75,6A45,45,0,0,1,342.75,6Z"/><path class="cls-2" d="M491.4,223.66,332.73,315.27a25,25,0,0,1-25,0L149.06,223.66a25,25,0,0,1,0-43.3l158.67-91.6a25,25,0,0,1,25,0l158.67,91.6A25,25,0,0,1,491.4,223.66Z"/><path class="cls-1" d="M434.54,195.62a7,7,0,0,0-2.7-.81l-101-11.13a1.23,1.23,0,0,1-.54-.17.56.56,0,0,1-.31-.39l-5-45.92a2.65,2.65,0,0,0-1.49-1.92,8,8,0,0,0-7.34,0l-24.72,14.37a2.48,2.48,0,0,0-1.5,2.31L293.53,182,297,201.87a.49.49,0,0,1-.29.49l-.58.33a1.58,1.58,0,0,1-1.45,0L250.91,177.4a8.08,8.08,0,0,0-7.31,0l-23.5,13.65c-2,1.17-2,3.07,0,4.24L328,257.56a8.05,8.05,0,0,0,7.31,0l23.5-13.65c2-1.17,2-3.07,0-4.24L329,222.51a.52.52,0,0,1-.3-.39l-1.53-14.68c0-.39.57-.7,1.23-.62L404,215.7a7.8,7.8,0,0,0,4.68-.82l25.84-15c2.15-1.25,1.88-3.15,0-4.25"/><path class="cls-3" d="M302.54,364.93V501.71A25,25,0,0,1,265,523.36L96.8,426.22a25,25,0,0,1-12-26.58l24.67-122.53a25,25,0,0,1,37-16.72L290,343.28A25,25,0,0,1,302.54,364.93Z"/><path class="cls-3" d="M337.92,365V501.73a25,25,0,0,0,37.5,21.65l168.24-97.13a25,25,0,0,0,12-26.59L531,277.13a25,25,0,0,0-37-16.71L350.42,343.31A25,25,0,0,0,337.92,365Z"/><path class="cls-4" d="M934.49,349.36l-34.21,42.56v99.81H817.52V150.24h82.76V293.1h4.41l41.94-56.76,67.86-86.1h92.7L991.87,294.56,1112.7,491.73h-93.24Z"/><path class="cls-4" d="M1257.54,497.6q-71.73,0-108.7-35.22t-37-95.9q0-30.81,9.65-55.53a116.91,116.91,0,0,1,27.59-42.07q17.93-17.37,43.59-26.42t57.66-9.05q32,0,57.38,9.05t43,25.68a113.5,113.5,0,0,1,27.32,40.37q9.64,23.73,9.65,53.08v21.53H1193v4.4q0,24.48,17.11,39.39t50.21,14.92q25.37,0,43.59-8.56a101.92,101.92,0,0,0,31.45-22.75l44.14,42.56q-16.56,18.1-46.35,31.31T1257.54,497.6Zm-6.62-212.33q-26.49,0-42.21,14.43T1193,338.6v3.91h114.77V338.6q0-25-15.18-39.14T1250.92,285.27Z"/><path class="cls-4" d="M1615.87,239.28h83.32L1565.11,532.34q-12.7,27.88-33.66,42.56t-57.38,14.68h-56.28V532.83h40.54a41.74,41.74,0,0,0,38.56-25.76h0a41.76,41.76,0,0,0-.59-33.36L1389.1,239.28h87.73l41.38,106.17,25.93,73.38h4.42l24.83-73.38Z"/><path class="cls-4" d="M1722.38,491.73V239.28h73.74v37.18h4.34a85.62,85.62,0,0,1,21.38-30.33q13.94-12.72,39.34-12.72,46.48,0,57,43h3.72a87.23,87.23,0,0,1,9.29-16.63,59.69,59.69,0,0,1,13.64-13.7,64.37,64.37,0,0,1,19.2-9.3,89.12,89.12,0,0,1,26-3.42q66.92,0,66.92,77.79V491.73h-73.74V318.54q0-17.61-7.74-24.71t-20.14-7.09q-11.77,0-20.14,6.11t-8.36,18.84v180h-74.36V318.54q0-17.61-7.13-24.71t-19.52-7.09q-12.39,0-21.06,6.11t-8.68,18.84v180Z"/><path class="cls-4" d="M2323.15,491.73q-25.38,0-40.83-11.5t-18.21-33h-2.76a62.93,62.93,0,0,1-30.62,37.67q-22.91,12.72-56,12.72-41.39,0-66.49-19.81t-25.1-55.53q0-39.63,32.55-58.71t95.45-19.08h45.8V331.75q0-22.5-11.86-34t-40-11.49q-25.93,0-41.93,8.8a93.56,93.56,0,0,0-27.59,23l-44.69-35.23q14.34-21.52,45-35.47t78.62-13.94q58.49,0,91.32,23.73t32.83,71.67V439.38h31.45v52.35Zm-117.52-41.59q21.51,0,36.41-9.29t14.9-26.91V383.61h-43.59q-50.2,0-50.21,29.84v9.79q0,13.2,11.59,20.06T2205.63,450.14Z"/><path class="cls-4" d="M2526.3,497.6q-47.46,0-82.49-12.72t-52.69-34.74l45.8-37.67a118.86,118.86,0,0,0,38.9,25.2q22.33,9.06,51,9.05,24.29,0,38.07-6.6t13.8-20.31q0-10.76-9.38-14.92t-25.93-6.61l-45.8-6.36a208.17,208.17,0,0,1-35.86-7.58,97.5,97.5,0,0,1-28.69-13.94,66.87,66.87,0,0,1-19.32-21.53q-7.17-12.72-7.17-30.82,0-39.63,34.21-62.14t96-22.5q41.92,0,71.45,10t47.17,28.62l-40.83,41.1q-12.69-12.23-32.55-20.55t-48-8.32q-47.46,0-47.45,25.44,0,11.26,9.38,15.41t25.93,6.61l45.24,6.36a210.6,210.6,0,0,1,35.87,7.58,101.67,101.67,0,0,1,29,13.94,65.9,65.9,0,0,1,19.59,21.53q7.17,12.73,7.17,30.82,0,39.63-34.48,62.63T2526.3,497.6Z"/><path class="cls-4" d="M2684.87,129.69h81.66V285.27h3.31A104,104,0,0,1,2782,265.21a77.72,77.72,0,0,1,17.38-16.39,85.09,85.09,0,0,1,23.72-11.25,104.13,104.13,0,0,1,30.62-4.16,110.89,110.89,0,0,1,37.52,6.11,77.49,77.49,0,0,1,29.25,18.35,86.79,86.79,0,0,1,19,29.84q6.9,17.63,6.9,40.61V491.73h-81.66V338.11q0-48.92-48-48.93a78.78,78.78,0,0,0-18.49,2.2,52.35,52.35,0,0,0-16.27,6.85,35.65,35.65,0,0,0-11.31,11.5,30.63,30.63,0,0,0-4.14,16.15V491.73h-81.66Z"/></g></g></svg>