<svg width="248" height="201" viewBox="0 0 248 201" fill="none" xmlns="http://www.w3.org/2000/svg">
<path d="M234.17 125.019C234.226 133.051 232.608 141.007 229.419 148.379C226.231 155.752 221.541 162.379 215.65 167.839C206.534 176.231 195.514 182.281 183.54 185.469C177.352 187.181 170.96 188.039 164.54 188.019H85.1699C78.1452 188.065 71.1535 187.054 64.4299 185.019C35.8299 176.169 13.8799 155.549 13.8799 125.019C13.8799 108.259 23.2299 90.2287 36.8099 76.0187C35.0181 74.325 33.5909 72.2834 32.616 70.0187C31.641 67.7541 31.1387 65.3143 31.1399 62.8487V31.0187C31.1155 28.1538 31.7753 25.3245 33.0644 22.766C34.3536 20.2075 36.2348 17.9936 38.5518 16.3085C40.8687 14.6233 43.5544 13.5156 46.3857 13.0773C49.2169 12.6391 52.1119 12.883 54.8299 13.7887C66.4899 17.6487 79.3099 26.0687 92.9299 38.7887C96.0347 41.6807 98.0181 45.5766 98.5299 49.7887H149.53C150.042 45.5766 152.025 41.6807 155.13 38.7887C168.75 26.0287 181.57 17.6087 193.24 13.7887C195.957 12.8869 198.849 12.6461 201.678 13.0862C204.507 13.5263 207.189 14.6347 209.504 16.3194C211.818 18.0041 213.697 20.2165 214.985 22.773C216.273 25.3294 216.933 28.1562 216.91 31.0187V62.8187C216.915 65.2893 216.415 67.7349 215.44 70.005C214.465 72.275 213.035 74.3216 211.24 76.0187C224.82 90.1887 234.17 108.219 234.17 125.019Z" fill="#FFBA53"/>
<path d="M234.36 125.019C234.416 133.052 232.797 141.008 229.607 148.381C226.416 155.754 221.724 162.381 215.83 167.839C206.704 176.253 195.666 182.317 183.67 185.509C177.503 187.201 171.135 188.046 164.74 188.019H85.3598C78.3351 188.065 71.3435 187.054 64.6198 185.019C36.0198 176.169 14.0698 155.549 14.0698 125.019C14.0698 108.259 23.4198 90.2287 36.9998 76.0187C35.2067 74.3256 33.778 72.2842 32.8013 70.0196C31.8246 67.755 31.3205 65.3149 31.3198 62.8487V31.0187C31.2949 28.1527 31.9547 25.3221 33.2444 22.7625C34.5341 20.203 36.4164 17.9884 38.7346 16.303C41.0528 14.6176 43.74 13.5102 46.5726 13.0729C49.4052 12.6356 52.3012 12.881 55.0198 13.7887C66.6798 17.6487 79.4898 26.0687 93.1198 38.7887C96.2177 41.686 98.1997 45.5792 98.7198 49.7887H149.72C150.229 45.578 152.209 41.6823 155.31 38.7887C168.94 26.0287 181.76 17.6087 193.42 13.7887C196.137 12.8849 199.031 12.6425 201.861 13.0817C204.691 13.5209 207.375 14.6291 209.691 16.314C212.006 17.9989 213.887 20.212 215.175 22.7695C216.464 25.327 217.124 28.155 217.1 31.0187V62.8187C217.103 65.2899 216.601 67.7358 215.624 70.0058C214.647 72.2758 213.217 74.3221 211.42 76.0187C225 90.1887 234.36 108.219 234.36 125.019Z" fill="#FFBA53"/>
<path d="M161.72 45.8887C170.99 37.2087 183.72 27.1187 196.25 22.9687C197.516 22.5633 198.861 22.4632 200.174 22.6768C201.486 22.8903 202.73 23.4114 203.802 24.1974C204.875 24.9834 205.747 26.0121 206.346 27.1994C206.945 28.3866 207.255 29.6988 207.25 31.0287V62.8187C207.252 64.2176 206.906 65.5951 206.244 66.827C205.581 68.059 204.622 69.1066 203.453 69.8755C202.284 70.6444 200.943 71.1103 199.549 71.2313C198.155 71.3523 196.753 71.1246 195.47 70.5687C185.724 66.3203 175.651 62.8657 165.35 60.2387C163.885 59.8589 162.549 59.0923 161.482 58.0191C160.415 56.9459 159.657 55.6056 159.286 54.1386C158.914 52.6715 158.945 51.1317 159.373 49.6803C159.801 48.2289 160.612 46.9193 161.72 45.8887V45.8887Z" fill="#FF7A00"/>
<path d="M86.3299 45.8887C77.0599 37.2087 64.3299 27.1187 51.7999 22.9687C50.5333 22.5633 49.1888 22.4632 47.8761 22.6768C46.5635 22.8903 45.32 23.4114 44.2473 24.1974C43.1746 24.9834 42.303 26.0121 41.7039 27.1994C41.1047 28.3866 40.7949 29.6988 40.7999 31.0287V62.8187C40.8004 64.2125 41.1464 65.5844 41.8071 66.8116C42.4678 68.0389 43.4224 69.0832 44.5856 69.851C45.7488 70.6189 47.0842 71.0864 48.4723 71.2116C49.8605 71.3369 51.258 71.1159 52.5399 70.5687C62.2861 66.3218 72.3587 62.8673 82.6599 60.2387C84.1278 59.8641 85.4679 59.1013 86.5395 58.0304C87.6111 56.9594 88.3746 55.6197 88.75 54.1519C89.1254 52.6842 89.0987 51.1424 88.6729 49.6885C88.2471 48.2346 87.4378 46.922 86.3299 45.8887Z" fill="#FF7A00"/>
<path d="M214.74 75.7587L212.57 76.7587C226.51 91.2587 222.64 107.409 222.64 122.409C222.69 129.599 221.242 136.721 218.387 143.32C215.533 149.919 211.334 155.852 206.06 160.739C198.32 168.079 188.36 178.229 177.26 181.329C171.722 182.849 166.003 183.609 160.26 183.589H89.2399C82.949 183.613 76.6898 182.696 70.67 180.869C45.06 172.939 25.4099 149.719 25.4099 122.409C25.4099 107.409 21.54 91.2587 33.7 76.7087L31.5199 75.7087C20.2499 91.7087 9.93994 107.809 9.93994 122.409C10.0185 136.834 15.117 150.783 24.36 161.859C32.47 171.779 47.4699 179.789 61.1899 185.029C70.4599 188.559 80.4199 195.119 90.7999 195.119H158.6C171.2 195.119 183.6 187.599 194.53 182.369C201.87 178.859 211.48 174.369 217.05 169.119C230.26 156.609 236.46 140.459 236.46 122.409C236.46 107.809 227.8 91.7387 216.53 77.5487" fill="#FFA439"/>
<path d="M206.95 117.769C197.43 173.769 169.83 167.409 124.02 167.409C78.2098 167.409 50.7898 172.309 41.0898 117.769C36.6798 92.9387 78.2198 72.0987 124.02 72.0987C169.82 72.0987 211.18 92.8987 206.95 117.769Z" fill="#191C28"/>
<path d="M227.34 74.8686C228.953 71.0559 229.786 66.9586 229.79 62.8187V31.0187C229.807 26.1193 228.66 21.2861 226.442 16.9175C224.224 12.5489 220.999 8.77013 217.034 5.89275C213.068 3.01538 208.476 1.12183 203.634 0.36828C198.793 -0.385275 193.843 0.0227089 189.19 1.55865C175.74 5.99865 161.32 15.3786 146.31 29.4286C143.971 31.6146 141.988 34.1517 140.43 36.9487H107.62C106.055 34.1538 104.072 31.6145 101.74 29.4187C86.7402 15.4187 72.3102 5.99866 58.8802 1.56866C54.2274 0.0267493 49.2745 -0.386137 44.4306 0.364068C39.5867 1.11427 34.9908 3.00604 31.0224 5.88317C27.054 8.7603 23.8271 12.5402 21.608 16.9108C19.3889 21.2813 18.2413 26.1171 18.2602 31.0187V62.8187C18.264 66.9586 19.0971 71.0559 20.7102 74.8686C8.11017 90.7286 1.00017 108.669 1.00017 124.979C0.88949 141.021 6.38607 156.598 16.5402 169.019C25.5902 180.099 38.4802 189.019 53.8002 194.899C64.3644 198.902 75.5729 200.936 86.8702 200.899H162.64C176.517 200.946 190.23 197.899 202.78 191.979C210.765 188.205 218.108 183.2 224.54 177.149C231.711 170.502 237.416 162.433 241.292 153.457C245.168 144.481 247.129 134.795 247.05 125.019C247.05 108.669 239.93 90.7186 227.34 74.8686ZM215.65 167.799C206.538 176.205 195.518 182.27 183.54 185.469C177.353 187.181 170.96 188.039 164.54 188.019H85.1702C78.1455 188.065 71.1538 187.054 64.4302 185.019C35.8302 176.169 13.8802 155.549 13.8802 125.019C13.8802 108.259 23.2302 90.2287 36.8102 76.0187C35.0183 74.325 33.5912 72.2834 32.6162 70.0187C31.6413 67.7541 31.139 65.3143 31.1402 62.8487V31.0187C31.1158 28.1538 31.7756 25.3245 33.0647 22.766C34.3539 20.2075 36.2351 17.9936 38.5521 16.3085C40.869 14.6233 43.5547 13.5156 46.386 13.0773C49.2172 12.6391 52.1122 12.8829 54.8302 13.7887C66.4902 17.6487 79.3102 26.0687 92.9302 38.7887C96.035 41.6807 98.0183 45.5766 98.5302 49.7887H149.53C150.042 45.5766 152.025 41.6807 155.13 38.7887C168.75 26.0287 181.57 17.6087 193.24 13.7887C195.957 12.8869 198.85 12.646 201.678 13.0862C204.507 13.5263 207.19 14.6347 209.504 16.3194C211.818 18.0041 213.698 20.2165 214.986 22.7729C216.274 25.3294 216.933 28.1562 216.91 31.0187V62.8187C216.915 65.2893 216.415 67.7349 215.44 70.0049C214.465 72.275 213.036 74.3216 211.24 76.0187C224.82 90.2187 234.17 108.249 234.17 125.019C234.221 133.044 232.6 140.992 229.412 148.357C226.223 155.723 221.537 162.343 215.65 167.799V167.799Z" fill="#181C28"/>
<path d="M207.15 117.769C197.63 173.769 170.02 125.879 124.22 125.879C78.42 125.879 50.99 172.309 41.29 117.769C36.88 92.9387 78.42 72.0987 124.22 72.0987C170.02 72.0987 211.38 92.8987 207.15 117.769Z" fill="#1D212D"/>
<path d="M173.72 132.929C173.229 132.784 172.813 132.456 172.556 132.014C172.299 131.571 172.222 131.047 172.34 130.549C173.141 127.503 172.772 124.267 171.306 121.48C169.84 118.692 167.384 116.555 164.42 115.489C164.11 115.369 163.793 115.269 163.47 115.189C160.2 114.364 156.737 114.869 153.839 116.594C150.941 118.318 148.845 121.121 148.01 124.389C147.9 124.794 147.634 125.14 147.272 125.351C146.909 125.563 146.477 125.623 146.07 125.519L139.72 123.819C139.352 123.707 139.042 123.457 138.856 123.121C138.669 122.785 138.62 122.39 138.72 122.019C141.89 110.229 153.9 102.939 165.5 105.769L166 105.889C171.663 107.425 176.487 111.143 179.416 116.227C182.345 121.311 183.141 127.349 181.63 133.019C181.565 133.263 181.452 133.493 181.298 133.694C181.144 133.895 180.952 134.063 180.733 134.19C180.514 134.316 180.271 134.398 180.02 134.43C179.769 134.463 179.514 134.445 179.27 134.379L173.72 132.929Z" fill="#FF9900"/>
<path d="M102.44 125.419C102.194 125.487 101.936 125.505 101.683 125.473C101.429 125.441 101.185 125.358 100.964 125.231C100.742 125.103 100.548 124.933 100.393 124.73C100.238 124.527 100.125 124.296 100.06 124.049C99.2176 121.021 97.2754 118.417 94.6136 116.747C91.9518 115.076 88.7622 114.46 85.6698 115.019C85.3398 115.079 85.0098 115.149 84.6698 115.239C81.4266 116.161 78.6813 118.332 77.0355 121.274C75.3898 124.217 74.9777 127.693 75.8898 130.939C75.9941 131.344 75.9353 131.775 75.7259 132.137C75.5165 132.5 75.1732 132.766 74.7698 132.879L68.4198 134.579C68.0498 134.683 67.6534 134.637 67.3177 134.449C66.982 134.262 66.7346 133.949 66.6298 133.579C63.4698 121.779 70.2198 109.459 81.6898 106.109L82.1798 105.969C87.8592 104.453 93.9078 105.253 98.998 108.193C104.088 111.133 107.804 115.972 109.33 121.649C109.396 121.894 109.414 122.149 109.382 122.401C109.349 122.653 109.268 122.896 109.141 123.116C109.015 123.336 108.847 123.529 108.646 123.684C108.444 123.839 108.215 123.953 107.97 124.019L102.44 125.419Z" fill="#FF9900"/>
<path d="M234.17 125.019C234.226 133.051 232.608 141.007 229.419 148.379C226.231 155.752 221.541 162.379 215.65 167.839C206.534 176.231 195.514 182.281 183.54 185.469C177.352 187.181 170.96 188.039 164.54 188.019H85.1699C78.1452 188.065 71.1535 187.054 64.4299 185.019C35.8299 176.169 13.8799 155.549 13.8799 125.019C13.8799 108.259 23.2299 90.2287 36.8099 76.0187C35.0181 74.325 33.5909 72.2834 32.616 70.0187C31.641 67.7541 31.1387 65.3143 31.1399 62.8487V31.0187C31.1155 28.1538 31.7753 25.3245 33.0644 22.766C34.3536 20.2075 36.2348 17.9936 38.5518 16.3085C40.8687 14.6233 43.5544 13.5156 46.3857 13.0773C49.2169 12.6391 52.1119 12.883 54.8299 13.7887C66.4899 17.6487 79.3099 26.0687 92.9299 38.7887C96.0347 41.6807 98.0181 45.5766 98.5299 49.7887H149.53C150.042 45.5766 152.025 41.6807 155.13 38.7887C168.75 26.0287 181.57 17.6087 193.24 13.7887C195.957 12.8869 198.849 12.6461 201.678 13.0862C204.507 13.5263 207.189 14.6347 209.504 16.3194C211.818 18.0041 213.697 20.2165 214.985 22.773C216.273 25.3294 216.933 28.1562 216.91 31.0187V62.8187C216.915 65.2893 216.415 67.7349 215.44 70.005C214.465 72.275 213.035 74.3216 211.24 76.0187C224.82 90.1887 234.17 108.219 234.17 125.019Z" fill="#FFBA53"/>
<path d="M51.42 79.9087C49.6263 78.2165 48.1979 76.1751 47.2228 73.9102C46.2477 71.6452 45.7465 69.2046 45.75 66.7386V34.9487C45.7447 30.1499 47.6432 25.5449 51.029 22.1442C54.4147 18.7434 59.0113 16.8245 63.81 16.8087C65.724 16.8106 67.625 17.1213 69.44 17.7287C81.1 21.5787 93.92 29.9987 107.54 42.7287C110.638 45.6259 112.62 49.5191 113.14 53.7287H164.14C164.66 49.5191 166.642 45.6259 169.74 42.7287C183.36 29.9687 196.18 21.5487 207.85 17.7287C209.661 17.1207 211.559 16.81 213.47 16.8087C223.47 16.8087 220.34 24.5387 220.34 34.5387L214.02 67.6287C214.02 72.8087 221.49 76.7687 218.02 80.0787C231.6 94.2787 238.35 111.949 238.35 128.709C238.35 146.109 218.71 156.809 207.28 167.629C198.64 175.819 210.53 185.939 198.13 189.389C191.961 191.089 185.589 191.94 179.19 191.919H99.78C92.7557 191.959 85.7649 190.948 79.04 188.919C50.44 180.019 28.54 159.399 28.54 128.899" fill="#FFBA53"/>
<path d="M164.93 46.0187C172.81 38.6387 183.61 30.0687 194.29 26.5487C195.366 26.2031 196.508 26.1169 197.623 26.2974C198.739 26.4778 199.795 26.9196 200.707 27.5867C201.619 28.2538 202.36 29.1273 202.87 30.1357C203.38 31.1441 203.644 32.2588 203.64 33.3887V60.3887C203.64 61.5759 203.346 62.7446 202.783 63.7899C202.22 64.8352 201.407 65.7244 200.415 66.3777C199.424 67.031 198.286 67.4279 197.103 67.5328C195.921 67.6377 194.731 67.4473 193.64 66.9787C185.358 63.3667 176.797 60.4337 168.04 58.2087C166.798 57.8837 165.665 57.2321 164.76 56.3214C163.855 55.4107 163.21 54.2743 162.893 53.0302C162.575 51.786 162.597 50.4796 162.955 49.2466C163.313 48.0136 163.995 46.899 164.93 46.0187V46.0187Z" fill="#FFA439"/>
<path d="M83.12 46.0187C75.24 38.6387 64.4399 30.0687 53.7699 26.5487C52.6942 26.2031 51.552 26.1169 50.4366 26.2974C49.3212 26.4778 48.2644 26.9196 47.3525 27.5867C46.4405 28.2538 45.6994 29.1273 45.1898 30.1357C44.6801 31.1441 44.4163 32.2588 44.42 33.3887V60.3887C44.4171 61.5768 44.7099 62.747 45.2721 63.7937C45.8342 64.8404 46.648 65.7308 47.6401 66.3846C48.6321 67.0384 49.7713 67.435 50.9549 67.5387C52.1385 67.6424 53.3293 67.45 54.42 66.9787C62.705 63.3667 71.2699 60.4337 80.03 58.2087C81.2727 57.884 82.4055 57.2319 83.3104 56.3203C84.2152 55.4088 84.859 54.2712 85.1746 53.0261C85.4902 51.7811 85.4661 50.4742 85.1047 49.2417C84.7433 48.0092 84.0579 46.8962 83.12 46.0187V46.0187Z" fill="#FFA439"/>
<path d="M214.74 75.7587L212.57 76.7587C226.51 91.2587 222.64 107.409 222.64 122.409C222.69 129.599 221.242 136.721 218.387 143.32C215.533 149.919 211.334 155.852 206.06 160.739C198.32 168.079 188.36 178.229 177.26 181.329C171.722 182.849 166.003 183.609 160.26 183.589H89.2399C82.949 183.613 76.6898 182.696 70.67 180.869C45.06 172.939 25.4099 149.719 25.4099 122.409C25.4099 107.409 21.54 91.2587 33.7 76.7087L31.5199 75.7087C20.2499 91.7087 9.93994 107.809 9.93994 122.409C10.0185 136.834 15.117 150.783 24.36 161.859C32.47 171.779 47.4699 179.789 61.1899 185.029C70.4599 188.559 80.4199 195.119 90.7999 195.119H158.6C171.2 195.119 183.6 187.599 194.53 182.369C201.87 178.859 211.48 174.369 217.05 169.119C230.26 156.609 236.46 140.459 236.46 122.409C236.46 107.809 227.8 91.7387 216.53 77.5487" fill="#FFA439"/>
<path d="M206.95 117.769C197.43 173.769 169.83 167.409 124.02 167.409C78.2098 167.409 50.7898 172.309 41.0898 117.769C36.6798 92.9387 78.2198 72.0987 124.02 72.0987C169.82 72.0987 211.18 92.8987 206.95 117.769Z" fill="#191C28"/>
<path d="M227.34 74.8686C228.953 71.0559 229.786 66.9586 229.79 62.8187V31.0187C229.807 26.1193 228.66 21.2861 226.442 16.9175C224.224 12.5489 220.999 8.77013 217.034 5.89275C213.068 3.01538 208.476 1.12183 203.634 0.36828C198.793 -0.385275 193.843 0.0227089 189.19 1.55865C175.74 5.99865 161.32 15.3786 146.31 29.4286C143.971 31.6146 141.988 34.1517 140.43 36.9487H107.62C106.055 34.1538 104.072 31.6145 101.74 29.4187C86.7402 15.4187 72.3102 5.99866 58.8802 1.56866C54.2274 0.0267493 49.2745 -0.386137 44.4306 0.364068C39.5867 1.11427 34.9908 3.00604 31.0224 5.88317C27.054 8.7603 23.8271 12.5402 21.608 16.9108C19.3889 21.2813 18.2413 26.1171 18.2602 31.0187V62.8187C18.264 66.9586 19.0971 71.0559 20.7102 74.8686C8.11017 90.7286 1.00017 108.669 1.00017 124.979C0.88949 141.021 6.38607 156.598 16.5402 169.019C25.5902 180.099 38.4802 189.019 53.8002 194.899C64.3644 198.902 75.5729 200.936 86.8702 200.899H162.64C176.517 200.946 190.23 197.899 202.78 191.979C210.765 188.205 218.108 183.2 224.54 177.149C231.711 170.502 237.416 162.433 241.292 153.457C245.168 144.481 247.129 134.795 247.05 125.019C247.05 108.669 239.93 90.7186 227.34 74.8686ZM215.65 167.799C206.538 176.205 195.518 182.27 183.54 185.469C177.353 187.181 170.96 188.039 164.54 188.019H85.1702C78.1455 188.065 71.1538 187.054 64.4302 185.019C35.8302 176.169 13.8802 155.549 13.8802 125.019C13.8802 108.259 23.2302 90.2287 36.8102 76.0187C35.0183 74.325 33.5912 72.2834 32.6162 70.0187C31.6413 67.7541 31.139 65.3143 31.1402 62.8487V31.0187C31.1158 28.1538 31.7756 25.3245 33.0647 22.766C34.3539 20.2075 36.2351 17.9936 38.5521 16.3085C40.869 14.6233 43.5547 13.5156 46.386 13.0773C49.2172 12.6391 52.1122 12.8829 54.8302 13.7887C66.4902 17.6487 79.3102 26.0687 92.9302 38.7887C96.035 41.6807 98.0183 45.5766 98.5302 49.7887H149.53C150.042 45.5766 152.025 41.6807 155.13 38.7887C168.75 26.0287 181.57 17.6087 193.24 13.7887C195.957 12.8869 198.85 12.646 201.678 13.0862C204.507 13.5263 207.19 14.6347 209.504 16.3194C211.818 18.0041 213.698 20.2165 214.986 22.7729C216.274 25.3294 216.933 28.1562 216.91 31.0187V62.8187C216.915 65.2893 216.415 67.7349 215.44 70.0049C214.465 72.275 213.036 74.3216 211.24 76.0187C224.82 90.2187 234.17 108.249 234.17 125.019C234.221 133.044 232.6 140.992 229.412 148.357C226.223 155.723 221.537 162.343 215.65 167.799V167.799Z" fill="#181C28"/>
<path d="M207.15 117.769C197.63 173.769 170.02 137.769 124.22 137.769C78.42 137.769 50.99 172.309 41.29 117.769C36.88 92.9387 78.42 72.0987 124.22 72.0987C170.02 72.0987 211.38 92.8987 207.15 117.769Z" fill="#1D212D"/>
<path d="M173.72 132.929C173.229 132.784 172.813 132.456 172.556 132.014C172.299 131.571 172.222 131.047 172.34 130.549C173.141 127.503 172.772 124.267 171.306 121.48C169.84 118.692 167.384 116.555 164.42 115.489C164.11 115.369 163.793 115.269 163.47 115.189C160.2 114.364 156.737 114.869 153.839 116.594C150.941 118.318 148.845 121.121 148.01 124.389C147.9 124.794 147.634 125.14 147.272 125.351C146.909 125.563 146.477 125.623 146.07 125.519L139.72 123.819C139.352 123.707 139.042 123.457 138.856 123.121C138.669 122.785 138.62 122.39 138.72 122.019C141.89 110.229 153.9 102.939 165.5 105.769L166 105.889C171.663 107.425 176.487 111.143 179.416 116.227C182.345 121.311 183.141 127.349 181.63 133.019C181.565 133.263 181.452 133.493 181.298 133.694C181.144 133.895 180.952 134.063 180.733 134.19C180.514 134.316 180.271 134.398 180.02 134.43C179.769 134.463 179.514 134.445 179.27 134.379L173.72 132.929Z" fill="#FF9900"/>
<path d="M102.44 125.419C102.194 125.487 101.936 125.505 101.683 125.473C101.429 125.441 101.185 125.358 100.964 125.231C100.742 125.103 100.548 124.933 100.393 124.73C100.238 124.527 100.125 124.296 100.06 124.049C99.2176 121.021 97.2754 118.417 94.6136 116.747C91.9518 115.076 88.7622 114.46 85.6698 115.019C85.3398 115.079 85.0098 115.149 84.6698 115.239C81.4266 116.161 78.6813 118.332 77.0355 121.274C75.3898 124.217 74.9777 127.693 75.8898 130.939C75.9941 131.344 75.9353 131.775 75.7259 132.137C75.5165 132.5 75.1732 132.766 74.7698 132.879L68.4198 134.579C68.0498 134.683 67.6534 134.637 67.3177 134.449C66.982 134.262 66.7346 133.949 66.6298 133.579C63.4698 121.779 70.2198 109.459 81.6898 106.109L82.1798 105.969C87.8592 104.453 93.9078 105.253 98.998 108.193C104.088 111.133 107.804 115.972 109.33 121.649C109.396 121.894 109.414 122.149 109.382 122.401C109.349 122.653 109.268 122.896 109.141 123.116C109.015 123.336 108.847 123.529 108.646 123.684C108.444 123.839 108.215 123.953 107.97 124.019L102.44 125.419Z" fill="#FF9900"/>
<path d="M83.1202 46.0187C84.0635 46.8948 84.7539 48.0084 85.1191 49.2429C85.4842 50.4774 85.5108 51.7875 85.1959 53.0358C84.881 54.2841 84.2363 55.4247 83.3292 56.3383C82.4222 57.2519 81.2862 57.9048 80.0402 58.2287C71.2795 60.4602 62.7147 63.3998 54.4302 67.0187C53.3395 67.4899 52.1487 67.6824 50.9652 67.5787C49.7816 67.475 48.6424 67.0783 47.6503 66.4246C46.6582 65.7708 45.8444 64.8804 45.2823 63.8337C44.7201 62.787 44.4273 61.6168 44.4302 60.4287L49.4302 54.7487C52.7072 51.0082 56.8713 48.1508 61.5402 46.4387L62.1602 46.2187C66.4002 44.7981 70.9134 44.3872 75.3402 45.0187L83.1202 46.0187Z" fill="#FF9B26"/>
<path d="M164.93 46.0187C163.99 46.897 163.303 48.0114 162.94 49.2458C162.577 50.4802 162.553 51.7892 162.868 53.0364C163.184 54.2837 163.828 55.4233 164.734 56.3366C165.641 57.2499 166.775 57.9033 168.02 58.2287C176.777 60.4537 185.338 63.3866 193.62 66.9987C194.711 67.4672 195.901 67.6577 197.083 67.5528C198.266 67.4479 199.404 67.051 200.395 66.3977C201.387 65.7444 202.2 64.8553 202.763 63.8099C203.326 62.7646 203.62 61.5959 203.62 60.4087L198.62 54.7287C195.349 50.9996 191.196 48.1495 186.54 46.4387L185.92 46.2187C181.68 44.7981 177.167 44.3872 172.74 45.0187L164.93 46.0187Z" fill="#FF9B26"/>
</svg>
