<svg width="55" height="55" viewBox="0 0 55 55" fill="none" xmlns="http://www.w3.org/2000/svg">
<path d="M25 1.44338C26.547 0.550212 28.453 0.550212 30 1.44338L48.8157 12.3066C50.3627 13.1998 51.3157 14.8504 51.3157 16.6368V38.3632C51.3157 40.1496 50.3627 41.8002 48.8157 42.6934L30 53.5566C28.453 54.4498 26.547 54.4498 25 53.5566L6.1843 42.6934C4.6373 41.8002 3.6843 40.1496 3.6843 38.3632V16.6368C3.6843 14.8504 4.6373 13.1998 6.1843 12.3066L25 1.44338Z" fill="#2CFB4D"/>
<path d="M13.5139 27H16.3419V17.662H13.9059L10.3359 21.162L11.9319 22.828L13.5139 21.26V27ZM17.3555 22.338C17.3555 24.872 18.7135 27.168 21.4995 27.168C24.2855 27.168 25.6435 24.872 25.6435 22.338C25.6435 19.804 24.2855 17.522 21.4995 17.522C18.7135 17.522 17.3555 19.804 17.3555 22.338ZM22.8015 22.338C22.8015 23.92 22.3955 24.676 21.4995 24.676C20.6035 24.676 20.1975 23.92 20.1975 22.338C20.1975 20.756 20.6035 20.014 21.4995 20.014C22.3955 20.014 22.8015 20.756 22.8015 22.338ZM26.1465 22.338C26.1465 24.872 27.5045 27.168 30.2905 27.168C33.0765 27.168 34.4345 24.872 34.4345 22.338C34.4345 19.804 33.0765 17.522 30.2905 17.522C27.5045 17.522 26.1465 19.804 26.1465 22.338ZM31.5925 22.338C31.5925 23.92 31.1865 24.676 30.2905 24.676C29.3945 24.676 28.9885 23.92 28.9885 22.338C28.9885 20.756 29.3945 20.014 30.2905 20.014C31.1865 20.014 31.5925 20.756 31.5925 22.338ZM34.9655 19.888C34.9655 21.19 35.9315 22.226 37.4575 22.226C38.9975 22.226 39.9775 21.19 39.9775 19.888C39.9775 18.572 38.9975 17.522 37.4575 17.522C35.9315 17.522 34.9655 18.572 34.9655 19.888ZM36.5195 27H37.8775L43.8555 17.662H42.4835L36.5195 27ZM38.2695 19.888C38.2695 20.49 37.9055 20.742 37.4575 20.742C37.0235 20.742 36.6735 20.49 36.6735 19.888C36.6735 19.258 37.0235 19.006 37.4575 19.006C37.9055 19.006 38.2695 19.258 38.2695 19.888ZM40.3835 24.83C40.3835 26.132 41.3495 27.168 42.8755 27.168C44.4015 27.168 45.3815 26.132 45.3815 24.83C45.3815 23.514 44.4015 22.464 42.8755 22.464C41.3495 22.464 40.3835 23.514 40.3835 24.83ZM43.6875 24.83C43.6875 25.446 43.3235 25.684 42.8755 25.684C42.4275 25.684 42.0775 25.446 42.0775 24.83C42.0775 24.2 42.4275 23.948 42.8755 23.948C43.3235 23.948 43.6875 24.2 43.6875 24.83Z" fill="#252525"/>
<rect x="11" y="29" width="34" height="10" rx="4" fill="#252525"/>
<path d="M15.5789 36H16.7909V34.716H17.7149C18.6509 34.716 19.1549 34.116 19.1549 33.372C19.1549 32.622 18.6509 31.998 17.7149 31.998H15.5789V36ZM17.9249 33.36C17.9249 33.57 17.7629 33.708 17.5589 33.708H16.7909V33.006H17.5589C17.7629 33.006 17.9249 33.144 17.9249 33.36ZM19.5515 36H22.5875V34.992H20.7635V34.482H22.5455V33.474H20.7635V33.006H22.5875V31.998H19.5515V36ZM25.3278 36H26.7078L25.9818 34.584C26.2998 34.428 26.7018 34.062 26.7018 33.372C26.7018 32.622 26.1978 31.998 25.2618 31.998H23.1258V36H24.3378V34.716H24.7758L25.3278 36ZM25.4718 33.354C25.4718 33.576 25.2798 33.708 25.0758 33.708H24.3378V33.006H25.0758C25.2798 33.006 25.4718 33.138 25.4718 33.354ZM27.1922 36H28.4042V34.482H30.1862V33.474H28.4042V33.006H30.2282V31.998H27.1922V36ZM30.7429 36H33.7789V34.992H31.9549V34.482H33.7369V33.474H31.9549V33.006H33.7789V31.998H30.7429V36ZM36.2732 36.072C37.3532 36.072 37.8872 35.436 38.1212 34.902L37.0772 34.422C36.9752 34.734 36.6632 35.004 36.2732 35.004C35.7212 35.004 35.3312 34.56 35.3312 34.002C35.3312 33.444 35.7212 33 36.2732 33C36.6632 33 36.9752 33.27 37.0772 33.582L38.1212 33.096C37.8812 32.544 37.3532 31.932 36.2732 31.932C35.0492 31.932 34.1012 32.766 34.1012 34.002C34.1012 35.232 35.0492 36.072 36.2732 36.072ZM39.3588 36H40.5708V33.054H41.6388V31.998H38.2848V33.054H39.3588V36Z" fill="#2CFB4D"/>
</svg>
