<svg width="55" height="55" viewBox="0 0 55 55" fill="none" xmlns="http://www.w3.org/2000/svg">
<path d="M25 1.44338C26.547 0.550212 28.453 0.550212 30 1.44338L48.8157 12.3066C50.3627 13.1998 51.3157 14.8504 51.3157 16.6368V38.3632C51.3157 40.1496 50.3627 41.8002 48.8157 42.6934L30 53.5566C28.453 54.4498 26.547 54.4498 25 53.5566L6.1843 42.6934C4.6373 41.8002 3.6843 40.1496 3.6843 38.3632V16.6368C3.6843 14.8504 4.6373 13.1998 6.1843 12.3066L25 1.44338Z" fill="#2CB0FB"/>
<path d="M23.0625 37.3999L33.8557 26.6067C34.2462 26.2162 34.2462 25.583 33.8557 25.1925L29.8075 21.1443C29.417 20.7538 28.7838 20.7538 28.3933 21.1443L17.6001 31.9375C17.4418 32.096 17.3293 32.2944 17.2746 32.5117L16.287 37.5389C16.15 38.2362 16.7637 38.8499 17.4611 38.7129L22.4871 37.7254C22.7049 37.6709 22.9041 37.5583 23.0625 37.3999ZM38.2753 22.1871C38.7393 21.7229 39 21.0935 39 20.4372C39 19.7809 38.7393 19.1515 38.2753 18.6874L36.3126 16.7247C35.8485 16.2607 35.2191 16 34.5628 16C33.9065 16 33.2771 16.2607 32.8129 16.7247L31.5573 17.9803C31.1668 18.3708 31.1668 19.0039 31.5573 19.3945L35.6055 23.4427C35.9961 23.8332 36.6292 23.8332 37.0197 23.4427L38.2753 22.1871Z" fill="#252525"/>
</svg>
