<svg width="55" height="55" viewBox="0 0 55 55" fill="none" xmlns="http://www.w3.org/2000/svg">
<path d="M25 1.44338C26.547 0.550212 28.453 0.550212 30 1.44338L48.8157 12.3066C50.3627 13.1998 51.3157 14.8504 51.3157 16.6368V38.3632C51.3157 40.1496 50.3627 41.8002 48.8157 42.6934L30 53.5566C28.453 54.4498 26.547 54.4498 25 53.5566L6.1843 42.6934C4.6373 41.8002 3.6843 40.1496 3.6843 38.3632V16.6368C3.6843 14.8504 4.6373 13.1998 6.1843 12.3066L25 1.44338Z" fill="#FBDA2C"/>
<path d="M38.9583 20.625H34.4444V18.9844C34.4444 18.4389 33.98 18 33.4028 18H21.5972C21.02 18 20.5556 18.4389 20.5556 18.9844V20.625H16.0417C15.4644 20.625 15 21.0639 15 21.6094V23.9062C15 25.3705 15.9766 26.8758 17.6866 28.0365C19.0538 28.9676 20.7161 29.5582 22.4609 29.7469C23.8238 31.8838 25.4167 32.7656 25.4167 32.7656V35.7188H23.3333C21.8012 35.7188 20.5556 36.5678 20.5556 38.0156V38.5078C20.5556 38.7785 20.7899 39 21.0764 39H33.9236C34.2101 39 34.4444 38.7785 34.4444 38.5078V38.0156C34.4444 36.5678 33.1988 35.7188 31.6667 35.7188H29.5833V32.7656C29.5833 32.7656 31.1762 31.8838 32.5391 29.7469C34.2882 29.5582 35.9505 28.9676 37.3134 28.0365C39.0191 26.8758 40 25.3705 40 23.9062V21.6094C40 21.0639 39.5356 20.625 38.9583 20.625ZM19.3099 25.9078C18.2509 25.1859 17.7778 24.382 17.7778 23.9062V23.25H20.5642C20.6076 24.5871 20.816 25.7602 21.1198 26.7855C20.4644 26.5723 19.8524 26.277 19.3099 25.9078V25.9078ZM37.2222 23.9062C37.2222 24.5666 36.454 25.3869 35.6901 25.9078C35.1476 26.277 34.5312 26.5723 33.8759 26.7855C34.1797 25.7602 34.388 24.5871 34.4314 23.25H37.2222V23.9062Z" fill="#252525"/>
</svg>
