<svg width="55" height="55" viewBox="0 0 55 55" fill="none" xmlns="http://www.w3.org/2000/svg">
<path d="M25 1.44338C26.547 0.550212 28.453 0.550212 30 1.44338L48.8157 12.3066C50.3627 13.1998 51.3157 14.8504 51.3157 16.6368V38.3632C51.3157 40.1496 50.3627 41.8002 48.8157 42.6934L30 53.5566C28.453 54.4498 26.547 54.4498 25 53.5566L6.1843 42.6934C4.6373 41.8002 3.6843 40.1496 3.6843 38.3632V16.6368C3.6843 14.8504 4.6373 13.1998 6.1843 12.3066L25 1.44338Z" fill="#FB932C"/>
<path d="M38.9385 29.5354L22.2365 39.1504C20.819 39.9655 19 38.9785 19 37.3352V18.1052C19 16.4645 20.8164 15.4748 22.2365 16.2926L38.9385 25.9076C39.261 26.0902 39.529 26.3542 39.7154 26.6728C39.9018 26.9913 40 27.3531 40 27.7215C40 28.0899 39.9018 28.4517 39.7154 28.7702C39.529 29.0888 39.261 29.3528 38.9385 29.5354Z" fill="#252525"/>
</svg>
