<svg width="55" height="55" viewBox="0 0 55 55" fill="none" xmlns="http://www.w3.org/2000/svg">
<path d="M25 1.44338C26.547 0.550212 28.453 0.550212 30 1.44338L48.8157 12.3066C50.3627 13.1998 51.3157 14.8504 51.3157 16.6368V38.3632C51.3157 40.1496 50.3627 41.8002 48.8157 42.6934L30 53.5566C28.453 54.4498 26.547 54.4498 25 53.5566L6.1843 42.6934C4.6373 41.8002 3.6843 40.1496 3.6843 38.3632V16.6368C3.6843 14.8504 4.6373 13.1998 6.1843 12.3066L25 1.44338Z" fill="#FB2C8F"/>
<path d="M39.2618 25.4931L34.1055 24.7694L36.0658 19.8784C36.3785 19.0984 35.5221 18.37 34.8194 18.8177L30.4113 21.625L28.8133 16.6009C28.6863 16.2002 28.3432 16 28 16C27.6569 16 27.3138 16.2002 27.1868 16.6009L25.5888 21.6255L21.1807 18.8181C20.478 18.3705 19.6221 19.0989 19.9342 19.8789L21.8946 24.7698L16.7383 25.4931C15.9161 25.6084 15.7221 26.7245 16.4557 27.1183L21.0569 29.5867L17.5657 33.5027C17.0538 34.0769 17.485 34.9525 18.1886 34.9525C18.25 34.9525 18.3138 34.9459 18.3794 34.9314L23.4686 33.8228L23.276 39.0986C23.2558 39.6447 23.6918 39.9995 24.1389 39.9995C24.3803 39.9995 24.626 39.8959 24.8046 39.663L28.0005 35.4958L31.1964 39.663C31.375 39.8959 31.6202 39.9995 31.8621 39.9995C32.3093 39.9995 32.7452 39.6447 32.725 39.0986L32.5324 33.8228L37.6216 34.9314C38.4354 35.1077 38.9908 34.1252 38.4349 33.5022L34.9436 29.5862L39.5449 27.1178C40.278 26.7245 40.0839 25.6084 39.2618 25.4931V25.4931ZM31.8677 30.61L29.4353 30.0803L29.5277 32.6017L28 30.61L26.4724 32.6017L26.5643 30.0803L24.1319 30.61L25.8007 28.7383L23.6013 27.5584L26.0655 27.2125L25.1285 24.8748L27.2355 26.2164L28 23.815L28.7636 26.2164L30.8707 24.8748L29.9336 27.2125L32.3978 27.5584L30.1985 28.7383L31.8677 30.61Z" fill="#252525"/>
</svg>
