<svg width="55" height="55" viewBox="0 0 55 55" fill="none" xmlns="http://www.w3.org/2000/svg">
<path d="M25 1.44338C26.547 0.550212 28.453 0.550212 30 1.44338L48.8157 12.3066C50.3627 13.1998 51.3157 14.8504 51.3157 16.6368V38.3632C51.3157 40.1496 50.3627 41.8002 48.8157 42.6934L30 53.5566C28.453 54.4498 26.547 54.4498 25 53.5566L6.1843 42.6934C4.6373 41.8002 3.6843 40.1496 3.6843 38.3632V16.6368C3.6843 14.8504 4.6373 13.1998 6.1843 12.3066L25 1.44338Z" fill="#FB2C2C"/>
<path d="M26.0513 21.8735L22.9458 16.6981C22.8181 16.4852 22.6375 16.309 22.4214 16.1866C22.2054 16.0643 21.9614 16 21.7131 16H16.7201C16.1383 16 15.7978 16.6545 16.1311 17.1311L21.1296 24.2719C22.4647 23.0244 24.1627 22.1682 26.0513 21.8735ZM38.2799 16H33.2869C32.7819 16 32.3138 16.265 32.0542 16.6981L28.9487 21.8735C30.8373 22.1682 32.5353 23.0244 33.8704 24.2715L38.8689 17.1311C39.2022 16.6545 38.8617 16 38.2799 16ZM27.5 23.1875C23.1336 23.1875 19.5937 26.7273 19.5937 31.0938C19.5937 35.4602 23.1336 39 27.5 39C31.8664 39 35.4063 35.4602 35.4063 31.0938C35.4063 26.7273 31.8664 23.1875 27.5 23.1875ZM31.6562 30.2519L29.9523 31.9122L30.3552 34.258C30.4271 34.6785 29.9842 34.9997 29.6073 34.8012L27.5 33.6938L25.3932 34.8012C25.0158 35.0011 24.5733 34.6781 24.6452 34.258L25.0482 31.9122L23.3443 30.2519C23.0379 29.9536 23.2073 29.433 23.6295 29.3719L25.9848 29.0287L27.0373 26.894C27.1321 26.7017 27.3154 26.607 27.4991 26.607C27.6837 26.607 27.8684 26.7031 27.9631 26.894L29.0157 29.0287L31.3709 29.3719C31.7932 29.433 31.9626 29.9536 31.6562 30.2519V30.2519Z" fill="#252525"/>
</svg>
