<svg width="55" height="55" viewBox="0 0 55 55" fill="none" xmlns="http://www.w3.org/2000/svg">
<path d="M25 1.44338C26.547 0.550212 28.453 0.550212 30 1.44338L48.8157 12.3066C50.3627 13.1998 51.3157 14.8504 51.3157 16.6368V38.3632C51.3157 40.1496 50.3627 41.8002 48.8157 42.6934L30 53.5566C28.453 54.4498 26.547 54.4498 25 53.5566L6.1843 42.6934C4.6373 41.8002 3.6843 40.1496 3.6843 38.3632V16.6368C3.6843 14.8504 4.6373 13.1998 6.1843 12.3066L25 1.44338Z" fill="#FB932C"/>
<path d="M34.8469 24.0625H28.6133L30.9144 17.29C31.1305 16.4969 30.5093 15.7143 29.6612 15.7143H21.8827C21.2345 15.7143 20.6835 16.1787 20.5971 16.7996L18.8686 29.3219C18.7659 30.0732 19.3709 30.7411 20.1542 30.7411H26.566L24.0758 40.8894C23.8814 41.6825 24.508 42.4286 25.3344 42.4286C25.7882 42.4286 26.2203 42.199 26.458 41.8025L35.965 25.9409C36.4674 25.1113 35.8462 24.0625 34.8469 24.0625Z" fill="#252525"/>
</svg>
