<svg width="254" height="65" viewBox="0 0 254 65" fill="none" xmlns="http://www.w3.org/2000/svg">
<rect y="0.669983" width="254" height="63.5" rx="12" fill="#27272A"/>
<g filter="url(#filter0_b_460_6)">
<rect x="11" y="12" width="41" height="41" rx="8" fill="#222226"/>
</g>
<path d="M74.066 28.417C74.594 28.934 75.298 29.132 76.035 29.132C77.542 29.132 78.62 28.329 78.62 26.591V21.663H77.058V26.569C77.058 27.284 76.607 27.746 75.914 27.746C75.408 27.746 75.034 27.493 74.748 27.218L74.066 28.417ZM82.5066 29.132C84.2666 29.132 85.3226 27.856 85.3226 26.338C85.3226 24.831 84.2666 23.555 82.5066 23.555C80.7576 23.555 79.7016 24.831 79.7016 26.338C79.7016 27.856 80.7576 29.132 82.5066 29.132ZM82.5066 27.889C81.6376 27.889 81.1536 27.174 81.1536 26.338C81.1536 25.513 81.6376 24.798 82.5066 24.798C83.3756 24.798 83.8706 25.513 83.8706 26.338C83.8706 27.174 83.3756 27.889 82.5066 27.889ZM87.052 22.906C87.514 22.906 87.888 22.532 87.888 22.07C87.888 21.608 87.514 21.234 87.052 21.234C86.601 21.234 86.216 21.608 86.216 22.07C86.216 22.532 86.601 22.906 87.052 22.906ZM86.359 29H87.756V23.687H86.359V29ZM92.7272 29H94.1242V25.249C94.1242 24.215 93.5632 23.555 92.3972 23.555C91.5282 23.555 90.8792 23.973 90.5382 24.38V23.687H89.1412V29H90.5382V25.425C90.7692 25.106 91.1982 24.798 91.7482 24.798C92.3422 24.798 92.7272 25.051 92.7272 25.788V29ZM100.79 29.132C102.55 29.132 103.606 27.856 103.606 26.338C103.606 24.831 102.55 23.555 100.79 23.555C99.0408 23.555 97.9848 24.831 97.9848 26.338C97.9848 27.856 99.0408 29.132 100.79 29.132ZM100.79 27.889C99.9208 27.889 99.4368 27.174 99.4368 26.338C99.4368 25.513 99.9208 24.798 100.79 24.798C101.659 24.798 102.154 25.513 102.154 26.338C102.154 27.174 101.659 27.889 100.79 27.889ZM108.228 29H109.625V23.687H108.228V27.284C107.986 27.592 107.557 27.889 107.018 27.889C106.424 27.889 106.039 27.647 106.039 26.91V23.687H104.642V27.46C104.642 28.494 105.192 29.132 106.358 29.132C107.227 29.132 107.865 28.736 108.228 28.329V29ZM111.012 29H112.409V25.491C112.64 25.15 113.256 24.886 113.718 24.886C113.872 24.886 114.004 24.908 114.103 24.93V23.566C113.443 23.566 112.783 23.94 112.409 24.413V23.687H111.012V29ZM158.847 28.307C159.408 28.824 160.299 29.132 161.223 29.132C162.697 29.132 163.522 28.395 163.522 27.427C163.522 26.107 162.301 25.865 161.388 25.689C160.794 25.568 160.376 25.447 160.376 25.117C160.376 24.809 160.706 24.622 161.212 24.622C161.861 24.622 162.466 24.897 162.785 25.238L163.346 24.281C162.818 23.863 162.103 23.555 161.201 23.555C159.804 23.555 159.023 24.336 159.023 25.227C159.023 26.492 160.2 26.712 161.113 26.888C161.718 27.009 162.18 27.141 162.18 27.515C162.18 27.845 161.894 28.054 161.289 28.054C160.629 28.054 159.837 27.691 159.452 27.328L158.847 28.307ZM164.21 26.338C164.21 28.043 165.431 29.132 167.048 29.132C167.873 29.132 168.709 28.879 169.237 28.395L168.621 27.493C168.28 27.823 167.697 28.021 167.202 28.021C166.3 28.021 165.761 27.46 165.673 26.789H169.622V26.481C169.622 24.743 168.544 23.555 166.96 23.555C165.343 23.555 164.21 24.798 164.21 26.338ZM166.96 24.666C167.884 24.666 168.236 25.337 168.269 25.843H165.651C165.717 25.315 166.091 24.666 166.96 24.666ZM170.631 29H172.028V25.491C172.259 25.15 172.875 24.886 173.337 24.886C173.491 24.886 173.623 24.908 173.722 24.93V23.566C173.062 23.566 172.402 23.94 172.028 24.413V23.687H170.631V29ZM175.97 29H177.477L179.611 23.687H178.104L176.718 27.383L175.332 23.687H173.836L175.97 29ZM179.894 26.338C179.894 28.043 181.115 29.132 182.732 29.132C183.557 29.132 184.393 28.879 184.921 28.395L184.305 27.493C183.964 27.823 183.381 28.021 182.886 28.021C181.984 28.021 181.445 27.46 181.357 26.789H185.306V26.481C185.306 24.743 184.228 23.555 182.644 23.555C181.027 23.555 179.894 24.798 179.894 26.338ZM182.644 24.666C183.568 24.666 183.92 25.337 183.953 25.843H181.335C181.401 25.315 181.775 24.666 182.644 24.666ZM186.315 29H187.712V25.491C187.943 25.15 188.559 24.886 189.021 24.886C189.175 24.886 189.307 24.908 189.406 24.93V23.566C188.746 23.566 188.086 23.94 187.712 24.413V23.687H186.315V29ZM193.401 29H194.809V24.908H195.887V23.687H194.809V23.423C194.809 22.917 195.073 22.653 195.469 22.653C195.634 22.653 195.799 22.686 195.92 22.763L196.206 21.773C195.953 21.641 195.59 21.553 195.194 21.553C194.149 21.553 193.401 22.246 193.401 23.401V23.687H192.521V24.908H193.401V29ZM199.156 29.132C200.916 29.132 201.972 27.856 201.972 26.338C201.972 24.831 200.916 23.555 199.156 23.555C197.407 23.555 196.351 24.831 196.351 26.338C196.351 27.856 197.407 29.132 199.156 29.132ZM199.156 27.889C198.287 27.889 197.803 27.174 197.803 26.338C197.803 25.513 198.287 24.798 199.156 24.798C200.025 24.798 200.52 25.513 200.52 26.338C200.52 27.174 200.025 27.889 199.156 27.889ZM203.008 29H204.405V25.491C204.636 25.15 205.252 24.886 205.714 24.886C205.868 24.886 206 24.908 206.099 24.93V23.566C205.439 23.566 204.779 23.94 204.405 24.413V23.687H203.008V29ZM76.475 42.132C77.058 42.132 77.432 41.978 77.641 41.791L77.344 40.735C77.267 40.812 77.069 40.889 76.86 40.889C76.552 40.889 76.376 40.636 76.376 40.306V37.908H77.454V36.687H76.376V35.235H74.968V36.687H74.088V37.908H74.968V40.68C74.968 41.626 75.496 42.132 76.475 42.132ZM82.0068 42H83.4038V38.227C83.4038 37.193 82.8428 36.555 81.6768 36.555C80.8078 36.555 80.1478 36.973 79.8068 37.38V34.663H78.4098V42H79.8068V38.425C80.0488 38.106 80.4778 37.798 81.0168 37.798C81.6218 37.798 82.0068 38.029 82.0068 38.766V42ZM84.4497 39.338C84.4497 41.043 85.6707 42.132 87.2877 42.132C88.1127 42.132 88.9487 41.879 89.4767 41.395L88.8607 40.493C88.5197 40.823 87.9367 41.021 87.4417 41.021C86.5397 41.021 86.0007 40.46 85.9127 39.789H89.8617V39.481C89.8617 37.743 88.7837 36.555 87.1997 36.555C85.5827 36.555 84.4497 37.798 84.4497 39.338ZM87.1997 37.666C88.1237 37.666 88.4757 38.337 88.5087 38.843H85.8907C85.9567 38.315 86.3307 37.666 87.1997 37.666ZM93.6852 42H95.0822V34.663H93.6852V42ZM99.6574 42H101.054V38.568C101.054 37.039 99.9434 36.555 98.7334 36.555C97.8974 36.555 97.0614 36.819 96.4124 37.391L96.9404 38.326C97.3914 37.908 97.9194 37.699 98.4914 37.699C99.1954 37.699 99.6574 38.051 99.6574 38.59V39.327C99.3054 38.898 98.6784 38.678 97.9744 38.678C97.1274 38.678 96.1264 39.129 96.1264 40.372C96.1264 41.56 97.1274 42.132 97.9744 42.132C98.6674 42.132 99.2944 41.879 99.6574 41.45V42ZM99.6574 40.724C99.4264 41.032 98.9864 41.186 98.5354 41.186C97.9854 41.186 97.5344 40.9 97.5344 40.405C97.5344 39.888 97.9854 39.602 98.5354 39.602C98.9864 39.602 99.4264 39.756 99.6574 40.064V40.724ZM104.222 42.132C104.805 42.132 105.179 41.978 105.388 41.791L105.091 40.735C105.014 40.812 104.816 40.889 104.607 40.889C104.299 40.889 104.123 40.636 104.123 40.306V37.908H105.201V36.687H104.123V35.235H102.715V36.687H101.835V37.908H102.715V40.68C102.715 41.626 103.243 42.132 104.222 42.132ZM105.816 39.338C105.816 41.043 107.037 42.132 108.654 42.132C109.479 42.132 110.315 41.879 110.843 41.395L110.227 40.493C109.886 40.823 109.303 41.021 108.808 41.021C107.906 41.021 107.367 40.46 107.279 39.789H111.228V39.481C111.228 37.743 110.15 36.555 108.566 36.555C106.949 36.555 105.816 37.798 105.816 39.338ZM108.566 37.666C109.49 37.666 109.842 38.337 109.875 38.843H107.257C107.323 38.315 107.697 37.666 108.566 37.666ZM111.775 41.307C112.336 41.824 113.227 42.132 114.151 42.132C115.625 42.132 116.45 41.395 116.45 40.427C116.45 39.107 115.229 38.865 114.316 38.689C113.722 38.568 113.304 38.447 113.304 38.117C113.304 37.809 113.634 37.622 114.14 37.622C114.789 37.622 115.394 37.897 115.713 38.238L116.274 37.281C115.746 36.863 115.031 36.555 114.129 36.555C112.732 36.555 111.951 37.336 111.951 38.227C111.951 39.492 113.128 39.712 114.041 39.888C114.646 40.009 115.108 40.141 115.108 40.515C115.108 40.845 114.822 41.054 114.217 41.054C113.557 41.054 112.765 40.691 112.38 40.328L111.775 41.307ZM119.261 42.132C119.844 42.132 120.218 41.978 120.427 41.791L120.13 40.735C120.053 40.812 119.855 40.889 119.646 40.889C119.338 40.889 119.162 40.636 119.162 40.306V37.908H120.24V36.687H119.162V35.235H117.754V36.687H116.874V37.908H117.754V40.68C117.754 41.626 118.282 42.132 119.261 42.132ZM127.596 42H128.993V38.249C128.993 37.215 128.432 36.555 127.266 36.555C126.397 36.555 125.748 36.973 125.407 37.38V36.687H124.01V42H125.407V38.425C125.638 38.106 126.067 37.798 126.617 37.798C127.211 37.798 127.596 38.051 127.596 38.788V42ZM130.04 39.338C130.04 41.043 131.261 42.132 132.878 42.132C133.703 42.132 134.539 41.879 135.067 41.395L134.451 40.493C134.11 40.823 133.527 41.021 133.032 41.021C132.13 41.021 131.591 40.46 131.503 39.789H135.452V39.481C135.452 37.743 134.374 36.555 132.79 36.555C131.173 36.555 130.04 37.798 130.04 39.338ZM132.79 37.666C133.714 37.666 134.066 38.337 134.099 38.843H131.481C131.547 38.315 131.921 37.666 132.79 37.666ZM141.125 42H142.61L144.227 36.687H142.775L141.785 40.262L140.619 36.687H139.376L138.21 40.262L137.22 36.687H135.768L137.385 42H138.881L140.003 38.381L141.125 42ZM144.453 41.307C145.014 41.824 145.905 42.132 146.829 42.132C148.303 42.132 149.128 41.395 149.128 40.427C149.128 39.107 147.907 38.865 146.994 38.689C146.4 38.568 145.982 38.447 145.982 38.117C145.982 37.809 146.312 37.622 146.818 37.622C147.467 37.622 148.072 37.897 148.391 38.238L148.952 37.281C148.424 36.863 147.709 36.555 146.807 36.555C145.41 36.555 144.629 37.336 144.629 38.227C144.629 39.492 145.806 39.712 146.719 39.888C147.324 40.009 147.786 40.141 147.786 40.515C147.786 40.845 147.5 41.054 146.895 41.054C146.235 41.054 145.443 40.691 145.058 40.328L144.453 41.307ZM156.161 42H157.558V38.568C157.558 37.039 156.447 36.555 155.237 36.555C154.401 36.555 153.565 36.819 152.916 37.391L153.444 38.326C153.895 37.908 154.423 37.699 154.995 37.699C155.699 37.699 156.161 38.051 156.161 38.59V39.327C155.809 38.898 155.182 38.678 154.478 38.678C153.631 38.678 152.63 39.129 152.63 40.372C152.63 41.56 153.631 42.132 154.478 42.132C155.171 42.132 155.798 41.879 156.161 41.45V42ZM156.161 40.724C155.93 41.032 155.49 41.186 155.039 41.186C154.489 41.186 154.038 40.9 154.038 40.405C154.038 39.888 154.489 39.602 155.039 39.602C155.49 39.602 155.93 39.756 156.161 40.064V40.724ZM162.53 42H163.927V38.249C163.927 37.215 163.366 36.555 162.2 36.555C161.331 36.555 160.682 36.973 160.341 37.38V36.687H158.944V42H160.341V38.425C160.572 38.106 161.001 37.798 161.551 37.798C162.145 37.798 162.53 38.051 162.53 38.788V42ZM168.966 42H170.374V34.663H168.966V37.369C168.548 36.83 167.954 36.555 167.327 36.555C165.974 36.555 164.973 37.611 164.973 39.349C164.973 41.12 165.985 42.132 167.327 42.132C167.965 42.132 168.548 41.846 168.966 41.318V42ZM168.966 40.284C168.735 40.636 168.229 40.889 167.756 40.889C166.964 40.889 166.414 40.262 166.414 39.349C166.414 38.425 166.964 37.798 167.756 37.798C168.229 37.798 168.735 38.051 168.966 38.403V40.284ZM178.16 42H179.557V36.687H178.16V40.284C177.918 40.592 177.489 40.889 176.95 40.889C176.356 40.889 175.971 40.647 175.971 39.91V36.687H174.574V40.46C174.574 41.494 175.124 42.132 176.29 42.132C177.159 42.132 177.797 41.736 178.16 41.329V42ZM182.341 44.024V41.318C182.77 41.868 183.353 42.132 183.98 42.132C185.344 42.132 186.334 41.109 186.334 39.338C186.334 37.567 185.344 36.555 183.98 36.555C183.331 36.555 182.748 36.841 182.341 37.358V36.687H180.944V44.024H182.341ZM184.882 39.338C184.882 40.262 184.343 40.889 183.54 40.889C183.089 40.889 182.572 40.614 182.341 40.284V38.403C182.572 38.062 183.089 37.798 183.54 37.798C184.343 37.798 184.882 38.425 184.882 39.338ZM191.031 42H192.439V34.663H191.031V37.369C190.613 36.83 190.019 36.555 189.392 36.555C188.039 36.555 187.038 37.611 187.038 39.349C187.038 41.12 188.05 42.132 189.392 42.132C190.03 42.132 190.613 41.846 191.031 41.318V42ZM191.031 40.284C190.8 40.636 190.294 40.889 189.821 40.889C189.029 40.889 188.479 40.262 188.479 39.349C188.479 38.425 189.029 37.798 189.821 37.798C190.294 37.798 190.8 38.051 191.031 38.403V40.284ZM197.014 42H198.411V38.568C198.411 37.039 197.3 36.555 196.09 36.555C195.254 36.555 194.418 36.819 193.769 37.391L194.297 38.326C194.748 37.908 195.276 37.699 195.848 37.699C196.552 37.699 197.014 38.051 197.014 38.59V39.327C196.662 38.898 196.035 38.678 195.331 38.678C194.484 38.678 193.483 39.129 193.483 40.372C193.483 41.56 194.484 42.132 195.331 42.132C196.024 42.132 196.651 41.879 197.014 41.45V42ZM197.014 40.724C196.783 41.032 196.343 41.186 195.892 41.186C195.342 41.186 194.891 40.9 194.891 40.405C194.891 39.888 195.342 39.602 195.892 39.602C196.343 39.602 196.783 39.756 197.014 40.064V40.724ZM201.579 42.132C202.162 42.132 202.536 41.978 202.745 41.791L202.448 40.735C202.371 40.812 202.173 40.889 201.964 40.889C201.656 40.889 201.48 40.636 201.48 40.306V37.908H202.558V36.687H201.48V35.235H200.072V36.687H199.192V37.908H200.072V40.68C200.072 41.626 200.6 42.132 201.579 42.132ZM203.172 39.338C203.172 41.043 204.393 42.132 206.01 42.132C206.835 42.132 207.671 41.879 208.199 41.395L207.583 40.493C207.242 40.823 206.659 41.021 206.164 41.021C205.262 41.021 204.723 40.46 204.635 39.789H208.584V39.481C208.584 37.743 207.506 36.555 205.922 36.555C204.305 36.555 203.172 37.798 203.172 39.338ZM205.922 37.666C206.846 37.666 207.198 38.337 207.231 38.843H204.613C204.679 38.315 205.053 37.666 205.922 37.666ZM209.131 41.307C209.692 41.824 210.583 42.132 211.507 42.132C212.981 42.132 213.806 41.395 213.806 40.427C213.806 39.107 212.585 38.865 211.672 38.689C211.078 38.568 210.66 38.447 210.66 38.117C210.66 37.809 210.99 37.622 211.496 37.622C212.145 37.622 212.75 37.897 213.069 38.238L213.63 37.281C213.102 36.863 212.387 36.555 211.485 36.555C210.088 36.555 209.307 37.336 209.307 38.227C209.307 39.492 210.484 39.712 211.397 39.888C212.002 40.009 212.464 40.141 212.464 40.515C212.464 40.845 212.178 41.054 211.573 41.054C210.913 41.054 210.121 40.691 209.736 40.328L209.131 41.307ZM214.935 39.613H216.167L216.387 34.663H214.704L214.935 39.613ZM214.671 41.23C214.671 41.703 215.067 42.11 215.551 42.11C216.035 42.11 216.442 41.703 216.442 41.23C216.442 40.746 216.035 40.339 215.551 40.339C215.067 40.339 214.671 40.746 214.671 41.23Z" fill="white"/>
<path d="M117.758 29H120.849C123.148 29 124.809 27.603 124.809 25.326C124.809 23.049 123.148 21.663 120.838 21.663H117.758V29ZM119.65 27.35V23.313H120.849C122.191 23.313 122.873 24.193 122.873 25.326C122.873 26.415 122.125 27.35 120.838 27.35H119.65ZM126.553 23.016C127.092 23.016 127.521 22.587 127.521 22.048C127.521 21.509 127.092 21.08 126.553 21.08C126.014 21.08 125.585 21.509 125.585 22.048C125.585 22.587 126.014 23.016 126.553 23.016ZM125.706 29H127.4V23.687H125.706V29ZM128.177 28.318C128.738 28.813 129.717 29.132 130.663 29.132C132.192 29.132 133.083 28.384 133.083 27.372C133.083 25.964 131.741 25.744 130.839 25.59C130.278 25.491 129.992 25.403 129.992 25.161C129.992 24.93 130.267 24.798 130.663 24.798C131.301 24.798 131.906 25.073 132.225 25.381L132.874 24.259C132.302 23.841 131.543 23.555 130.652 23.555C129.178 23.555 128.375 24.369 128.375 25.304C128.375 26.657 129.651 26.844 130.553 26.998C131.103 27.086 131.466 27.185 131.466 27.46C131.466 27.691 131.257 27.856 130.751 27.856C130.124 27.856 129.277 27.504 128.881 27.152L128.177 28.318ZM133.604 26.338C133.604 28.01 134.847 29.132 136.508 29.132C137.652 29.132 138.367 28.615 138.686 28.153L137.586 27.119C137.377 27.416 137.036 27.636 136.585 27.636C135.881 27.636 135.342 27.141 135.342 26.338C135.342 25.535 135.881 25.051 136.585 25.051C137.036 25.051 137.377 25.249 137.586 25.557L138.686 24.534C138.367 24.061 137.652 23.555 136.508 23.555C134.847 23.555 133.604 24.677 133.604 26.338ZM141.997 29.132C143.823 29.132 144.901 27.834 144.901 26.338C144.901 24.842 143.823 23.555 141.997 23.555C140.193 23.555 139.104 24.842 139.104 26.338C139.104 27.834 140.193 29.132 141.997 29.132ZM141.997 27.636C141.26 27.636 140.853 27.053 140.853 26.338C140.853 25.634 141.26 25.051 141.997 25.051C142.745 25.051 143.163 25.634 143.163 26.338C143.163 27.053 142.745 27.636 141.997 27.636ZM145.794 29H147.488V25.634C147.708 25.326 148.291 25.139 148.731 25.139C148.907 25.139 149.05 25.161 149.149 25.194V23.555C148.511 23.555 147.84 23.929 147.488 24.358V23.687H145.794V29ZM153.494 29H155.177V21.663H153.494V24.314C153.065 23.786 152.504 23.555 151.921 23.555C150.59 23.555 149.567 24.6 149.567 26.338C149.567 28.142 150.612 29.132 151.921 29.132C152.515 29.132 153.054 28.89 153.494 28.384V29ZM153.494 27.152C153.274 27.438 152.834 27.636 152.471 27.636C151.8 27.636 151.305 27.13 151.305 26.338C151.305 25.546 151.8 25.051 152.471 25.051C152.834 25.051 153.274 25.238 153.494 25.524V27.152Z" fill="#5865F2"/>
<path d="M40.1774 23.5912C38.5349 22.8372 36.8009 22.3022 35.0197 22C34.776 22.4369 34.5554 22.8865 34.359 23.3467C32.4617 23.06 30.5323 23.06 28.635 23.3467C28.4385 22.8865 28.218 22.437 27.9743 22C26.192 22.3047 24.4569 22.841 22.8127 23.5952C19.5486 28.4378 18.6637 33.1602 19.1062 37.8156C21.0177 39.2318 23.1573 40.3089 25.4319 41C25.944 40.3092 26.3972 39.5764 26.7867 38.8094C26.047 38.5323 25.3331 38.1906 24.6532 37.788C24.8321 37.6578 25.0071 37.5238 25.1762 37.3936C27.1546 38.3266 29.3138 38.8103 31.5 38.8103C33.6861 38.8103 35.8454 38.3266 37.8237 37.3936C37.9948 37.5336 38.1698 37.6677 38.3467 37.788C37.6655 38.1912 36.9503 38.5336 36.2093 38.8113C36.5983 39.5781 37.0515 40.3102 37.5641 41C39.8406 40.3117 41.9819 39.2351 43.8937 37.8176V37.8176C44.4129 32.4188 43.0069 27.7398 40.1774 23.5912ZM27.3471 34.9526C26.1142 34.9526 25.0956 33.8306 25.0956 32.4504C25.0956 31.0702 26.0788 29.9384 27.3431 29.9384C28.6075 29.9384 29.6182 31.0702 29.5965 32.4504C29.5749 33.8306 28.6035 34.9526 27.3471 34.9526ZM35.6528 34.9526C34.418 34.9526 33.4034 33.8306 33.4034 32.4504C33.4034 31.0702 34.3865 29.9384 35.6528 29.9384C36.9192 29.9384 37.922 31.0702 37.9004 32.4504C37.8787 33.8306 36.9093 34.9526 35.6528 34.9526Z" fill="#5865F2"/>
<circle cx="63" cy="32" r="3" fill="#222226"/>
<defs>
<filter id="filter0_b_460_6" x="-1" y="0" width="65" height="65" filterUnits="userSpaceOnUse" color-interpolation-filters="sRGB">
<feFlood flood-opacity="0" result="BackgroundImageFix"/>
<feGaussianBlur in="BackgroundImage" stdDeviation="6"/>
<feComposite in2="SourceAlpha" operator="in" result="effect1_backgroundBlur_460_6"/>
<feBlend mode="normal" in="SourceGraphic" in2="effect1_backgroundBlur_460_6" result="shape"/>
</filter>
</defs>
</svg>
