<svg width="254" height="64" viewBox="0 0 254 64" fill="none" xmlns="http://www.w3.org/2000/svg">
<rect width="254" height="63.5" rx="12" fill="#27272A"/>
<g filter="url(#filter0_b_460_44)">
<rect x="11" y="11.33" width="41" height="41" rx="8" fill="#222226"/>
</g>
<path d="M74.374 24.667C74.374 26.977 76.134 28.473 78.279 28.473C79.61 28.473 80.655 27.923 81.403 27.087V24.282H77.905V25.624H79.863V26.515C79.544 26.801 78.95 27.076 78.279 27.076C76.948 27.076 75.98 26.053 75.98 24.667C75.98 23.281 76.948 22.258 78.279 22.258C79.049 22.258 79.676 22.665 80.017 23.182L81.315 22.478C80.754 21.609 79.797 20.872 78.279 20.872C76.134 20.872 74.374 22.346 74.374 24.667ZM82.269 25.668C82.269 27.373 83.49 28.462 85.107 28.462C85.932 28.462 86.768 28.209 87.296 27.725L86.68 26.823C86.339 27.153 85.756 27.351 85.261 27.351C84.359 27.351 83.82 26.79 83.732 26.119H87.681V25.811C87.681 24.073 86.603 22.885 85.019 22.885C83.402 22.885 82.269 24.128 82.269 25.668ZM85.019 23.996C85.943 23.996 86.295 24.667 86.328 25.173H83.71C83.776 24.645 84.15 23.996 85.019 23.996ZM90.4721 28.462C91.0551 28.462 91.4291 28.308 91.6381 28.121L91.3411 27.065C91.2641 27.142 91.0661 27.219 90.8571 27.219C90.5491 27.219 90.3731 26.966 90.3731 26.636V24.238H91.4511V23.017H90.3731V21.565H88.9651V23.017H88.0851V24.238H88.9651V27.01C88.9651 27.956 89.4931 28.462 90.4721 28.462ZM94.7593 27.637C95.3203 28.154 96.2113 28.462 97.1353 28.462C98.6093 28.462 99.4343 27.725 99.4343 26.757C99.4343 25.437 98.2133 25.195 97.3003 25.019C96.7063 24.898 96.2883 24.777 96.2883 24.447C96.2883 24.139 96.6183 23.952 97.1243 23.952C97.7733 23.952 98.3783 24.227 98.6973 24.568L99.2583 23.611C98.7303 23.193 98.0153 22.885 97.1133 22.885C95.7163 22.885 94.9353 23.666 94.9353 24.557C94.9353 25.822 96.1123 26.042 97.0253 26.218C97.6303 26.339 98.0923 26.471 98.0923 26.845C98.0923 27.175 97.8063 27.384 97.2013 27.384C96.5413 27.384 95.7493 27.021 95.3643 26.658L94.7593 27.637ZM102.928 28.462C104.688 28.462 105.744 27.186 105.744 25.668C105.744 24.161 104.688 22.885 102.928 22.885C101.179 22.885 100.123 24.161 100.123 25.668C100.123 27.186 101.179 28.462 102.928 28.462ZM102.928 27.219C102.059 27.219 101.575 26.504 101.575 25.668C101.575 24.843 102.059 24.128 102.928 24.128C103.797 24.128 104.292 24.843 104.292 25.668C104.292 26.504 103.797 27.219 102.928 27.219ZM113.369 28.33H114.777V24.491C114.777 23.402 114.194 22.885 113.215 22.885C112.401 22.885 111.697 23.369 111.389 23.853C111.191 23.248 110.696 22.885 109.915 22.885C109.101 22.885 108.397 23.391 108.177 23.71V23.017H106.78V28.33H108.177V24.755C108.386 24.458 108.793 24.128 109.277 24.128C109.849 24.128 110.069 24.48 110.069 24.975V28.33H111.477V24.744C111.675 24.458 112.082 24.128 112.577 24.128C113.149 24.128 113.369 24.48 113.369 24.975V28.33ZM115.806 25.668C115.806 27.373 117.027 28.462 118.644 28.462C119.469 28.462 120.305 28.209 120.833 27.725L120.217 26.823C119.876 27.153 119.293 27.351 118.798 27.351C117.896 27.351 117.357 26.79 117.269 26.119H121.218V25.811C121.218 24.073 120.14 22.885 118.556 22.885C116.939 22.885 115.806 24.128 115.806 25.668ZM118.556 23.996C119.48 23.996 119.832 24.667 119.865 25.173H117.247C117.313 24.645 117.687 23.996 118.556 23.996ZM173.764 28.33H175.689L172.576 24.436L175.491 20.993H173.566L170.97 24.271V20.993H169.408V28.33H170.97V26.075L171.542 25.393L173.764 28.33ZM175.726 25.668C175.726 27.373 176.947 28.462 178.564 28.462C179.389 28.462 180.225 28.209 180.753 27.725L180.137 26.823C179.796 27.153 179.213 27.351 178.718 27.351C177.816 27.351 177.277 26.79 177.189 26.119H181.138V25.811C181.138 24.073 180.06 22.885 178.476 22.885C176.859 22.885 175.726 24.128 175.726 25.668ZM178.476 23.996C179.4 23.996 179.752 24.667 179.785 25.173H177.167C177.233 24.645 177.607 23.996 178.476 23.996ZM182.169 29.155L181.96 30.409C182.136 30.453 182.488 30.486 182.653 30.486C183.566 30.464 184.27 30.2 184.666 29.199L187.163 23.017H185.656L184.27 26.713L182.884 23.017H181.388L183.544 28.407L183.346 28.858C183.214 29.144 182.972 29.243 182.609 29.243C182.477 29.243 182.29 29.21 182.169 29.155ZM194.376 28.33H195.784V24.491C195.784 23.402 195.201 22.885 194.222 22.885C193.408 22.885 192.704 23.369 192.396 23.853C192.198 23.248 191.703 22.885 190.922 22.885C190.108 22.885 189.404 23.391 189.184 23.71V23.017H187.787V28.33H189.184V24.755C189.393 24.458 189.8 24.128 190.284 24.128C190.856 24.128 191.076 24.48 191.076 24.975V28.33H192.484V24.744C192.682 24.458 193.089 24.128 193.584 24.128C194.156 24.128 194.376 24.48 194.376 24.975V28.33ZM200.344 28.33H201.741V24.898C201.741 23.369 200.63 22.885 199.42 22.885C198.584 22.885 197.748 23.149 197.099 23.721L197.627 24.656C198.078 24.238 198.606 24.029 199.178 24.029C199.882 24.029 200.344 24.381 200.344 24.92V25.657C199.992 25.228 199.365 25.008 198.661 25.008C197.814 25.008 196.813 25.459 196.813 26.702C196.813 27.89 197.814 28.462 198.661 28.462C199.354 28.462 199.981 28.209 200.344 27.78V28.33ZM200.344 27.054C200.113 27.362 199.673 27.516 199.222 27.516C198.672 27.516 198.221 27.23 198.221 26.735C198.221 26.218 198.672 25.932 199.222 25.932C199.673 25.932 200.113 26.086 200.344 26.394V27.054ZM202.665 27.637C203.226 28.154 204.117 28.462 205.041 28.462C206.515 28.462 207.34 27.725 207.34 26.757C207.34 25.437 206.119 25.195 205.206 25.019C204.612 24.898 204.194 24.777 204.194 24.447C204.194 24.139 204.524 23.952 205.03 23.952C205.679 23.952 206.284 24.227 206.603 24.568L207.164 23.611C206.636 23.193 205.921 22.885 205.019 22.885C203.622 22.885 202.841 23.666 202.841 24.557C202.841 25.822 204.018 26.042 204.931 26.218C205.536 26.339 205.998 26.471 205.998 26.845C205.998 27.175 205.712 27.384 205.107 27.384C204.447 27.384 203.655 27.021 203.27 26.658L202.665 27.637ZM211.966 28.33H213.363V24.557C213.363 23.523 212.802 22.885 211.636 22.885C210.767 22.885 210.107 23.303 209.766 23.71V20.993H208.369V28.33H209.766V24.755C210.008 24.436 210.437 24.128 210.976 24.128C211.581 24.128 211.966 24.359 211.966 25.096V28.33ZM74.231 40.637C74.792 41.154 75.683 41.462 76.607 41.462C78.081 41.462 78.906 40.725 78.906 39.757C78.906 38.437 77.685 38.195 76.772 38.019C76.178 37.898 75.76 37.777 75.76 37.447C75.76 37.139 76.09 36.952 76.596 36.952C77.245 36.952 77.85 37.227 78.169 37.568L78.73 36.611C78.202 36.193 77.487 35.885 76.585 35.885C75.188 35.885 74.407 36.666 74.407 37.557C74.407 38.822 75.584 39.042 76.497 39.218C77.102 39.339 77.564 39.471 77.564 39.845C77.564 40.175 77.278 40.384 76.673 40.384C76.013 40.384 75.221 40.021 74.836 39.658L74.231 40.637ZM84.5992 41.33H86.0842L87.7012 36.017H86.2492L85.2592 39.592L84.0932 36.017H82.8502L81.6842 39.592L80.6942 36.017H79.2422L80.8592 41.33H82.3552L83.4772 37.711L84.5992 41.33ZM91.5793 41.33H92.9763V37.898C92.9763 36.369 91.8653 35.885 90.6553 35.885C89.8193 35.885 88.9833 36.149 88.3343 36.721L88.8623 37.656C89.3133 37.238 89.8413 37.029 90.4133 37.029C91.1173 37.029 91.5793 37.381 91.5793 37.92V38.657C91.2273 38.228 90.6003 38.008 89.8963 38.008C89.0493 38.008 88.0483 38.459 88.0483 39.702C88.0483 40.89 89.0493 41.462 89.8963 41.462C90.5893 41.462 91.2163 41.209 91.5793 40.78V41.33ZM91.5793 40.054C91.3483 40.362 90.9083 40.516 90.4573 40.516C89.9073 40.516 89.4563 40.23 89.4563 39.735C89.4563 39.218 89.9073 38.932 90.4573 38.932C90.9083 38.932 91.3483 39.086 91.5793 39.394V40.054ZM94.2519 42.694C94.9229 43.277 95.6269 43.486 96.5399 43.486C97.8489 43.486 99.4109 42.991 99.4109 40.967V36.017H98.0029V36.699C97.5739 36.16 97.0019 35.885 96.3639 35.885C95.0219 35.885 94.0209 36.853 94.0209 38.591C94.0209 40.362 95.0329 41.297 96.3639 41.297C97.0129 41.297 97.5849 40.989 98.0029 40.461V41C98.0029 42.045 97.2109 42.342 96.5399 42.342C95.8689 42.342 95.3079 42.155 94.8789 41.682L94.2519 42.694ZM98.0029 39.449C97.7719 39.79 97.2659 40.054 96.8039 40.054C96.0119 40.054 95.4619 39.504 95.4619 38.591C95.4619 37.678 96.0119 37.128 96.8039 37.128C97.2659 37.128 97.7719 37.381 98.0029 37.733V39.449ZM105.393 41.462C105.976 41.462 106.35 41.308 106.559 41.121L106.262 40.065C106.185 40.142 105.987 40.219 105.778 40.219C105.47 40.219 105.294 39.966 105.294 39.636V37.238H106.372V36.017H105.294V34.565H103.886V36.017H103.006V37.238H103.886V40.01C103.886 40.956 104.414 41.462 105.393 41.462ZM109.792 41.462C111.552 41.462 112.608 40.186 112.608 38.668C112.608 37.161 111.552 35.885 109.792 35.885C108.043 35.885 106.987 37.161 106.987 38.668C106.987 40.186 108.043 41.462 109.792 41.462ZM109.792 40.219C108.923 40.219 108.439 39.504 108.439 38.668C108.439 37.843 108.923 37.128 109.792 37.128C110.661 37.128 111.156 37.843 111.156 38.668C111.156 39.504 110.661 40.219 109.792 40.219ZM115.997 40.637C116.558 41.154 117.449 41.462 118.373 41.462C119.847 41.462 120.672 40.725 120.672 39.757C120.672 38.437 119.451 38.195 118.538 38.019C117.944 37.898 117.526 37.777 117.526 37.447C117.526 37.139 117.856 36.952 118.362 36.952C119.011 36.952 119.616 37.227 119.935 37.568L120.496 36.611C119.968 36.193 119.253 35.885 118.351 35.885C116.954 35.885 116.173 36.666 116.173 37.557C116.173 38.822 117.35 39.042 118.263 39.218C118.868 39.339 119.33 39.471 119.33 39.845C119.33 40.175 119.044 40.384 118.439 40.384C117.779 40.384 116.987 40.021 116.602 39.658L115.997 40.637ZM125.298 41.33H126.695V37.557C126.695 36.523 126.134 35.885 124.968 35.885C124.099 35.885 123.439 36.303 123.098 36.71V33.993H121.701V41.33H123.098V37.755C123.34 37.436 123.769 37.128 124.308 37.128C124.913 37.128 125.298 37.359 125.298 38.096V41.33ZM130.546 41.462C132.306 41.462 133.362 40.186 133.362 38.668C133.362 37.161 132.306 35.885 130.546 35.885C128.797 35.885 127.741 37.161 127.741 38.668C127.741 40.186 128.797 41.462 130.546 41.462ZM130.546 40.219C129.677 40.219 129.193 39.504 129.193 38.668C129.193 37.843 129.677 37.128 130.546 37.128C131.415 37.128 131.91 37.843 131.91 38.668C131.91 39.504 131.415 40.219 130.546 40.219ZM139.062 41.33H140.547L142.164 36.017H140.712L139.722 39.592L138.556 36.017H137.313L136.147 39.592L135.157 36.017H133.705L135.322 41.33H136.818L137.94 37.711L139.062 41.33ZM148.131 41.462C149.891 41.462 150.947 40.186 150.947 38.668C150.947 37.161 149.891 35.885 148.131 35.885C146.382 35.885 145.326 37.161 145.326 38.668C145.326 40.186 146.382 41.462 148.131 41.462ZM148.131 40.219C147.262 40.219 146.778 39.504 146.778 38.668C146.778 37.843 147.262 37.128 148.131 37.128C149 37.128 149.495 37.843 149.495 38.668C149.495 39.504 149 40.219 148.131 40.219ZM152.291 41.33H153.699V37.238H154.777V36.017H153.699V35.753C153.699 35.247 153.963 34.983 154.359 34.983C154.524 34.983 154.689 35.016 154.81 35.093L155.096 34.103C154.843 33.971 154.48 33.883 154.084 33.883C153.039 33.883 152.291 34.576 152.291 35.731V36.017H151.411V37.238H152.291V41.33ZM155.888 41.33H157.296V37.238H158.374V36.017H157.296V35.753C157.296 35.247 157.56 34.983 157.956 34.983C158.121 34.983 158.286 35.016 158.407 35.093L158.693 34.103C158.44 33.971 158.077 33.883 157.681 33.883C156.636 33.883 155.888 34.576 155.888 35.731V36.017H155.008V37.238H155.888V41.33ZM159.279 38.943H160.511L160.731 33.993H159.048L159.279 38.943ZM159.015 40.56C159.015 41.033 159.411 41.44 159.895 41.44C160.379 41.44 160.786 41.033 160.786 40.56C160.786 40.076 160.379 39.669 159.895 39.669C159.411 39.669 159.015 40.076 159.015 40.56Z" fill="white"/>
<path d="M126.659 30.354V27.703C127.099 28.231 127.638 28.462 128.232 28.462C129.563 28.462 130.564 27.472 130.564 25.668C130.564 23.875 129.563 22.885 128.232 22.885C127.627 22.885 127.077 23.127 126.659 23.633V23.017H124.965V30.354H126.659ZM128.837 25.668C128.837 26.471 128.331 26.966 127.671 26.966C127.308 26.966 126.868 26.757 126.659 26.482V24.865C126.868 24.579 127.308 24.381 127.671 24.381C128.331 24.381 128.837 24.876 128.837 25.668ZM135.061 28.33H136.755V24.546C136.755 23.567 136.205 22.885 134.995 22.885C134.104 22.885 133.477 23.292 133.158 23.666V20.993H131.464V28.33H133.158V24.898C133.356 24.656 133.686 24.381 134.181 24.381C134.72 24.381 135.061 24.59 135.061 25.239V28.33ZM138.116 28.891L137.874 30.398C138.05 30.453 138.446 30.486 138.6 30.486C139.612 30.464 140.415 30.211 140.844 29.089L143.242 23.017H141.449L140.239 26.383L139.04 23.017H137.258L139.37 28.407L139.249 28.693C139.161 28.913 138.919 28.99 138.534 28.99C138.402 28.99 138.237 28.957 138.116 28.891ZM143.302 27.648C143.863 28.143 144.842 28.462 145.788 28.462C147.317 28.462 148.208 27.714 148.208 26.702C148.208 25.294 146.866 25.074 145.964 24.92C145.403 24.821 145.117 24.733 145.117 24.491C145.117 24.26 145.392 24.128 145.788 24.128C146.426 24.128 147.031 24.403 147.35 24.711L147.999 23.589C147.427 23.171 146.668 22.885 145.777 22.885C144.303 22.885 143.5 23.699 143.5 24.634C143.5 25.987 144.776 26.174 145.678 26.328C146.228 26.416 146.591 26.515 146.591 26.79C146.591 27.021 146.382 27.186 145.876 27.186C145.249 27.186 144.402 26.834 144.006 26.482L143.302 27.648ZM149.928 22.346C150.467 22.346 150.896 21.917 150.896 21.378C150.896 20.839 150.467 20.41 149.928 20.41C149.389 20.41 148.96 20.839 148.96 21.378C148.96 21.917 149.389 22.346 149.928 22.346ZM149.081 28.33H150.775V23.017H149.081V28.33ZM151.651 25.668C151.651 27.34 152.894 28.462 154.555 28.462C155.699 28.462 156.414 27.945 156.733 27.483L155.633 26.449C155.424 26.746 155.083 26.966 154.632 26.966C153.928 26.966 153.389 26.471 153.389 25.668C153.389 24.865 153.928 24.381 154.632 24.381C155.083 24.381 155.424 24.579 155.633 24.887L156.733 23.864C156.414 23.391 155.699 22.885 154.555 22.885C152.894 22.885 151.651 24.007 151.651 25.668ZM160.638 28.33H162.332V25.008C162.332 23.358 161.133 22.885 159.857 22.885C159.043 22.885 158.13 23.127 157.448 23.71L158.053 24.777C158.482 24.414 159.032 24.216 159.56 24.216C160.242 24.216 160.638 24.524 160.638 24.986V25.657C160.319 25.261 159.692 25.041 158.988 25.041C158.174 25.041 157.162 25.426 157.162 26.713C157.162 27.912 158.174 28.462 158.988 28.462C159.67 28.462 160.308 28.198 160.638 27.802V28.33ZM160.638 26.966C160.462 27.219 160.066 27.351 159.692 27.351C159.241 27.351 158.845 27.153 158.845 26.735C158.845 26.317 159.241 26.119 159.692 26.119C160.066 26.119 160.462 26.251 160.638 26.493V26.966ZM163.561 28.33H165.255V20.993H163.561V28.33Z" fill="#FB923C"/>
<path d="M43.9845 25.2132C44.029 25.3753 43.9728 25.5541 43.8786 25.6938L40.8765 30.1756C40.7651 30.3488 40.5312 30.4438 40.3357 30.4438C40.28 30.4438 40.1241 30.4326 40.0633 30.4159L37.6572 29.8235V40.4412C37.6572 40.7653 37.4288 41 37.1002 41H25.4037C25.0751 41 24.8467 40.7653 24.8467 40.4412V29.8235L22.6856 30.4215C22.435 30.4997 22.2178 30.3991 22.0785 30.1812L19.0987 25.7106C19.004 25.5653 18.9762 25.4032 19.0207 25.2412C19.0597 25.0735 19.1767 24.9618 19.3271 24.8835L25.4037 22H28.1886C28.5172 22 28.7456 22.2291 28.7456 22.5588C28.7456 23.71 30.3552 24.5259 31.5026 24.5259C32.65 24.5259 34.3153 23.7156 34.3153 22.5588C34.3153 22.2347 34.5437 22 34.8723 22H37.6572L43.6726 24.8276C43.8285 24.9059 43.9399 25.0456 43.9845 25.2132V25.2132Z" fill="#FB923C"/>
<circle cx="63" cy="32" r="3" fill="#222226"/>
<defs>
<filter id="filter0_b_460_44" x="-1" y="-0.669983" width="65" height="65" filterUnits="userSpaceOnUse" color-interpolation-filters="sRGB">
<feFlood flood-opacity="0" result="BackgroundImageFix"/>
<feGaussianBlur in="BackgroundImage" stdDeviation="6"/>
<feComposite in2="SourceAlpha" operator="in" result="effect1_backgroundBlur_460_44"/>
<feBlend mode="normal" in="SourceGraphic" in2="effect1_backgroundBlur_460_44" result="shape"/>
</filter>
</defs>
</svg>
