<svg width="254" height="64" viewBox="0 0 254 64" fill="none" xmlns="http://www.w3.org/2000/svg">
<rect width="254" height="63.5" rx="12" fill="#27272A"/>
<path d="M74.726 28.33H78.708C80.105 28.33 80.842 27.45 80.842 26.35C80.842 25.426 80.215 24.667 79.434 24.546C80.127 24.403 80.699 23.787 80.699 22.863C80.699 21.884 79.984 20.993 78.587 20.993H74.726V28.33ZM76.288 23.941V22.324H78.246C78.774 22.324 79.104 22.676 79.104 23.127C79.104 23.6 78.774 23.941 78.246 23.941H76.288ZM76.288 26.999V25.272H78.301C78.917 25.272 79.247 25.668 79.247 26.13C79.247 26.658 78.895 26.999 78.301 26.999H76.288ZM81.6459 25.668C81.6459 27.373 82.8669 28.462 84.4839 28.462C85.3089 28.462 86.1449 28.209 86.6729 27.725L86.0569 26.823C85.7159 27.153 85.1329 27.351 84.6379 27.351C83.7359 27.351 83.1969 26.79 83.1089 26.119H87.0579V25.811C87.0579 24.073 85.9799 22.885 84.3959 22.885C82.7789 22.885 81.6459 24.128 81.6459 25.668ZM84.3959 23.996C85.3199 23.996 85.6719 24.667 85.7049 25.173H83.0869C83.1529 24.645 83.5269 23.996 84.3959 23.996ZM87.726 25.668C87.726 27.307 88.903 28.462 90.542 28.462C91.631 28.462 92.291 27.989 92.643 27.494L91.73 26.647C91.477 26.999 91.092 27.219 90.608 27.219C89.761 27.219 89.167 26.592 89.167 25.668C89.167 24.744 89.761 24.128 90.608 24.128C91.092 24.128 91.477 24.326 91.73 24.7L92.643 23.842C92.291 23.358 91.631 22.885 90.542 22.885C88.903 22.885 87.726 24.04 87.726 25.668ZM96.0203 28.462C97.7803 28.462 98.8363 27.186 98.8363 25.668C98.8363 24.161 97.7803 22.885 96.0203 22.885C94.2713 22.885 93.2153 24.161 93.2153 25.668C93.2153 27.186 94.2713 28.462 96.0203 28.462ZM96.0203 27.219C95.1513 27.219 94.6673 26.504 94.6673 25.668C94.6673 24.843 95.1513 24.128 96.0203 24.128C96.8893 24.128 97.3843 24.843 97.3843 25.668C97.3843 26.504 96.8893 27.219 96.0203 27.219ZM106.462 28.33H107.87V24.491C107.87 23.402 107.287 22.885 106.308 22.885C105.494 22.885 104.79 23.369 104.482 23.853C104.284 23.248 103.789 22.885 103.008 22.885C102.194 22.885 101.49 23.391 101.27 23.71V23.017H99.8727V28.33H101.27V24.755C101.479 24.458 101.886 24.128 102.37 24.128C102.942 24.128 103.162 24.48 103.162 24.975V28.33H104.57V24.744C104.768 24.458 105.175 24.128 105.67 24.128C106.242 24.128 106.462 24.48 106.462 24.975V28.33ZM108.899 25.668C108.899 27.373 110.12 28.462 111.737 28.462C112.562 28.462 113.398 28.209 113.926 27.725L113.31 26.823C112.969 27.153 112.386 27.351 111.891 27.351C110.989 27.351 110.45 26.79 110.362 26.119H114.311V25.811C114.311 24.073 113.233 22.885 111.649 22.885C110.032 22.885 108.899 24.128 108.899 25.668ZM111.649 23.996C112.573 23.996 112.925 24.667 112.958 25.173H110.34C110.406 24.645 110.78 23.996 111.649 23.996ZM121.324 28.33H122.721V24.898C122.721 23.369 121.61 22.885 120.4 22.885C119.564 22.885 118.728 23.149 118.079 23.721L118.607 24.656C119.058 24.238 119.586 24.029 120.158 24.029C120.862 24.029 121.324 24.381 121.324 24.92V25.657C120.972 25.228 120.345 25.008 119.641 25.008C118.794 25.008 117.793 25.459 117.793 26.702C117.793 27.89 118.794 28.462 119.641 28.462C120.334 28.462 120.961 28.209 121.324 27.78V28.33ZM121.324 27.054C121.093 27.362 120.653 27.516 120.202 27.516C119.652 27.516 119.201 27.23 119.201 26.735C119.201 26.218 119.652 25.932 120.202 25.932C120.653 25.932 121.093 26.086 121.324 26.394V27.054ZM165.012 28.462C165.595 28.462 165.969 28.308 166.178 28.121L165.881 27.065C165.804 27.142 165.606 27.219 165.397 27.219C165.089 27.219 164.913 26.966 164.913 26.636V24.238H165.991V23.017H164.913V21.565H163.505V23.017H162.625V24.238H163.505V27.01C163.505 27.956 164.033 28.462 165.012 28.462ZM169.411 28.462C171.171 28.462 172.227 27.186 172.227 25.668C172.227 24.161 171.171 22.885 169.411 22.885C167.662 22.885 166.606 24.161 166.606 25.668C166.606 27.186 167.662 28.462 169.411 28.462ZM169.411 27.219C168.542 27.219 168.058 26.504 168.058 25.668C168.058 24.843 168.542 24.128 169.411 24.128C170.28 24.128 170.775 24.843 170.775 25.668C170.775 26.504 170.28 27.219 169.411 27.219ZM175.968 29.694C176.639 30.277 177.343 30.486 178.256 30.486C179.565 30.486 181.127 29.991 181.127 27.967V23.017H179.719V23.699C179.29 23.16 178.718 22.885 178.08 22.885C176.738 22.885 175.737 23.853 175.737 25.591C175.737 27.362 176.749 28.297 178.08 28.297C178.729 28.297 179.301 27.989 179.719 27.461V28C179.719 29.045 178.927 29.342 178.256 29.342C177.585 29.342 177.024 29.155 176.595 28.682L175.968 29.694ZM179.719 26.449C179.488 26.79 178.982 27.054 178.52 27.054C177.728 27.054 177.178 26.504 177.178 25.591C177.178 24.678 177.728 24.128 178.52 24.128C178.982 24.128 179.488 24.381 179.719 24.733V26.449ZM182.171 25.668C182.171 27.373 183.392 28.462 185.009 28.462C185.834 28.462 186.67 28.209 187.198 27.725L186.582 26.823C186.241 27.153 185.658 27.351 185.163 27.351C184.261 27.351 183.722 26.79 183.634 26.119H187.583V25.811C187.583 24.073 186.505 22.885 184.921 22.885C183.304 22.885 182.171 24.128 182.171 25.668ZM184.921 23.996C185.845 23.996 186.197 24.667 186.23 25.173H183.612C183.678 24.645 184.052 23.996 184.921 23.996ZM190.374 28.462C190.957 28.462 191.331 28.308 191.54 28.121L191.243 27.065C191.166 27.142 190.968 27.219 190.759 27.219C190.451 27.219 190.275 26.966 190.275 26.636V24.238H191.353V23.017H190.275V21.565H188.867V23.017H187.987V24.238H188.867V27.01C188.867 27.956 189.395 28.462 190.374 28.462ZM194.662 27.637C195.223 28.154 196.114 28.462 197.038 28.462C198.512 28.462 199.337 27.725 199.337 26.757C199.337 25.437 198.116 25.195 197.203 25.019C196.609 24.898 196.191 24.777 196.191 24.447C196.191 24.139 196.521 23.952 197.027 23.952C197.676 23.952 198.281 24.227 198.6 24.568L199.161 23.611C198.633 23.193 197.918 22.885 197.016 22.885C195.619 22.885 194.838 23.666 194.838 24.557C194.838 25.822 196.015 26.042 196.928 26.218C197.533 26.339 197.995 26.471 197.995 26.845C197.995 27.175 197.709 27.384 197.104 27.384C196.444 27.384 195.652 27.021 195.267 26.658L194.662 27.637ZM202.83 28.462C204.59 28.462 205.646 27.186 205.646 25.668C205.646 24.161 204.59 22.885 202.83 22.885C201.081 22.885 200.025 24.161 200.025 25.668C200.025 27.186 201.081 28.462 202.83 28.462ZM202.83 27.219C201.961 27.219 201.477 26.504 201.477 25.668C201.477 24.843 201.961 24.128 202.83 24.128C203.699 24.128 204.194 24.843 204.194 25.668C204.194 26.504 203.699 27.219 202.83 27.219ZM213.271 28.33H214.679V24.491C214.679 23.402 214.096 22.885 213.117 22.885C212.303 22.885 211.599 23.369 211.291 23.853C211.093 23.248 210.598 22.885 209.817 22.885C209.003 22.885 208.299 23.391 208.079 23.71V23.017H206.682V28.33H208.079V24.755C208.288 24.458 208.695 24.128 209.179 24.128C209.751 24.128 209.971 24.48 209.971 24.975V28.33H211.379V24.744C211.577 24.458 211.984 24.128 212.479 24.128C213.051 24.128 213.271 24.48 213.271 24.975V28.33ZM215.708 25.668C215.708 27.373 216.929 28.462 218.546 28.462C219.371 28.462 220.207 28.209 220.735 27.725L220.119 26.823C219.778 27.153 219.195 27.351 218.7 27.351C217.798 27.351 217.259 26.79 217.171 26.119H221.12V25.811C221.12 24.073 220.042 22.885 218.458 22.885C216.841 22.885 215.708 24.128 215.708 25.668ZM218.458 23.996C219.382 23.996 219.734 24.667 219.767 25.173H217.149C217.215 24.645 217.589 23.996 218.458 23.996ZM74.231 40.637C74.792 41.154 75.683 41.462 76.607 41.462C78.081 41.462 78.906 40.725 78.906 39.757C78.906 38.437 77.685 38.195 76.772 38.019C76.178 37.898 75.76 37.777 75.76 37.447C75.76 37.139 76.09 36.952 76.596 36.952C77.245 36.952 77.85 37.227 78.169 37.568L78.73 36.611C78.202 36.193 77.487 35.885 76.585 35.885C75.188 35.885 74.407 36.666 74.407 37.557C74.407 38.822 75.584 39.042 76.497 39.218C77.102 39.339 77.564 39.471 77.564 39.845C77.564 40.175 77.278 40.384 76.673 40.384C76.013 40.384 75.221 40.021 74.836 39.658L74.231 40.637ZM84.5992 41.33H86.0842L87.7012 36.017H86.2492L85.2592 39.592L84.0932 36.017H82.8502L81.6842 39.592L80.6942 36.017H79.2422L80.8592 41.33H82.3552L83.4772 37.711L84.5992 41.33ZM88.0483 38.668C88.0483 40.373 89.2693 41.462 90.8863 41.462C91.7113 41.462 92.5473 41.209 93.0753 40.725L92.4593 39.823C92.1183 40.153 91.5353 40.351 91.0403 40.351C90.1383 40.351 89.5993 39.79 89.5113 39.119H93.4603V38.811C93.4603 37.073 92.3823 35.885 90.7983 35.885C89.1813 35.885 88.0483 37.128 88.0483 38.668ZM90.7983 36.996C91.7223 36.996 92.0743 37.667 92.1073 38.173H89.4893C89.5553 37.645 89.9293 36.996 90.7983 36.996ZM94.1284 38.668C94.1284 40.373 95.3494 41.462 96.9664 41.462C97.7914 41.462 98.6274 41.209 99.1554 40.725L98.5394 39.823C98.1984 40.153 97.6154 40.351 97.1204 40.351C96.2184 40.351 95.6794 39.79 95.5914 39.119H99.5404V38.811C99.5404 37.073 98.4624 35.885 96.8784 35.885C95.2614 35.885 94.1284 37.128 94.1284 38.668ZM96.8784 36.996C97.8024 36.996 98.1544 37.667 98.1874 38.173H95.5694C95.6354 37.645 96.0094 36.996 96.8784 36.996ZM102.331 41.462C102.914 41.462 103.288 41.308 103.497 41.121L103.2 40.065C103.123 40.142 102.925 40.219 102.716 40.219C102.408 40.219 102.232 39.966 102.232 39.636V37.238H103.31V36.017H102.232V34.565H100.824V36.017H99.9444V37.238H100.824V40.01C100.824 40.956 101.352 41.462 102.331 41.462ZM109.545 41.462C111.305 41.462 112.361 40.186 112.361 38.668C112.361 37.161 111.305 35.885 109.545 35.885C107.796 35.885 106.74 37.161 106.74 38.668C106.74 40.186 107.796 41.462 109.545 41.462ZM109.545 40.219C108.676 40.219 108.192 39.504 108.192 38.668C108.192 37.843 108.676 37.128 109.545 37.128C110.414 37.128 110.909 37.843 110.909 38.668C110.909 39.504 110.414 40.219 109.545 40.219ZM116.983 41.33H118.38V37.579C118.38 36.545 117.819 35.885 116.653 35.885C115.784 35.885 115.135 36.303 114.794 36.71V36.017H113.397V41.33H114.794V37.755C115.025 37.436 115.454 37.128 116.004 37.128C116.598 37.128 116.983 37.381 116.983 38.118V41.33ZM119.404 39.262H122.044V38.074H119.404V39.262ZM122.603 40.637C123.164 41.154 124.055 41.462 124.979 41.462C126.453 41.462 127.278 40.725 127.278 39.757C127.278 38.437 126.057 38.195 125.144 38.019C124.55 37.898 124.132 37.777 124.132 37.447C124.132 37.139 124.462 36.952 124.968 36.952C125.617 36.952 126.222 37.227 126.541 37.568L127.102 36.611C126.574 36.193 125.859 35.885 124.957 35.885C123.56 35.885 122.779 36.666 122.779 37.557C122.779 38.822 123.956 39.042 124.869 39.218C125.474 39.339 125.936 39.471 125.936 39.845C125.936 40.175 125.65 40.384 125.045 40.384C124.385 40.384 123.593 40.021 123.208 39.658L122.603 40.637ZM129 35.236C129.462 35.236 129.836 34.862 129.836 34.4C129.836 33.938 129.462 33.564 129 33.564C128.549 33.564 128.164 33.938 128.164 34.4C128.164 34.862 128.549 35.236 129 35.236ZM128.307 41.33H129.704V36.017H128.307V41.33ZM132.871 41.462C133.454 41.462 133.828 41.308 134.037 41.121L133.74 40.065C133.663 40.142 133.465 40.219 133.256 40.219C132.948 40.219 132.772 39.966 132.772 39.636V37.238H133.85V36.017H132.772V34.565H131.364V36.017H130.484V37.238H131.364V40.01C131.364 40.956 131.892 41.462 132.871 41.462ZM134.465 38.668C134.465 40.373 135.686 41.462 137.303 41.462C138.128 41.462 138.964 41.209 139.492 40.725L138.876 39.823C138.535 40.153 137.952 40.351 137.457 40.351C136.555 40.351 136.016 39.79 135.928 39.119H139.877V38.811C139.877 37.073 138.799 35.885 137.215 35.885C135.598 35.885 134.465 37.128 134.465 38.668ZM137.215 36.996C138.139 36.996 138.491 37.667 138.524 38.173H135.906C135.972 37.645 136.346 36.996 137.215 36.996ZM146.891 41.33H148.288V37.898C148.288 36.369 147.177 35.885 145.967 35.885C145.131 35.885 144.295 36.149 143.646 36.721L144.174 37.656C144.625 37.238 145.153 37.029 145.725 37.029C146.429 37.029 146.891 37.381 146.891 37.92V38.657C146.539 38.228 145.912 38.008 145.208 38.008C144.361 38.008 143.36 38.459 143.36 39.702C143.36 40.89 144.361 41.462 145.208 41.462C145.901 41.462 146.528 41.209 146.891 40.78V41.33ZM146.891 40.054C146.66 40.362 146.22 40.516 145.769 40.516C145.219 40.516 144.768 40.23 144.768 39.735C144.768 39.218 145.219 38.932 145.769 38.932C146.22 38.932 146.66 39.086 146.891 39.394V40.054ZM153.259 41.33H154.656V37.579C154.656 36.545 154.095 35.885 152.929 35.885C152.06 35.885 151.411 36.303 151.07 36.71V36.017H149.673V41.33H151.07V37.755C151.301 37.436 151.73 37.128 152.28 37.128C152.874 37.128 153.259 37.381 153.259 38.118V41.33ZM159.696 41.33H161.104V33.993H159.696V36.699C159.278 36.16 158.684 35.885 158.057 35.885C156.704 35.885 155.703 36.941 155.703 38.679C155.703 40.45 156.715 41.462 158.057 41.462C158.695 41.462 159.278 41.176 159.696 40.648V41.33ZM159.696 39.614C159.465 39.966 158.959 40.219 158.486 40.219C157.694 40.219 157.144 39.592 157.144 38.679C157.144 37.755 157.694 37.128 158.486 37.128C158.959 37.128 159.465 37.381 159.696 37.733V39.614ZM165.336 41.33H168.229C170.528 41.33 172.123 39.878 172.123 37.667C172.123 35.456 170.528 33.993 168.229 33.993H165.336V41.33ZM166.898 39.955V35.368H168.229C169.736 35.368 170.528 36.369 170.528 37.667C170.528 38.91 169.681 39.955 168.229 39.955H166.898ZM173.892 35.236C174.354 35.236 174.728 34.862 174.728 34.4C174.728 33.938 174.354 33.564 173.892 33.564C173.441 33.564 173.056 33.938 173.056 34.4C173.056 34.862 173.441 35.236 173.892 35.236ZM173.199 41.33H174.596V36.017H173.199V41.33ZM175.519 40.637C176.08 41.154 176.971 41.462 177.895 41.462C179.369 41.462 180.194 40.725 180.194 39.757C180.194 38.437 178.973 38.195 178.06 38.019C177.466 37.898 177.048 37.777 177.048 37.447C177.048 37.139 177.378 36.952 177.884 36.952C178.533 36.952 179.138 37.227 179.457 37.568L180.018 36.611C179.49 36.193 178.775 35.885 177.873 35.885C176.476 35.885 175.695 36.666 175.695 37.557C175.695 38.822 176.872 39.042 177.785 39.218C178.39 39.339 178.852 39.471 178.852 39.845C178.852 40.175 178.566 40.384 177.961 40.384C177.301 40.384 176.509 40.021 176.124 39.658L175.519 40.637ZM180.882 38.668C180.882 40.307 182.059 41.462 183.698 41.462C184.787 41.462 185.447 40.989 185.799 40.494L184.886 39.647C184.633 39.999 184.248 40.219 183.764 40.219C182.917 40.219 182.323 39.592 182.323 38.668C182.323 37.744 182.917 37.128 183.764 37.128C184.248 37.128 184.633 37.326 184.886 37.7L185.799 36.842C185.447 36.358 184.787 35.885 183.698 35.885C182.059 35.885 180.882 37.04 180.882 38.668ZM189.177 41.462C190.937 41.462 191.993 40.186 191.993 38.668C191.993 37.161 190.937 35.885 189.177 35.885C187.428 35.885 186.372 37.161 186.372 38.668C186.372 40.186 187.428 41.462 189.177 41.462ZM189.177 40.219C188.308 40.219 187.824 39.504 187.824 38.668C187.824 37.843 188.308 37.128 189.177 37.128C190.046 37.128 190.541 37.843 190.541 38.668C190.541 39.504 190.046 40.219 189.177 40.219ZM193.029 41.33H194.426V37.821C194.657 37.48 195.273 37.216 195.735 37.216C195.889 37.216 196.021 37.238 196.12 37.26V35.896C195.46 35.896 194.8 36.27 194.426 36.743V36.017H193.029V41.33ZM200.645 41.33H202.053V33.993H200.645V36.699C200.227 36.16 199.633 35.885 199.006 35.885C197.653 35.885 196.652 36.941 196.652 38.679C196.652 40.45 197.664 41.462 199.006 41.462C199.644 41.462 200.227 41.176 200.645 40.648V41.33ZM200.645 39.614C200.414 39.966 199.908 40.219 199.435 40.219C198.643 40.219 198.093 39.592 198.093 38.679C198.093 37.755 198.643 37.128 199.435 37.128C199.908 37.128 200.414 37.381 200.645 37.733V39.614ZM207.65 43.354V40.648C208.079 41.198 208.662 41.462 209.289 41.462C210.653 41.462 211.643 40.439 211.643 38.668C211.643 36.897 210.653 35.885 209.289 35.885C208.64 35.885 208.057 36.171 207.65 36.688V36.017H206.253V43.354H207.65ZM210.191 38.668C210.191 39.592 209.652 40.219 208.849 40.219C208.398 40.219 207.881 39.944 207.65 39.614V37.733C207.881 37.392 208.398 37.128 208.849 37.128C209.652 37.128 210.191 37.755 210.191 38.668ZM212.346 38.668C212.346 40.373 213.567 41.462 215.184 41.462C216.009 41.462 216.845 41.209 217.373 40.725L216.757 39.823C216.416 40.153 215.833 40.351 215.338 40.351C214.436 40.351 213.897 39.79 213.809 39.119H217.758V38.811C217.758 37.073 216.68 35.885 215.096 35.885C213.479 35.885 212.346 37.128 212.346 38.668ZM215.096 36.996C216.02 36.996 216.372 37.667 216.405 38.173H213.787C213.853 37.645 214.227 36.996 215.096 36.996ZM218.767 41.33H220.164V37.821C220.395 37.48 221.011 37.216 221.473 37.216C221.627 37.216 221.759 37.238 221.858 37.26V35.896C221.198 35.896 220.538 36.27 220.164 36.743V36.017H218.767V41.33ZM226.174 41.33H227.923L225.756 38.426L227.857 36.017H226.141L224.128 38.382V33.993H222.731V41.33H224.128V39.966L224.766 39.284L226.174 41.33ZM228.081 40.637C228.642 41.154 229.533 41.462 230.457 41.462C231.931 41.462 232.756 40.725 232.756 39.757C232.756 38.437 231.535 38.195 230.622 38.019C230.028 37.898 229.61 37.777 229.61 37.447C229.61 37.139 229.94 36.952 230.446 36.952C231.095 36.952 231.7 37.227 232.019 37.568L232.58 36.611C232.052 36.193 231.337 35.885 230.435 35.885C229.038 35.885 228.257 36.666 228.257 37.557C228.257 38.822 229.434 39.042 230.347 39.218C230.952 39.339 231.414 39.471 231.414 39.845C231.414 40.175 231.128 40.384 230.523 40.384C229.863 40.384 229.071 40.021 228.686 39.658L228.081 40.637ZM233.884 38.943H235.116L235.336 33.993H233.653L233.884 38.943ZM233.62 40.56C233.62 41.033 234.016 41.44 234.5 41.44C234.984 41.44 235.391 41.033 235.391 40.56C235.391 40.076 234.984 39.669 234.5 39.669C234.016 39.669 233.62 40.076 233.62 40.56Z" fill="white"/>
<path d="M128.539 30.354V27.703C128.979 28.231 129.518 28.462 130.112 28.462C131.443 28.462 132.444 27.472 132.444 25.668C132.444 23.875 131.443 22.885 130.112 22.885C129.507 22.885 128.957 23.127 128.539 23.633V23.017H126.845V30.354H128.539ZM130.717 25.668C130.717 26.471 130.211 26.966 129.551 26.966C129.188 26.966 128.748 26.757 128.539 26.482V24.865C128.748 24.579 129.188 24.381 129.551 24.381C130.211 24.381 130.717 24.876 130.717 25.668ZM136.468 28.33H138.162V25.008C138.162 23.358 136.963 22.885 135.687 22.885C134.873 22.885 133.96 23.127 133.278 23.71L133.883 24.777C134.312 24.414 134.862 24.216 135.39 24.216C136.072 24.216 136.468 24.524 136.468 24.986V25.657C136.149 25.261 135.522 25.041 134.818 25.041C134.004 25.041 132.992 25.426 132.992 26.713C132.992 27.912 134.004 28.462 134.818 28.462C135.5 28.462 136.138 28.198 136.468 27.802V28.33ZM136.468 26.966C136.292 27.219 135.896 27.351 135.522 27.351C135.071 27.351 134.675 27.153 134.675 26.735C134.675 26.317 135.071 26.119 135.522 26.119C135.896 26.119 136.292 26.251 136.468 26.493V26.966ZM141.404 28.462C142.031 28.462 142.449 28.308 142.658 28.11L142.328 26.834C142.273 26.9 142.086 26.966 141.899 26.966C141.602 26.966 141.426 26.735 141.426 26.427V24.491H142.504V23.017H141.426V21.565H139.743V23.017H138.863V24.491H139.743V26.9C139.743 27.923 140.326 28.462 141.404 28.462ZM143.355 28.33H145.049V24.964C145.269 24.656 145.852 24.469 146.292 24.469C146.468 24.469 146.611 24.491 146.71 24.524V22.885C146.072 22.885 145.401 23.259 145.049 23.688V23.017H143.355V28.33ZM150.021 28.462C151.847 28.462 152.925 27.164 152.925 25.668C152.925 24.172 151.847 22.885 150.021 22.885C148.217 22.885 147.128 24.172 147.128 25.668C147.128 27.164 148.217 28.462 150.021 28.462ZM150.021 26.966C149.284 26.966 148.877 26.383 148.877 25.668C148.877 24.964 149.284 24.381 150.021 24.381C150.769 24.381 151.187 24.964 151.187 25.668C151.187 26.383 150.769 26.966 150.021 26.966ZM157.415 28.33H159.109V24.568C159.109 23.589 158.559 22.885 157.349 22.885C156.458 22.885 155.831 23.292 155.512 23.666V23.017H153.818V28.33H155.512V24.898C155.71 24.656 156.04 24.381 156.546 24.381C157.074 24.381 157.415 24.612 157.415 25.261V28.33Z" fill="#FF424D"/>
<g filter="url(#filter0_b_460_29)">
<rect x="11" y="11.33" width="41" height="41" rx="8" fill="#222226"/>
</g>
<circle cx="63" cy="32" r="3" fill="#222226"/>
<path d="M24.8578 21.0008H21V41.9999H24.8578V21.0008Z" fill="#FF424D"/>
<path d="M35.0853 36.7287C39.4565 36.7287 43 33.2077 43 28.8644C43 24.521 39.4565 21 35.0853 21C30.7142 21 27.1707 24.521 27.1707 28.8644C27.1707 33.2077 30.7142 36.7287 35.0853 36.7287Z" fill="#FF424D"/>
<defs>
<filter id="filter0_b_460_29" x="-1" y="-0.669983" width="65" height="65" filterUnits="userSpaceOnUse" color-interpolation-filters="sRGB">
<feFlood flood-opacity="0" result="BackgroundImageFix"/>
<feGaussianBlur in="BackgroundImage" stdDeviation="6"/>
<feComposite in2="SourceAlpha" operator="in" result="effect1_backgroundBlur_460_29"/>
<feBlend mode="normal" in="SourceGraphic" in2="effect1_backgroundBlur_460_29" result="shape"/>
</filter>
</defs>
</svg>
