<svg width="254" height="65" viewBox="0 0 254 65" fill="none" xmlns="http://www.w3.org/2000/svg">
<g filter="url(#filter0_b_179_713)">
<rect y="0.829987" width="254" height="63.5" rx="20" fill="#252525"/>
</g>
<path d="M77.0684 39H79.6424V26.994H76.0424L73.1264 34.482L70.2104 26.994H66.6284V39H69.1844V30.36L72.5684 39H73.6844L77.0684 30.36V39ZM82.0269 39H90.5229V36.786H84.5829V33.996H90.3969V31.8H84.5829V29.19H90.5229V26.994H82.0269V39ZM99.307 39H102.241L99.541 34.428C100.837 34.122 102.169 32.988 102.169 30.864C102.169 28.632 100.639 26.994 98.137 26.994H92.521V39H95.077V34.698H96.949L99.307 39ZM99.559 30.846C99.559 31.854 98.785 32.502 97.759 32.502H95.077V29.19H97.759C98.785 29.19 99.559 29.838 99.559 30.846ZM109.811 39.216C112.547 39.216 114.059 37.758 114.923 36.264L112.727 35.202C112.223 36.192 111.143 36.948 109.811 36.948C107.723 36.948 106.139 35.274 106.139 33.006C106.139 30.738 107.723 29.064 109.811 29.064C111.143 29.064 112.223 29.838 112.727 30.81L114.923 29.73C114.077 28.236 112.547 26.796 109.811 26.796C106.301 26.796 103.511 29.316 103.511 33.006C103.511 36.696 106.301 39.216 109.811 39.216ZM124.671 39H127.245V26.994H124.671V31.71H119.001V26.994H116.445V39H119.001V33.96H124.671V39ZM133.388 37.308C134.522 38.442 136.178 39.216 138.482 39.216C141.722 39.216 143.288 37.56 143.288 35.364C143.288 32.7 140.768 32.106 138.788 31.656C137.402 31.332 136.394 31.08 136.394 30.27C136.394 29.55 137.006 29.046 138.158 29.046C139.328 29.046 140.624 29.46 141.596 30.36L143.018 28.488C141.83 27.39 140.246 26.814 138.338 26.814C135.512 26.814 133.784 28.434 133.784 30.432C133.784 33.114 136.304 33.654 138.266 34.104C139.652 34.428 140.696 34.734 140.696 35.634C140.696 36.318 140.012 36.984 138.608 36.984C136.952 36.984 135.638 36.246 134.792 35.364L133.388 37.308ZM147.658 39H150.232V29.244H153.724V26.994H144.148V29.244H147.658V39ZM154.347 33.006C154.347 36.624 156.993 39.216 160.611 39.216C164.247 39.216 166.893 36.624 166.893 33.006C166.893 29.388 164.247 26.796 160.611 26.796C156.993 26.796 154.347 29.388 154.347 33.006ZM164.265 33.006C164.265 35.238 162.825 36.948 160.611 36.948C158.397 36.948 156.975 35.238 156.975 33.006C156.975 30.756 158.397 29.064 160.611 29.064C162.825 29.064 164.265 30.756 164.265 33.006ZM175.473 39H178.407L175.707 34.428C177.003 34.122 178.335 32.988 178.335 30.864C178.335 28.632 176.805 26.994 174.303 26.994H168.687V39H171.243V34.698H173.115L175.473 39ZM175.725 30.846C175.725 31.854 174.951 32.502 173.925 32.502H171.243V29.19H173.925C174.951 29.19 175.725 29.838 175.725 30.846ZM180.253 39H188.749V36.786H182.809V33.996H188.623V31.8H182.809V29.19H188.749V26.994H180.253V39Z" fill="#FB932C"/>
<defs>
<filter id="filter0_b_179_713" x="-12" y="-11.17" width="278" height="87.5" filterUnits="userSpaceOnUse" color-interpolation-filters="sRGB">
<feFlood flood-opacity="0" result="BackgroundImageFix"/>
<feGaussianBlur in="BackgroundImage" stdDeviation="6"/>
<feComposite in2="SourceAlpha" operator="in" result="effect1_backgroundBlur_179_713"/>
<feBlend mode="normal" in="SourceGraphic" in2="effect1_backgroundBlur_179_713" result="shape"/>
</filter>
</defs>
</svg>
