<?xml version="1.0" encoding="UTF-8"?><svg xmlns="http://www.w3.org/2000/svg" viewBox="0 0 220.29 195.89"><defs><style>.d{fill:none;stroke:#f7923f;stroke-miterlimit:10;stroke-width:8px;}.e{fill:#f7923f;}</style></defs><g id="a"/><g id="b"><g id="c"><path class="e" d="M197.36,83.88c3.49-3.3,5.67-7.99,5.67-13.17v-31.79c0-10-8.1-18.14-18.06-18.14-1.91,0-3.8,.31-5.63,.91-11.66,3.85-24.48,12.27-38.11,25.03-3.15,2.95-5.09,6.86-5.6,11h-50.99c-.51-4.14-2.45-8.05-5.6-11-13.63-12.76-26.44-21.18-38.1-25.03-1.83-.61-3.73-.91-5.63-.91-9.96,0-18.06,8.14-18.06,18.14v31.79c0,5.18,2.18,9.87,5.67,13.17C9.35,98.08,0,116.12,0,132.87c0,30.5,21.95,51.12,50.55,59.97,6.71,2.08,13.72,3.04,20.74,3.04h79.38c6.4,0,12.77-.81,18.94-2.52,12.4-3.45,23.52-9.48,32.16-17.67,11.42-10.82,18.52-25.42,18.52-42.82s-9.35-34.79-22.93-48.99Zm-156.99-8.96c-4.73,2.07-10.02-1.43-10.02-6.59v-27.02c0-4.86,4.74-8.37,9.35-6.85,10.68,3.53,21.48,12.1,29.35,19.48,4.14,3.87,2.41,10.79-3.08,12.2-9.03,2.32-17.6,5.27-25.6,8.78Zm53.55,56.91l-5.55,1.49c-1.03,.28-2.1-.34-2.38-1.37-1.68-6.27-8-10.26-14.39-9.09-.33,.06-.66,.14-.98,.22-6.68,1.79-10.62,8.83-8.78,15.7,.23,.84-.28,1.72-1.12,1.94l-6.35,1.7c-.78,.21-1.58-.26-1.79-1.04-3.16-11.79,3.6-24.12,15.06-27.47,.16-.05,.33-.09,.49-.14,11.81-3.16,23.99,3.87,27.15,15.68,.28,1.03-.34,2.09-1.37,2.37Zm73.65,9.11c-.28,1.03-1.34,1.64-2.37,1.37l-5.55-1.49c-1.03-.28-1.65-1.34-1.38-2.38,1.68-6.27-1.8-12.89-7.92-15.06-.32-.11-.64-.21-.96-.3-6.68-1.79-13.61,2.34-15.45,9.2-.23,.84-1.1,1.35-1.94,1.12l-6.35-1.7c-.78-.21-1.24-1.01-1.04-1.79,3.16-11.79,15.17-19.09,26.78-16.25,.16,.04,.33,.08,.49,.13,11.81,3.16,18.84,15.34,15.68,27.15Zm22-72.62c0,5.16-5.29,8.66-10.02,6.59-8-3.51-16.58-6.46-25.6-8.78-5.49-1.41-7.22-8.33-3.08-12.2,7.88-7.38,18.68-15.95,29.35-19.48,4.61-1.52,9.35,1.99,9.35,6.85v27.02Z"/><rect class="e" x="104.38" y="33.07" width="11.53" height="35.79"/><circle class="d" cx="110.14" cy="19.65" r="15.65"/></g></g></svg>