<svg width="512" height="512" viewBox="0 0 512 512" fill="none" xmlns="http://www.w3.org/2000/svg">
<g clip-path="url(#clip0_444_3)">
<rect width="512" height="512" rx="65" fill="white"/>
<rect x="-22" y="-18" width="562" height="562" fill="#66B6FF"/>
<path d="M438.041 272.014C438.134 285.314 435.456 298.488 430.177 310.696C424.898 322.904 417.134 333.877 407.38 342.918C392.287 356.815 374.042 366.833 354.218 372.111C343.974 374.946 333.39 376.367 322.761 376.333H191.355C179.725 376.41 168.15 374.736 157.018 371.366C109.668 356.711 73.3269 322.568 73.3269 272.014C73.3269 244.262 88.8069 214.407 111.29 190.877C108.323 188.072 105.961 184.692 104.347 180.942C102.732 177.192 101.901 173.152 101.903 169.069V116.363C101.862 111.619 102.955 106.934 105.089 102.698C107.223 98.461 110.338 94.7952 114.174 92.0048C118.01 89.2145 122.456 87.3802 127.144 86.6545C131.831 85.9288 136.624 86.3326 141.124 87.8324C160.429 94.2241 181.654 108.166 204.203 129.229C209.343 134.018 212.627 140.469 213.474 147.444H297.911C298.758 140.469 302.042 134.018 307.182 129.229C329.731 108.1 350.956 94.1578 370.277 87.8324C374.775 86.3392 379.565 85.9404 384.248 86.6692C388.931 87.398 393.372 89.2333 397.204 92.0229C401.036 94.8126 404.147 98.476 406.279 102.709C408.412 106.942 409.504 111.623 409.466 116.363V169.019C409.474 173.11 408.646 177.16 407.032 180.919C405.417 184.678 403.051 188.067 400.078 190.877C422.562 214.34 438.041 244.196 438.041 272.014Z" fill="#CEECF2"/>
<path d="M257.481 376.333C217.133 376.333 180.66 387.676 154.353 365.951C153.011 380.705 152.3 395.955 152.3 411.587C152.3 537.78 198.657 602.293 255.659 602.293C312.662 602.293 359.036 537.714 359.036 411.587C359.036 396.916 358.407 382.56 357.198 368.667C331.205 388.736 296.106 376.333 257.481 376.333Z" fill="#CEECF2"/>
<path d="M229.12 390.524C221.421 391.12 214.137 391.667 207.514 391.667C194.501 391.667 186.653 389.564 180.412 384.414L153.723 362.358L150.578 396.85C149.353 410.212 148.723 423.94 148.723 437.65C148.723 491.996 158.574 537.515 177.2 569.291C196.206 601.68 224.07 619.53 255.676 619.53C287.281 619.53 315.162 601.68 334.152 569.291C352.777 537.515 362.628 491.996 362.628 437.65C362.628 424.817 362.082 411.901 360.973 399.284L358.109 365.835L331.619 386.385C326.155 390.607 319.301 392.395 308.655 392.395L229.12 390.524ZM342.811 388.09C343.837 400.012 344.383 425.066 344.383 437.65C344.383 545.894 304.649 577.123 255.709 577.123C206.769 577.123 167.001 545.894 167.001 437.6C167.001 424.204 167.614 401.801 168.773 389.15" fill="#C0E0E2"/>
<path d="M378.456 366.796L375.145 327.8L344.201 351.744C337.844 356.712 329.847 358.765 317.447 358.765C309.682 358.765 301.023 357.953 291.851 357.109C280.924 356.066 269.633 354.989 257.53 354.989C246.024 354.989 235.212 355.817 224.766 356.645C215.792 357.341 207.299 357.987 199.567 357.987C184.402 357.987 175.263 355.536 167.995 349.525L136.853 323.81L133.177 364.03C131.737 379.596 131.025 395.608 131.025 411.603C131.025 474.94 142.498 528.011 164.22 565.069C186.372 602.839 218.855 623.637 255.709 623.637C292.563 623.637 325.046 602.839 347.198 565.069C368.92 528.011 380.41 474.94 380.41 411.603C380.36 396.568 379.714 381.516 378.456 366.796ZM255.659 602.243C198.574 602.243 152.299 537.664 152.299 411.537C152.299 395.906 153.011 380.655 154.352 365.902C180.66 387.627 217.133 376.284 257.48 376.284C296.106 376.284 331.205 388.736 357.198 368.617C358.406 382.51 359.036 396.866 359.036 411.537C359.036 537.73 312.828 602.243 255.659 602.243Z" fill="#171C28"/>
<path d="M438.356 272.014C438.449 285.316 435.769 298.491 430.487 310.699C425.204 322.907 417.436 333.88 407.678 342.918C392.568 356.85 374.293 366.892 354.433 372.177C344.224 374.98 333.68 376.378 323.093 376.333H191.67C180.04 376.41 168.464 374.735 157.333 371.366C109.982 356.711 73.6416 322.567 73.6416 272.014C73.6416 244.262 89.1216 214.406 111.605 190.877C108.636 188.073 106.271 184.693 104.654 180.943C103.037 177.193 102.202 173.153 102.201 169.069V116.363C102.16 111.617 103.252 106.93 105.387 102.692C107.522 98.4533 110.639 94.7862 114.477 91.9955C118.315 89.2047 122.764 87.371 127.454 86.6469C132.143 85.9227 136.938 86.3291 141.439 87.8322C160.743 94.2238 181.952 108.166 204.518 129.229C209.647 134.026 212.928 140.473 213.789 147.443H298.225C299.068 140.471 302.346 134.02 307.48 129.229C330.046 108.1 351.271 94.1576 370.575 87.8322C375.074 86.3356 379.866 85.9343 384.551 86.6615C389.236 87.3888 393.68 89.2237 397.514 92.0137C401.348 94.8036 404.461 98.4682 406.594 102.703C408.727 106.938 409.82 111.621 409.78 116.363V169.019C409.786 173.111 408.955 177.161 407.337 180.92C405.72 184.679 403.351 188.067 400.376 190.877C422.86 214.34 438.356 244.195 438.356 272.014Z" fill="#CEECF2"/>
<path d="M318.092 140.986C333.44 126.613 354.516 109.905 375.261 103.033C377.358 102.362 379.584 102.196 381.757 102.55C383.93 102.903 385.989 103.766 387.765 105.068C389.541 106.369 390.984 108.073 391.976 110.039C392.968 112.005 393.48 114.177 393.472 116.379V169.019C393.476 171.336 392.904 173.617 391.806 175.657C390.709 177.697 389.121 179.431 387.186 180.704C385.252 181.978 383.03 182.749 380.723 182.949C378.416 183.15 376.095 182.773 373.969 181.852C357.834 174.817 341.158 169.097 324.102 164.747C321.677 164.118 319.465 162.849 317.699 161.072C315.933 159.295 314.677 157.075 314.062 154.646C313.448 152.217 313.498 149.667 314.207 147.264C314.916 144.861 316.258 142.692 318.092 140.986Z" fill="#A9DDE6"/>
<path d="M193.276 140.986C177.929 126.613 156.853 109.905 136.108 103.033C134.011 102.362 131.785 102.196 129.612 102.55C127.438 102.903 125.38 103.766 123.604 105.068C121.828 106.369 120.385 108.073 119.393 110.039C118.401 112.005 117.888 114.177 117.896 116.379V169.019C117.897 171.327 118.47 173.599 119.564 175.631C120.657 177.663 122.238 179.392 124.164 180.664C126.09 181.935 128.301 182.709 130.599 182.917C132.897 183.124 135.211 182.758 137.333 181.852C153.469 174.82 170.145 169.1 187.2 164.747C189.63 164.127 191.849 162.864 193.623 161.09C195.397 159.317 196.661 157.099 197.283 154.668C197.904 152.238 197.86 149.685 197.155 147.278C196.45 144.87 195.11 142.697 193.276 140.986Z" fill="#A9DDE6"/>
<path d="M405.873 190.446L402.28 192.102C425.36 216.112 418.952 242.854 418.952 267.692C419.036 279.598 416.638 291.391 411.912 302.319C407.186 313.246 400.235 323.069 391.502 331.161C378.688 343.315 362.198 360.122 343.821 365.256C334.652 367.773 325.183 369.032 315.675 368.998H198.094C187.678 369.038 177.316 367.52 167.349 364.494C124.949 351.363 92.4163 312.914 92.4163 267.692C92.4163 242.854 86.0091 216.112 106.141 192.019L102.532 190.363C83.8733 216.857 66.804 243.517 66.804 267.692C66.9341 291.579 75.3752 314.676 90.6779 333.016C104.105 349.442 128.939 362.706 151.654 371.382C167.002 377.227 183.491 388.09 200.677 388.09H312.927C333.788 388.09 354.317 375.638 372.413 366.978C384.565 361.166 400.476 353.731 409.698 345.037C431.568 324.323 441.833 297.58 441.833 267.692C441.833 243.517 427.495 216.907 408.837 193.41" fill="#C0E0E2"/>
<path d="M392.976 260.009C377.214 352.737 331.52 342.206 255.676 342.206C179.833 342.206 134.436 350.32 118.376 260.009C111.075 218.894 179.849 184.386 255.676 184.386C331.503 184.386 399.979 218.828 392.976 260.009Z" fill="#191C28"/>
<path d="M297.199 488.634L258.193 537.879C257.882 538.257 257.491 538.562 257.049 538.771C256.607 538.98 256.124 539.088 255.635 539.088C255.145 539.088 254.662 538.98 254.22 538.771C253.778 538.562 253.387 538.257 253.077 537.879L214.087 488.634C213.127 487.307 212.61 485.71 212.61 484.072C212.61 482.434 213.127 480.838 214.087 479.51L253.077 430.282C253.387 429.904 253.778 429.599 254.22 429.39C254.662 429.181 255.145 429.073 255.635 429.073C256.124 429.073 256.607 429.181 257.049 429.39C257.491 429.599 257.882 429.904 258.193 430.282L297.166 479.51C298.138 480.831 298.665 482.427 298.671 484.067C298.677 485.707 298.161 487.306 297.199 488.634Z" fill="#A9DDE6"/>
<path d="M272.364 483.997L255.709 505.043L239.037 483.997L255.709 462.951L272.364 483.997Z" fill="#7DBAD8"/>
<path d="M255.709 462.951L255.676 443.661L223.772 483.964L239.037 483.997L255.709 462.951Z" fill="#ACD7ED"/>
<path d="M287.596 483.964L272.365 483.997L255.709 462.951L255.676 443.661L287.596 483.964Z" fill="#3EABE1"/>
<path d="M255.709 505.044L272.365 483.997L287.596 483.964L255.676 524.285L255.709 505.044Z" fill="#3E8AB5"/>
<path d="M255.676 524.285L255.709 505.044L239.037 483.997L223.772 483.964L255.676 524.285Z" fill="#6AADCD"/>
<path d="M426.734 188.972C429.404 182.659 430.784 175.874 430.79 169.019V116.363C430.818 108.25 428.918 100.247 425.246 93.013C421.574 85.7792 416.235 79.5221 409.67 74.7576C403.105 69.9931 395.501 66.8576 387.486 65.6098C379.471 64.362 371.275 65.0376 363.572 67.5809C341.304 74.9329 317.43 90.4649 292.579 113.73C288.707 117.349 285.423 121.551 282.845 126.182H228.524C225.933 121.554 222.65 117.349 218.789 113.713C193.955 90.5313 170.064 74.933 147.829 67.5975C140.126 65.0443 131.926 64.3606 123.907 65.6028C115.887 66.8451 108.278 69.9776 101.708 74.7417C95.1378 79.5059 89.7952 85.7649 86.1212 93.0019C82.4472 100.239 80.5474 108.246 80.5786 116.363V169.019C80.5849 175.874 81.9641 182.659 84.6348 188.972C63.7741 215.234 52.0027 244.94 52.0027 271.948C51.8195 298.512 60.9197 324.305 77.7309 344.872C92.7142 363.219 114.055 377.989 139.419 387.726C156.909 394.355 175.466 397.722 194.17 397.661H319.616C342.59 397.74 365.293 392.694 386.072 382.89C399.292 376.641 411.448 368.355 422.098 358.334C433.969 347.328 443.415 333.967 449.832 319.104C456.249 304.241 459.496 288.203 459.366 272.014C459.366 244.94 447.578 215.218 426.734 188.972ZM407.38 342.852C392.294 356.772 374.049 366.814 354.218 372.111C343.974 374.946 333.39 376.367 322.761 376.333H191.355C179.725 376.41 168.15 374.735 157.018 371.366C109.668 356.711 73.327 322.567 73.327 272.014C73.327 244.262 88.8069 214.406 111.29 190.877C108.324 188.072 105.961 184.691 104.347 180.941C102.732 177.192 101.901 173.151 101.903 169.069V116.363C101.862 111.619 102.955 106.934 105.089 102.697C107.223 98.4608 110.338 94.795 114.174 92.0046C118.01 89.2142 122.456 87.38 127.144 86.6543C131.831 85.9286 136.624 86.3324 141.124 87.8322C160.429 94.2238 181.654 108.166 204.203 129.229C209.343 134.018 212.627 140.469 213.474 147.443H297.911C298.758 140.469 302.042 134.018 307.182 129.229C329.731 108.1 350.956 94.1576 370.277 87.8322C374.775 86.3389 379.565 85.9401 384.248 86.6689C388.931 87.3977 393.372 89.2331 397.204 92.0227C401.036 94.8123 404.147 98.4757 406.279 102.709C408.412 106.942 409.504 111.623 409.466 116.363V169.019C409.474 173.11 408.646 177.16 407.032 180.919C405.417 184.678 403.051 188.066 400.078 190.877C422.562 214.39 438.042 244.245 438.042 272.014C438.125 285.303 435.442 298.464 430.163 310.66C424.884 322.855 417.125 333.819 407.38 342.852Z" fill="#181C28"/>
<path d="M393.307 260.009C377.545 352.737 331.834 273.438 256.007 273.438C180.18 273.438 134.767 350.32 118.707 260.009C111.406 218.894 180.18 184.386 256.007 184.386C331.834 184.386 400.31 218.828 393.307 260.009Z" fill="#1D212D"/>
<path d="M327.844 458.895C331.917 492.012 355.625 555.166 375.013 552.782C394.4 550.398 402.131 483.435 398.059 450.268C393.986 417.101 374.979 392.147 355.576 394.531C336.172 396.916 323.771 425.728 327.844 458.895Z" fill="#CEECF2"/>
<path d="M319.202 462.587C321.189 478.815 327.679 500.838 335.758 518.688C347.827 545.43 360.791 557.567 375.393 555.779C389.996 553.991 399.631 539.072 404.88 510.193C408.39 490.936 409.35 468.002 407.363 451.758L398.406 452.851C401.916 481.53 389.698 533.673 372.926 535.743C356.155 537.813 331.702 490.141 328.225 461.478L319.202 462.587Z" fill="#C0E0E2"/>
<path d="M395.294 399.383C383.853 384.364 368.655 376.814 353.638 378.652C338.622 380.49 325.692 391.501 318.225 408.838C311.884 423.559 309.665 441.955 311.967 460.849C314.268 479.742 321.785 505.11 331.106 525.742C345.079 556.69 360.079 570.732 376.966 568.662C393.853 566.592 404.996 549.338 411.072 515.923C415.128 493.651 416.254 467.108 413.936 448.314C411.618 429.52 405.012 412.133 395.294 399.383ZM375.012 552.782C355.625 555.167 331.967 492.062 327.844 458.895C323.722 425.728 336.122 396.916 355.576 394.531C375.029 392.147 394.002 417.101 398.059 450.268C402.115 483.435 394.4 550.398 375.012 552.782Z" fill="#171C28"/>
<path d="M115.942 450.268C111.87 483.385 119.601 550.398 138.988 552.782C158.376 555.166 182.034 492.061 186.157 458.895C190.279 425.728 177.879 396.916 158.425 394.531C138.972 392.147 120.015 417.101 115.942 450.268Z" fill="#CEECF2"/>
<path d="M106.654 451.758C104.668 468.002 105.644 490.936 109.138 510.193C114.386 539.072 124.038 553.991 138.624 555.779C153.21 557.567 166.19 545.43 178.26 518.688C186.322 500.838 192.812 478.815 194.816 462.587L185.842 461.478C182.332 490.141 157.846 537.797 141.141 535.743C124.436 533.69 112.151 481.53 115.677 452.851L106.654 451.758Z" fill="#C0E0E2"/>
<path d="M195.776 408.838C188.309 391.501 175.396 380.506 160.379 378.652C145.363 376.797 130.164 384.364 118.724 399.383C109.005 412.133 102.383 429.503 100.065 448.314C97.7473 467.124 98.8897 493.651 102.929 515.923C109.005 549.338 120.164 566.576 137.052 568.662C153.939 570.748 168.939 556.69 182.895 525.742C192.217 505.11 199.733 479.626 202.034 460.849C204.336 442.071 202.117 423.559 195.776 408.838ZM138.989 552.782C119.601 550.398 111.87 483.435 115.943 450.268C120.015 417.101 138.989 392.147 158.425 394.548C177.862 396.949 190.23 425.744 186.157 458.911C182.084 492.078 158.392 555.167 138.989 552.782Z" fill="#171C28"/>
<path d="M337.96 285.112C337.147 284.872 336.457 284.33 336.032 283.597C335.607 282.864 335.479 281.996 335.675 281.171C337.001 276.128 336.39 270.77 333.963 266.154C331.536 261.539 327.469 257.999 322.562 256.234C322.049 256.036 321.524 255.87 320.99 255.737C315.576 254.371 309.842 255.208 305.044 258.063C300.246 260.919 296.776 265.561 295.394 270.971C295.211 271.642 294.772 272.214 294.171 272.565C293.57 272.915 292.856 273.014 292.182 272.842L281.669 270.027C281.06 269.842 280.547 269.428 280.238 268.872C279.929 268.316 279.848 267.661 280.013 267.047C285.261 247.524 305.145 235.453 324.35 240.139L325.178 240.337C334.554 242.882 342.54 249.037 347.39 257.456C352.239 265.875 353.557 275.873 351.055 285.261C350.948 285.666 350.761 286.046 350.506 286.379C350.252 286.712 349.933 286.991 349.57 287.2C349.207 287.409 348.806 287.545 348.391 287.598C347.975 287.652 347.553 287.623 347.148 287.513L337.96 285.112Z" fill="#62CCEE"/>
<path d="M219.948 272.676C219.54 272.789 219.114 272.819 218.694 272.766C218.275 272.712 217.87 272.576 217.504 272.365C217.137 272.154 216.816 271.873 216.559 271.536C216.302 271.2 216.115 270.817 216.007 270.408C214.613 265.394 211.397 261.083 206.991 258.317C202.584 255.551 197.303 254.53 192.183 255.455C191.637 255.555 191.09 255.67 190.527 255.819C185.158 257.347 180.613 260.941 177.888 265.814C175.163 270.687 174.481 276.441 175.991 281.817C176.164 282.488 176.067 283.201 175.72 283.801C175.373 284.402 174.805 284.843 174.137 285.029L163.624 287.844C163.011 288.017 162.355 287.94 161.799 287.63C161.243 287.319 160.834 286.801 160.66 286.188C155.428 266.649 166.604 246.249 185.594 240.701L186.405 240.47C195.808 237.96 205.822 239.285 214.249 244.153C222.677 249.021 228.829 257.034 231.355 266.434C231.465 266.839 231.494 267.262 231.441 267.679C231.387 268.096 231.252 268.498 231.043 268.863C230.834 269.227 230.555 269.547 230.222 269.804C229.889 270.06 229.509 270.249 229.103 270.358L219.948 272.676Z" fill="#62CCEE"/>
<path d="M438.041 272.014C438.134 285.314 435.456 298.488 430.177 310.696C424.898 322.904 417.134 333.877 407.38 342.918C392.287 356.815 374.042 366.833 354.218 372.111C343.974 374.946 333.39 376.367 322.761 376.333H191.355C179.725 376.41 168.15 374.736 157.018 371.366C109.668 356.711 73.3269 322.568 73.3269 272.014C73.3269 244.262 88.8069 214.407 111.29 190.877C108.323 188.072 105.961 184.692 104.347 180.942C102.732 177.192 101.901 173.152 101.903 169.069V116.363C101.862 111.619 102.955 106.934 105.089 102.698C107.223 98.461 110.338 94.7952 114.174 92.0048C118.01 89.2145 122.456 87.3802 127.144 86.6545C131.831 85.9288 136.624 86.3326 141.124 87.8324C160.429 94.2241 181.654 108.166 204.203 129.229C209.343 134.018 212.627 140.469 213.474 147.444H297.911C298.758 140.469 302.042 134.018 307.182 129.229C329.731 108.1 350.956 94.1578 370.277 87.8324C374.775 86.3392 379.565 85.9404 384.248 86.6692C388.931 87.398 393.372 89.2333 397.204 92.0229C401.036 94.8126 404.147 98.476 406.279 102.709C408.412 106.942 409.504 111.623 409.466 116.363V169.019C409.474 173.11 408.646 177.16 407.032 180.919C405.417 184.678 403.051 188.067 400.078 190.877C422.562 214.34 438.041 244.196 438.041 272.014Z" fill="#CEECF2"/>
<path d="M257.481 376.333C217.133 376.333 180.66 387.676 154.353 365.951C153.011 380.705 152.3 395.955 152.3 411.587C152.3 537.78 198.657 602.293 255.659 602.293C312.662 602.293 359.036 537.714 359.036 411.587C359.036 396.916 358.407 382.56 357.198 368.667C331.205 388.736 296.106 376.333 257.481 376.333Z" fill="#CEECF2"/>
<path d="M229.12 390.524C221.421 391.12 214.137 391.667 207.514 391.667C194.501 391.667 186.653 389.564 180.412 384.414L153.723 362.358L150.578 396.85C149.353 410.212 148.723 423.94 148.723 437.65C148.723 491.996 158.574 537.515 177.2 569.291C196.206 601.68 224.07 619.53 255.676 619.53C287.281 619.53 315.162 601.68 334.152 569.291C352.777 537.515 362.628 491.996 362.628 437.65C362.628 424.817 362.082 411.901 360.973 399.284L358.109 365.835L331.619 386.385C326.155 390.607 319.301 392.395 308.655 392.395L229.12 390.524ZM342.811 388.09C343.837 400.012 344.383 425.066 344.383 437.65C344.383 545.894 304.649 577.123 255.709 577.123C206.769 577.123 167.001 545.894 167.001 437.6C167.001 424.204 167.614 401.801 168.773 389.15" fill="#C0E0E2"/>
<path d="M378.456 366.796L375.145 327.8L344.201 351.744C337.844 356.712 329.847 358.765 317.447 358.765C309.682 358.765 301.023 357.953 291.851 357.109C280.924 356.066 269.633 354.989 257.53 354.989C246.024 354.989 235.212 355.817 224.766 356.645C215.792 357.341 207.299 357.987 199.567 357.987C184.402 357.987 175.263 355.536 167.995 349.525L136.853 323.81L133.177 364.03C131.737 379.596 131.025 395.608 131.025 411.603C131.025 474.94 142.498 528.011 164.22 565.069C186.372 602.839 218.855 623.637 255.709 623.637C292.563 623.637 325.046 602.839 347.198 565.069C368.92 528.011 380.41 474.94 380.41 411.603C380.36 396.568 379.714 381.516 378.456 366.796ZM255.659 602.243C198.574 602.243 152.299 537.664 152.299 411.537C152.299 395.906 153.011 380.655 154.352 365.902C180.66 387.627 217.133 376.284 257.48 376.284C296.106 376.284 331.205 388.736 357.198 368.617C358.406 382.51 359.036 396.866 359.036 411.537C359.036 537.73 312.828 602.243 255.659 602.243Z" fill="#171C28"/>
<path d="M135.479 197.318C132.509 194.516 130.144 191.136 128.53 187.385C126.915 183.635 126.085 179.594 126.091 175.51V122.87C126.082 114.924 129.226 107.299 134.831 101.668C140.437 96.0367 148.047 92.8593 155.992 92.833C159.16 92.8363 162.308 93.3508 165.313 94.3565C184.617 100.732 205.842 114.674 228.391 135.753C233.52 140.551 236.802 146.997 237.663 153.968H322.099C322.96 146.997 326.242 140.551 331.371 135.753C353.92 114.624 375.145 100.682 394.466 94.3565C397.465 93.3497 400.607 92.8352 403.77 92.833C420.326 92.833 415.144 105.633 415.144 122.192L404.681 176.984C404.681 185.561 417.048 192.119 411.303 197.6C433.787 221.113 444.962 250.372 444.962 278.124C444.962 306.936 412.446 324.654 393.522 342.57C379.218 356.132 398.903 372.889 378.373 378.602C368.16 381.417 357.61 382.826 347.016 382.791H215.544C203.955 382.791 188.673 386.219 177.564 382.791C130.214 368.12 73.2607 347.687 73.2607 297.2" fill="#CEECF2"/>
<path d="M323.407 141.2C336.453 128.98 354.334 114.79 372.016 108.961C373.797 108.389 375.688 108.246 377.535 108.545C379.381 108.843 381.131 109.575 382.641 110.68C384.151 111.784 385.377 113.231 386.221 114.901C387.065 116.57 387.502 118.416 387.496 120.287V164.995C387.496 166.961 387.009 168.896 386.077 170.627C385.145 172.358 383.798 173.83 382.157 174.912C380.516 175.994 378.632 176.651 376.674 176.825C374.716 176.999 372.746 176.683 370.94 175.907C357.229 169.926 343.054 165.07 328.556 161.385C326.5 160.847 324.625 159.768 323.126 158.26C321.627 156.752 320.56 154.871 320.034 152.811C319.509 150.75 319.544 148.587 320.138 146.545C320.731 144.504 321.86 142.658 323.407 141.2Z" fill="#171C28"/>
<path d="M187.961 141.2C174.915 128.98 157.035 114.79 139.369 108.961C137.588 108.389 135.697 108.246 133.85 108.545C132.004 108.843 130.254 109.575 128.744 110.68C127.235 111.784 126.008 113.231 125.164 114.901C124.32 116.57 123.883 118.416 123.889 120.287V164.995C123.884 166.963 124.369 168.9 125.3 170.633C126.231 172.367 127.578 173.841 129.22 174.924C130.863 176.006 132.749 176.663 134.709 176.835C136.668 177.006 138.64 176.688 140.445 175.907C154.162 169.926 168.342 165.07 182.846 161.385C184.903 160.848 186.778 159.768 188.277 158.259C189.775 156.749 190.841 154.865 191.363 152.804C191.886 150.742 191.846 148.578 191.247 146.537C190.649 144.496 189.514 142.653 187.961 141.2Z" fill="#171C28"/>
<path d="M393.133 260.009C377.372 352.737 331.677 342.206 255.833 342.206C179.99 342.206 134.593 350.32 118.533 260.009C111.232 218.894 180.006 184.386 255.833 184.386C331.66 184.386 400.136 218.828 393.133 260.009Z" fill="#191C28"/>
<path d="M297.199 488.634L258.193 537.879C257.882 538.257 257.491 538.562 257.049 538.771C256.607 538.98 256.124 539.088 255.635 539.088C255.145 539.088 254.662 538.98 254.22 538.771C253.778 538.562 253.387 538.257 253.077 537.879L214.087 488.634C213.127 487.307 212.61 485.71 212.61 484.072C212.61 482.434 213.127 480.838 214.087 479.51L253.077 430.282C253.387 429.904 253.778 429.599 254.22 429.39C254.662 429.181 255.145 429.073 255.635 429.073C256.124 429.073 256.607 429.181 257.049 429.39C257.491 429.599 257.882 429.904 258.193 430.282L297.166 479.51C298.138 480.831 298.665 482.427 298.671 484.067C298.677 485.707 298.161 487.306 297.199 488.634Z" fill="#A9DDE6"/>
<path d="M272.364 483.997L255.709 505.043L239.037 483.997L255.709 462.951L272.364 483.997Z" fill="#7DBAD8"/>
<path d="M255.709 462.951L255.676 443.661L223.772 483.964L239.037 483.997L255.709 462.951Z" fill="#ACD7ED"/>
<path d="M287.596 483.964L272.365 483.997L255.709 462.951L255.676 443.661L287.596 483.964Z" fill="#3EABE1"/>
<path d="M255.709 505.044L272.365 483.997L287.596 483.964L255.676 524.285L255.709 505.044Z" fill="#3E8AB5"/>
<path d="M255.676 524.285L255.709 505.044L239.037 483.997L223.772 483.964L255.676 524.285Z" fill="#6AADCD"/>
<path d="M426.734 188.972C429.404 182.659 430.784 175.874 430.79 169.019V116.363C430.818 108.25 428.918 100.247 425.246 93.013C421.574 85.7792 416.235 79.5221 409.67 74.7576C403.105 69.9931 395.501 66.8576 387.486 65.6098C379.471 64.362 371.275 65.0376 363.572 67.5809C341.304 74.9329 317.43 90.4649 292.579 113.73C288.707 117.349 285.423 121.551 282.845 126.182H228.524C225.933 121.554 222.65 117.349 218.789 113.713C193.955 90.5313 170.064 74.933 147.829 67.5975C140.126 65.0443 131.926 64.3606 123.907 65.6028C115.887 66.8451 108.278 69.9776 101.708 74.7417C95.1378 79.5059 89.7952 85.7649 86.1212 93.0019C82.4472 100.239 80.5474 108.246 80.5786 116.363V169.019C80.5849 175.874 81.9641 182.659 84.6348 188.972C63.7741 215.234 52.0027 244.94 52.0027 271.948C51.8195 298.512 60.9197 324.305 77.7309 344.872C92.7142 363.219 114.055 377.989 139.419 387.726C156.909 394.355 175.466 397.722 194.17 397.661H319.616C342.59 397.74 365.293 392.694 386.072 382.89C399.292 376.641 411.448 368.355 422.098 358.334C433.969 347.328 443.415 333.967 449.832 319.104C456.249 304.241 459.496 288.203 459.366 272.014C459.366 244.94 447.578 215.218 426.734 188.972ZM407.38 342.852C392.294 356.772 374.049 366.814 354.218 372.111C343.974 374.946 333.39 376.367 322.761 376.333H191.355C179.725 376.41 168.15 374.735 157.018 371.366C109.668 356.711 73.327 322.567 73.327 272.014C73.327 244.262 88.8069 214.406 111.29 190.877C108.324 188.072 105.961 184.691 104.347 180.941C102.732 177.192 101.901 173.151 101.903 169.069V116.363C101.862 111.619 102.955 106.934 105.089 102.697C107.223 98.4608 110.338 94.795 114.174 92.0046C118.01 89.2142 122.456 87.38 127.144 86.6543C131.831 85.9286 136.624 86.3324 141.124 87.8322C160.429 94.2238 181.654 108.166 204.203 129.229C209.343 134.018 212.627 140.469 213.474 147.443H297.911C298.758 140.469 302.042 134.018 307.182 129.229C329.731 108.1 350.956 94.1576 370.277 87.8322C374.775 86.3389 379.565 85.9401 384.248 86.6689C388.931 87.3977 393.372 89.2331 397.204 92.0227C401.036 94.8123 404.147 98.4757 406.279 102.709C408.412 106.942 409.504 111.623 409.466 116.363V169.019C409.474 173.11 408.646 177.16 407.032 180.919C405.417 184.678 403.051 188.066 400.078 190.877C422.562 214.39 438.042 244.245 438.042 272.014C438.125 285.303 435.442 298.464 430.163 310.66C424.884 322.855 417.125 333.819 407.38 342.852Z" fill="#181C28"/>
<path d="M393.464 260.009C377.703 352.737 331.991 293.126 256.164 293.126C180.337 293.126 134.924 350.32 118.864 260.009C111.563 218.894 180.337 184.386 256.164 184.386C331.991 184.386 400.467 218.828 393.464 260.009Z" fill="#1D212D"/>
<path d="M327.844 458.895C331.917 492.012 355.625 555.166 375.013 552.782C394.4 550.398 402.131 483.435 398.059 450.268C393.986 417.101 374.979 392.147 355.576 394.531C336.172 396.916 323.771 425.728 327.844 458.895Z" fill="#CEECF2"/>
<path d="M395.294 399.383C383.853 384.364 368.655 376.814 353.638 378.652C338.622 380.49 325.692 391.501 318.225 408.838C311.884 423.559 309.665 441.955 311.967 460.849C314.268 479.742 321.785 505.11 331.106 525.742C345.079 556.69 360.079 570.732 376.966 568.662C393.853 566.592 404.996 549.338 411.072 515.923C415.128 493.651 416.254 467.108 413.936 448.314C411.618 429.52 405.012 412.133 395.294 399.383ZM375.012 552.782C355.625 555.167 331.967 492.062 327.844 458.895C323.722 425.728 336.122 396.916 355.576 394.531C375.029 392.147 394.002 417.101 398.059 450.268C402.115 483.435 394.4 550.398 375.012 552.782Z" fill="#171C28"/>
<path d="M115.942 450.268C111.87 483.385 119.601 550.398 138.988 552.782C158.376 555.166 182.034 492.061 186.157 458.895C190.279 425.728 177.879 396.916 158.425 394.531C138.972 392.147 120.015 417.101 115.942 450.268Z" fill="#CEECF2"/>
<path d="M195.776 408.838C188.309 391.501 175.396 380.506 160.379 378.652C145.363 376.797 130.164 384.364 118.724 399.383C109.005 412.133 102.383 429.503 100.065 448.314C97.7473 467.124 98.8897 493.651 102.929 515.923C109.005 549.338 120.164 566.576 137.052 568.662C153.939 570.748 168.939 556.69 182.895 525.742C192.217 505.11 199.733 479.626 202.034 460.849C204.336 442.071 202.117 423.559 195.776 408.838ZM138.989 552.782C119.601 550.398 111.87 483.435 115.943 450.268C120.015 417.101 138.989 392.147 158.425 394.548C177.862 396.949 190.23 425.744 186.157 458.911C182.084 492.078 158.392 555.167 138.989 552.782Z" fill="#171C28"/>
<path d="M338.588 285.112C337.775 284.872 337.085 284.33 336.66 283.597C336.235 282.864 336.107 281.996 336.303 281.171C337.629 276.128 337.018 270.77 334.591 266.154C332.164 261.539 328.097 257.999 323.191 256.234C322.677 256.036 322.152 255.87 321.618 255.737C316.204 254.371 310.47 255.208 305.672 258.063C300.874 260.919 297.404 265.561 296.022 270.971C295.839 271.642 295.4 272.214 294.799 272.565C294.198 272.915 293.484 273.014 292.81 272.842L282.297 270.027C281.688 269.842 281.175 269.428 280.866 268.872C280.557 268.316 280.476 267.661 280.641 267.047C285.89 247.524 305.774 235.453 324.979 240.139L325.806 240.337C335.182 242.882 343.168 249.037 348.018 257.456C352.867 265.875 354.185 275.873 351.684 285.261C351.576 285.666 351.39 286.046 351.135 286.379C350.88 286.712 350.562 286.991 350.198 287.2C349.835 287.409 349.434 287.545 349.019 287.598C348.603 287.652 348.181 287.623 347.776 287.513L338.588 285.112Z" fill="#62CCEE"/>
<path d="M220.576 272.676C220.168 272.789 219.742 272.819 219.323 272.766C218.903 272.712 218.498 272.576 218.132 272.365C217.765 272.154 217.444 271.873 217.187 271.536C216.931 271.2 216.743 270.817 216.635 270.408C215.241 265.394 212.026 261.083 207.619 258.317C203.212 255.551 197.931 254.53 192.811 255.455C192.265 255.555 191.719 255.67 191.156 255.819C185.786 257.347 181.241 260.941 178.516 265.814C175.792 270.687 175.109 276.441 176.619 281.817C176.792 282.488 176.695 283.201 176.348 283.801C176.001 284.402 175.433 284.843 174.765 285.029L164.252 287.844C163.639 288.017 162.983 287.94 162.427 287.63C161.872 287.319 161.462 286.801 161.288 286.188C156.057 266.649 167.232 246.249 186.222 240.701L187.033 240.47C196.436 237.96 206.45 239.285 214.878 244.153C223.305 249.021 229.457 257.034 231.983 266.434C232.093 266.839 232.122 267.262 232.069 267.679C232.015 268.096 231.88 268.498 231.671 268.863C231.462 269.227 231.183 269.547 230.85 269.804C230.517 270.06 230.137 270.249 229.731 270.358L220.576 272.676Z" fill="#62CCEE"/>
</g>
<defs>
<clipPath id="clip0_444_3">
<rect width="512" height="512" rx="65" fill="white"/>
</clipPath>
</defs>
</svg>
