<svg width="512" height="512" viewBox="0 0 512 512" fill="none" xmlns="http://www.w3.org/2000/svg">
<g clip-path="url(#clip0_444_214)">
<rect width="512" height="512" rx="65" fill="white"/>
<path d="M-22 -18H540V544H-22V-18Z" fill="#FF6060"/>
<path d="M437.378 271.882C437.472 285.18 434.794 298.351 429.514 310.556C424.235 322.761 416.471 333.732 406.716 342.769C391.605 356.703 373.332 366.75 353.472 372.045C343.256 374.846 332.708 376.25 322.115 376.218H190.692C179.062 376.294 167.487 374.62 156.355 371.25C109.004 356.596 72.6636 322.452 72.6636 271.898C72.6636 244.146 88.1435 214.274 110.627 190.761C107.659 187.961 105.295 184.583 103.681 180.836C102.067 177.088 101.236 173.05 101.239 168.97V116.363C101.199 111.619 102.291 106.934 104.426 102.698C106.56 98.461 109.675 94.7952 113.511 92.0048C117.347 89.2145 121.793 87.3802 126.481 86.6545C131.168 85.9288 135.961 86.3326 140.461 87.8324C159.765 94.2075 180.99 108.166 203.54 129.229C208.669 134.026 211.95 140.473 212.811 147.444H297.247C298.109 140.477 301.384 134.032 306.502 129.229C329.068 108.117 350.293 94.1578 369.598 87.8324C374.097 86.3359 378.888 85.9345 383.573 86.6618C388.258 87.3891 392.702 89.224 396.536 92.0139C400.37 94.8039 403.483 98.4685 405.616 102.703C407.749 106.938 408.842 111.621 408.802 116.363V169.003C408.806 173.083 407.975 177.121 406.361 180.869C404.746 184.616 402.383 187.994 399.415 190.794C421.898 214.258 437.378 244.129 437.378 271.882Z" fill="#F2CECE"/>
<path d="M256.801 376.217C216.47 376.217 179.98 387.56 153.689 365.835C152.348 380.572 151.636 395.839 151.636 411.471C151.636 537.664 197.993 602.176 254.996 602.176C311.999 602.176 358.372 537.598 358.372 411.471C358.372 396.783 357.727 382.443 356.535 368.551C330.542 388.669 295.376 376.217 256.801 376.217Z" fill="#F2CECE"/>
<path d="M377.776 366.713L374.465 327.717L343.521 351.678C337.164 356.645 329.167 358.698 316.767 358.698C309.002 358.698 300.326 357.87 291.154 357.043C280.244 355.999 268.952 354.923 256.833 354.923C245.343 354.923 234.532 355.751 224.085 356.579C215.112 357.274 206.619 357.92 198.887 357.92C183.722 357.92 174.583 355.47 167.298 349.459L136.173 323.743L132.497 363.948C131.057 379.529 130.345 395.541 130.345 411.537C130.345 474.874 141.818 527.944 163.54 565.002C185.692 602.773 218.175 623.57 255.029 623.57C291.883 623.57 324.366 602.773 346.518 565.002C368.24 527.944 379.729 474.874 379.729 411.537C379.696 396.502 379.051 381.45 377.776 366.713ZM254.996 602.177C197.91 602.177 151.636 537.598 151.636 411.471C151.636 395.839 152.348 380.572 153.689 365.835C179.98 387.56 216.47 376.217 256.8 376.217C295.442 376.217 330.541 388.67 356.534 368.551C357.726 382.444 358.372 396.783 358.372 411.471C358.372 537.664 312.081 602.177 254.996 602.177Z" fill="#171C28"/>
<path d="M437.759 271.881C437.857 285.18 435.18 298.353 429.901 310.558C424.621 322.764 416.855 333.734 407.097 342.769C391.988 356.706 373.714 366.754 353.853 372.044C343.642 374.845 333.099 376.249 322.512 376.217H191.073C179.443 376.294 167.867 374.619 156.736 371.25C109.385 356.595 73.0444 322.451 73.0444 271.898C73.0444 244.146 88.5244 214.274 111.008 190.761C108.038 187.961 105.671 184.584 104.054 180.837C102.437 177.089 101.603 173.051 101.604 168.969V116.363C101.562 111.617 102.655 106.93 104.79 102.692C106.925 98.4533 110.042 94.7862 113.88 91.9955C117.718 89.2047 122.167 87.371 126.856 86.6469C131.546 85.9227 136.341 86.3291 140.842 87.8322C160.146 94.2072 181.354 108.166 203.92 129.229C209.044 134.028 212.32 140.475 213.175 147.443H297.611C298.473 140.473 301.754 134.026 306.883 129.229C329.449 108.116 350.674 94.1576 369.978 87.8322C374.473 86.3486 379.257 85.9574 383.933 86.6908C388.61 87.4243 393.044 89.2612 396.87 92.0497C400.695 94.8382 403.801 98.4979 405.931 102.726C408.061 106.954 409.153 111.629 409.117 116.363V169.003C409.106 173.078 408.264 177.109 406.641 180.847C405.019 184.586 402.65 187.953 399.68 190.744C422.196 214.257 437.759 244.129 437.759 271.881Z" fill="#F2CECE"/>
<path d="M322.743 141.201C335.79 128.98 353.67 114.707 371.352 108.944C373.134 108.376 375.026 108.236 376.872 108.537C378.719 108.838 380.468 109.572 381.977 110.678C383.486 111.783 384.712 113.23 385.556 114.9C386.4 116.57 386.837 118.416 386.832 120.287V164.995C386.833 166.961 386.345 168.896 385.413 170.627C384.482 172.358 383.135 173.831 381.493 174.912C379.852 175.994 377.968 176.651 376.01 176.825C374.052 176.999 372.082 176.683 370.276 175.908C356.561 169.931 342.388 165.069 327.892 161.369C325.832 160.839 323.953 159.764 322.45 158.258C320.947 156.752 319.877 154.87 319.35 152.809C318.824 150.747 318.861 148.582 319.458 146.54C320.055 144.498 321.19 142.654 322.743 141.201Z" fill="#171C28"/>
<path d="M187.298 141.201C174.252 128.98 156.371 114.707 138.689 108.944C136.907 108.376 135.015 108.236 133.169 108.537C131.323 108.838 129.573 109.572 128.064 110.678C126.555 111.783 125.329 113.23 124.485 114.9C123.641 116.57 123.204 118.416 123.209 120.287V164.995C123.199 166.965 123.678 168.906 124.605 170.644C125.531 172.381 126.875 173.861 128.516 174.95C130.156 176.039 132.042 176.703 134.003 176.882C135.964 177.06 137.938 176.748 139.749 175.974C153.463 169.997 167.637 165.135 182.132 161.435C184.207 160.914 186.103 159.842 187.619 158.332C189.134 156.822 190.214 154.93 190.743 152.857C191.272 150.784 191.232 148.606 190.625 146.554C190.019 144.503 188.869 142.653 187.298 141.201Z" fill="#171C28"/>
<path d="M392.312 259.942C376.551 352.671 330.839 342.139 255.012 342.139C179.185 342.139 133.772 350.253 117.713 259.942C110.411 218.811 179.185 184.253 255.012 184.253C330.839 184.253 399.315 218.761 392.312 259.942Z" fill="#191C28"/>
<path d="M296.535 488.568L257.562 537.796C257.251 538.174 256.861 538.479 256.419 538.688C255.976 538.897 255.493 539.005 255.004 539.005C254.515 539.005 254.032 538.897 253.59 538.688C253.147 538.479 252.757 538.174 252.446 537.796L213.457 488.568C212.496 487.24 211.979 485.644 211.979 484.006C211.979 482.368 212.496 480.771 213.457 479.444L252.446 430.198C252.757 429.821 253.147 429.516 253.59 429.307C254.032 429.098 254.515 428.99 255.004 428.99C255.493 428.99 255.976 429.098 256.419 429.307C256.861 429.516 257.251 429.821 257.562 430.198L296.535 479.444C297.503 480.768 298.024 482.366 298.024 484.006C298.024 485.646 297.503 487.243 296.535 488.568Z" fill="#E6A9A9"/>
<path d="M271.701 483.931L255.046 504.977L238.374 483.931L255.046 462.885L271.701 483.931Z" fill="#D87D7D"/>
<path d="M255.046 462.885L255.012 443.578L223.109 483.898L238.374 483.931L255.046 462.885Z" fill="#EDACAC"/>
<path d="M286.933 483.898L271.701 483.931L255.046 462.885L255.013 443.578L286.933 483.898Z" fill="#E13E3E"/>
<path d="M255.046 504.977L271.701 483.931L286.933 483.898L255.013 524.218L255.046 504.977Z" fill="#B53E3E"/>
<path d="M255.012 524.218L255.046 504.977L238.374 483.931L223.109 483.898L255.012 524.218Z" fill="#CD6A6A"/>
<path d="M426.07 188.906C428.725 182.617 430.104 175.862 430.127 169.036V116.363C430.155 108.25 428.255 100.247 424.583 93.013C420.911 85.7792 415.572 79.5221 409.007 74.7576C402.441 69.9931 394.838 66.8576 386.823 65.6098C378.808 64.362 370.611 65.0376 362.909 67.5809C340.641 74.9329 316.767 90.465 291.916 113.713C288.048 117.336 284.764 121.537 282.181 126.165H227.86C225.269 121.543 221.986 117.343 218.126 113.713C193.291 90.5313 169.401 74.933 147.166 67.5975C139.463 65.0443 131.263 64.3606 123.243 65.6028C115.224 66.8451 107.615 69.9776 101.044 74.7417C94.4744 79.5059 89.1317 85.7649 85.4577 93.0019C81.7838 100.239 79.884 108.246 79.9151 116.363V169.003C79.9378 175.829 81.3166 182.584 83.9714 188.873C63.1107 215.118 51.3393 244.841 51.3393 271.848C51.1515 298.455 60.2768 324.288 77.1337 344.872C92.117 363.219 113.458 377.989 138.822 387.726C156.317 394.328 174.874 397.667 193.573 397.578H318.952C341.927 397.657 364.63 392.611 385.408 382.808C398.598 376.562 410.731 368.293 421.368 358.301C433.26 347.293 442.723 333.924 449.152 319.049C455.58 304.173 458.833 288.119 458.702 271.914C458.702 244.874 446.914 215.151 426.07 188.906ZM406.716 342.769C391.605 356.703 373.332 366.75 353.472 372.045C343.256 374.846 332.707 376.25 322.114 376.217H190.692C179.062 376.294 167.486 374.619 156.355 371.25C109.004 356.595 72.6635 322.451 72.6635 271.898C72.6635 244.146 88.1435 214.274 110.627 190.761C107.659 187.961 105.295 184.583 103.681 180.835C102.067 177.088 101.236 173.05 101.239 168.969V116.363C101.199 111.619 102.291 106.934 104.426 102.697C106.56 98.4608 109.675 94.795 113.511 92.0046C117.347 89.2142 121.793 87.38 126.48 86.6543C131.168 85.9286 135.961 86.3324 140.461 87.8322C159.765 94.2073 180.99 108.166 203.54 129.229C208.669 134.026 211.95 140.473 212.811 147.443H297.247C298.109 140.477 301.384 134.032 306.502 129.229C329.068 108.117 350.293 94.1576 369.597 87.8322C374.096 86.3356 378.887 85.9343 383.573 86.6615C388.258 87.3888 392.702 89.2237 396.536 92.0137C400.37 94.8037 403.483 98.4683 405.616 102.703C407.749 106.938 408.842 111.621 408.802 116.363V169.003C408.806 173.083 407.975 177.121 406.361 180.869C404.746 184.616 402.383 187.994 399.415 190.794C421.898 214.307 437.378 244.179 437.378 271.931C437.465 285.221 434.783 298.383 429.504 310.579C424.225 322.775 416.464 333.738 406.716 342.769Z" fill="#181C28"/>
<path d="M392.643 259.942C376.882 352.671 331.171 293.06 255.344 293.06C179.517 293.06 134.103 350.253 118.044 259.942C110.743 218.811 179.484 184.253 255.344 184.253C331.204 184.253 399.68 218.761 392.643 259.942Z" fill="#1D212D"/>
<path d="M76.4548 412.448C59.7497 383.503 40.7102 318.842 57.6305 309.072C74.5509 299.302 121.024 348.134 137.729 377.062C154.434 405.99 154.285 437.385 137.332 447.155C120.378 456.924 93.1599 441.376 76.4548 412.448Z" fill="#F2CECE"/>
<path d="M151.587 369.064C142.116 352.671 125.246 332.155 108.541 316.805C83.5906 293.772 64.3028 286.718 49.5678 295.279C34.8329 303.84 31.3561 324.008 38.7732 357.142C43.7401 379.231 53.0777 404.102 62.5312 420.495C71.9847 436.888 84.8986 450.301 98.8223 458.265C115.229 467.604 132.15 468.614 145.179 461.047C158.209 453.48 165.874 438.312 165.99 419.435C166.239 403.357 161.057 385.474 151.587 369.064ZM137.729 377.062C154.434 406.006 154.285 437.385 137.332 447.155C120.378 456.924 93.1601 441.376 76.4549 412.381C59.7498 383.387 40.7103 318.776 57.6306 309.006C74.551 299.236 121.024 348.184 137.729 377.062Z" fill="#171C28"/>
<path d="M345.803 278.637C344.951 278.637 344.134 278.299 343.531 277.697C342.929 277.094 342.591 276.277 342.591 275.425C342.564 270.21 340.586 265.193 337.047 261.363C333.508 257.532 328.665 255.165 323.468 254.727C322.905 254.727 322.359 254.727 321.813 254.727C316.23 254.81 310.908 257.103 307.013 261.104C303.118 265.105 300.968 270.487 301.035 276.071C301.035 276.769 300.758 277.439 300.264 277.932C299.77 278.426 299.101 278.704 298.402 278.704H287.525C286.884 278.704 286.269 278.449 285.816 277.996C285.363 277.542 285.108 276.927 285.108 276.286C285.108 256.068 301.184 239.244 320.968 238.797H321.813C331.545 238.806 340.876 242.677 347.757 249.559C354.639 256.442 358.509 265.774 358.518 275.508C358.496 276.345 358.148 277.141 357.548 277.726C356.948 278.311 356.143 278.638 355.306 278.637H345.803Z" fill="#EE6262"/>
<path d="M219.695 278.637C218.843 278.637 218.026 278.299 217.424 277.697C216.821 277.094 216.483 276.277 216.483 275.425C216.448 270.212 214.468 265.2 210.931 261.371C207.393 257.542 202.554 255.172 197.36 254.727C196.798 254.727 196.251 254.727 195.705 254.727C190.122 254.81 184.8 257.103 180.905 261.104C177.01 265.105 174.861 270.487 174.927 276.071C174.927 276.766 174.652 277.433 174.162 277.927C173.672 278.42 173.006 278.699 172.311 278.704H161.417C160.777 278.699 160.165 278.443 159.713 277.991C159.26 277.538 159.004 276.926 159 276.286C159 256.068 175.093 239.244 194.861 238.814H195.705C205.436 238.827 214.764 242.699 221.645 249.581C228.525 256.462 232.397 265.792 232.41 275.524C232.405 276.371 232.067 277.181 231.469 277.779C230.871 278.378 230.061 278.716 229.214 278.72L219.695 278.637Z" fill="#EE6262"/>
<path d="M434.895 412.448C451.6 383.503 470.639 318.842 453.719 309.072C436.798 299.302 390.326 348.183 373.62 377.062C356.915 405.94 357.064 437.385 374.018 447.154C390.971 456.924 418.189 441.375 434.895 412.448Z" fill="#F2CECE"/>
<path d="M345.21 419.386C345.326 438.263 352.909 453.43 366.021 460.998C379.133 468.565 396.054 467.621 412.461 458.216C426.384 450.268 439.265 436.855 448.752 420.446C458.238 404.036 467.56 379.182 472.526 357.092C479.993 323.975 476.467 303.724 461.732 295.229C446.997 286.735 427.709 293.772 402.759 316.756C386.12 332.105 369.249 352.622 359.713 369.015C350.177 385.408 345.127 403.357 345.21 419.386ZM453.719 309.072C470.639 318.842 451.6 383.586 434.894 412.448C418.189 441.31 390.938 456.924 374.018 447.221C357.097 437.518 356.915 406.073 373.62 377.128C390.325 348.184 436.798 299.303 453.719 309.072Z" fill="#171C28"/>
</g>
<defs>
<clipPath id="clip0_444_214">
<rect width="512" height="512" rx="65" fill="white"/>
</clipPath>
</defs>
</svg>
