<svg width="512" height="512" viewBox="0 0 512 512" fill="none" xmlns="http://www.w3.org/2000/svg">
<g clip-path="url(#clip0_444_161)">
<rect width="512" height="512" rx="65" fill="white"/>
<rect x="-22" y="-18" width="562" height="562" fill="#FFED91"/>
<path d="M438.025 271.886C438.123 285.184 435.446 298.357 430.167 310.563C424.887 322.769 417.121 333.739 407.363 342.773C392.255 356.71 373.98 366.758 354.119 372.049C343.908 374.85 333.366 376.253 322.778 376.222H191.356C179.726 376.299 168.15 374.624 157.018 371.254C109.668 356.6 73.3271 322.456 73.3271 271.902C73.3271 244.15 88.8071 214.278 111.29 190.765C108.309 187.968 105.933 184.59 104.307 180.84C102.681 177.089 101.84 173.045 101.837 168.957V116.367C101.796 111.621 102.888 106.934 105.023 102.696C107.158 98.4578 110.275 94.7907 114.113 92C117.951 89.2092 122.4 87.3755 127.089 86.6514C131.779 85.9272 136.574 86.3336 141.075 87.8367C160.379 94.2118 181.588 108.171 204.154 129.233C209.277 134.035 212.557 140.479 213.425 147.448H297.861C298.704 140.475 301.982 134.025 307.116 129.233C329.682 108.121 350.907 94.1621 370.211 87.8367C374.713 86.3304 379.51 85.9215 384.202 86.6441C388.893 87.3667 393.345 89.1999 397.185 91.991C401.025 94.7821 404.143 98.4504 406.279 102.69C408.416 106.93 409.508 111.619 409.466 116.367V169.007C409.466 173.089 408.632 177.127 407.015 180.874C405.398 184.622 403.032 187.999 400.062 190.798C422.545 214.262 438.025 244.134 438.025 271.886Z" fill="#F2F1CE"/>
<path d="M257.464 376.222C217.134 376.222 180.644 387.564 154.353 365.839C152.995 380.577 152.283 395.844 152.283 411.475C152.283 537.668 198.64 602.181 255.66 602.181C312.679 602.181 359.019 537.602 359.019 411.475C359.019 396.787 358.39 382.448 357.198 368.555C331.205 388.674 296.09 376.222 257.464 376.222Z" fill="#F2F1CE"/>
<path d="M229.12 390.462C221.405 391.042 214.22 391.605 207.498 391.605C194.501 391.605 186.654 389.502 180.412 384.352L153.707 362.296L150.545 396.787C149.32 410.15 148.707 423.877 148.707 437.588C148.707 491.933 158.641 537.453 177.184 569.229C196.174 601.618 224.054 619.468 255.66 619.468C287.265 619.468 315.129 601.618 334.136 569.229C352.761 537.453 362.612 491.933 362.612 437.588C362.612 424.755 362.066 411.839 360.957 399.205L358.076 365.757L331.586 386.306C326.139 390.528 319.268 392.333 308.639 392.333L229.12 390.462ZM342.778 388.028C343.804 399.95 344.434 425.003 344.434 437.588C344.434 545.832 304.699 577.045 255.776 577.045C206.852 577.045 166.985 545.832 166.985 437.605C166.985 424.209 167.598 401.805 168.757 389.154" fill="#E1E2C0"/>
<path d="M378.44 366.717L375.129 327.722L344.185 351.682C337.828 356.65 329.815 358.703 317.414 358.703C309.649 358.703 300.99 357.875 291.818 357.047C280.908 356.004 269.617 354.927 257.497 354.927C246.008 354.927 235.196 355.755 224.749 356.583C215.759 357.279 207.283 357.925 199.551 357.925C184.386 357.925 175.23 355.474 167.962 349.463L136.837 323.748L133.145 363.952C131.721 379.534 130.992 395.546 130.992 411.541C130.992 474.878 142.482 527.949 164.204 565.007C186.356 602.777 218.839 623.575 255.693 623.575C292.547 623.575 325.03 602.777 347.182 565.007C368.903 527.949 380.377 474.878 380.377 411.541C380.344 396.506 379.715 381.454 378.44 366.717ZM255.66 602.181C198.574 602.181 152.283 537.602 152.283 411.475C152.283 395.844 152.995 380.577 154.353 365.84C180.644 387.564 217.134 376.222 257.464 376.222C296.09 376.222 331.205 388.674 357.198 368.555C358.39 382.448 359.02 396.788 359.02 411.475C359.02 537.668 312.745 602.181 255.66 602.181Z" fill="#171C28"/>
<path d="M438.34 271.886C438.433 285.184 435.755 298.355 430.476 310.561C425.197 322.766 417.432 333.737 407.678 342.773C392.569 356.711 374.295 366.759 354.433 372.049C344.217 374.851 333.669 376.255 323.076 376.222H191.67C180.04 376.299 168.465 374.624 157.333 371.254C109.966 356.467 73.6914 322.39 73.6914 271.886C73.6914 244.134 89.1714 214.262 111.655 190.749C108.687 187.949 106.323 184.571 104.709 180.824C103.095 177.076 102.264 173.038 102.267 168.958V116.367C102.227 111.624 103.319 106.939 105.454 102.702C107.588 98.4654 110.703 94.7996 114.538 92.0092C118.374 89.2189 122.821 87.3846 127.508 86.6589C132.196 85.9332 136.989 86.337 141.489 87.8368C160.793 94.2119 182.018 108.171 204.584 129.233C209.702 134.037 212.977 140.481 213.839 147.448H298.275C299.136 140.477 302.418 134.031 307.546 129.233C330.096 108.121 351.321 94.1622 370.642 87.8368C375.137 86.3533 379.921 85.9621 384.597 86.6955C389.274 87.4289 393.708 89.2659 397.533 92.0544C401.359 94.8429 404.465 98.5026 406.594 102.731C408.724 106.959 409.816 111.633 409.78 116.367V169.007C409.784 173.088 408.953 177.126 407.339 180.873C405.724 184.621 403.361 187.998 400.393 190.798C422.86 214.262 438.34 244.134 438.34 271.886Z" fill="#F2F1CE"/>
<path d="M323.407 141.205C336.453 128.985 354.334 114.711 371.999 108.949C373.781 108.38 375.673 108.24 377.519 108.542C379.366 108.843 381.115 109.576 382.624 110.682C384.133 111.788 385.36 113.235 386.203 114.905C387.047 116.575 387.484 118.42 387.479 120.291V165C387.48 166.966 386.992 168.901 386.061 170.632C385.129 172.363 383.782 173.835 382.14 174.917C380.499 175.998 378.615 176.656 376.657 176.829C374.699 177.003 372.729 176.688 370.923 175.912C357.211 169.93 343.036 165.068 328.539 161.373C326.481 160.841 324.603 159.765 323.102 158.258C321.601 156.751 320.533 154.869 320.008 152.808C319.484 150.746 319.523 148.582 320.12 146.541C320.718 144.5 321.853 142.657 323.407 141.205Z" fill="#171C28"/>
<path d="M187.929 141.205C174.899 128.985 157.018 114.711 139.336 108.949C137.554 108.38 135.663 108.24 133.816 108.542C131.97 108.843 130.221 109.576 128.712 110.682C127.203 111.788 125.976 113.235 125.132 114.905C124.289 116.575 123.851 118.42 123.856 120.291V165C123.856 166.966 124.343 168.901 125.275 170.632C126.207 172.363 127.554 173.835 129.195 174.917C130.836 175.998 132.721 176.656 134.678 176.829C136.636 177.003 138.607 176.688 140.413 175.912C154.125 169.93 168.299 165.068 182.796 161.373C184.855 160.841 186.733 159.765 188.234 158.258C189.734 156.751 190.803 154.869 191.327 152.808C191.852 150.746 191.813 148.582 191.215 146.541C190.617 144.5 189.482 142.657 187.929 141.205Z" fill="#171C28"/>
<path d="M392.976 259.947C377.198 352.675 331.503 342.144 255.676 342.144C179.849 342.144 134.436 350.258 118.376 259.947C111.075 218.815 179.849 184.257 255.676 184.257C331.503 184.257 399.979 218.766 392.976 259.947Z" fill="#191C28"/>
<path d="M297.199 488.572L258.226 537.801C257.915 538.179 257.525 538.483 257.082 538.692C256.64 538.901 256.157 539.01 255.668 539.01C255.179 539.01 254.696 538.901 254.253 538.692C253.811 538.483 253.421 538.179 253.11 537.801L214.137 488.572C213.17 487.248 212.648 485.65 212.648 484.01C212.648 482.37 213.17 480.773 214.137 479.448L253.11 430.203C253.421 429.825 253.811 429.52 254.253 429.311C254.696 429.102 255.179 428.994 255.668 428.994C256.157 428.994 256.64 429.102 257.082 429.311C257.525 429.52 257.915 429.825 258.226 430.203L297.199 479.448C298.166 480.773 298.688 482.37 298.688 484.01C298.688 485.65 298.166 487.248 297.199 488.572Z" fill="#E5E6A9"/>
<path d="M272.365 483.936L255.709 504.982L239.037 483.936L255.709 462.89L272.365 483.936Z" fill="#D8D47D"/>
<path d="M255.709 462.889L255.676 443.582L223.773 483.902L239.037 483.935L255.709 462.889Z" fill="#ECEDAC"/>
<path d="M287.58 483.902L272.365 483.935L255.709 462.889L255.676 443.582L287.58 483.902Z" fill="#E1DA3E"/>
<path d="M255.709 504.981L272.365 483.935L287.58 483.902L255.676 524.223L255.709 504.981Z" fill="#B3B53E"/>
<path d="M255.676 524.223L255.709 504.981L239.037 483.935L223.773 483.902L255.676 524.223Z" fill="#CBCD6A"/>
<path d="M426.734 188.911C429.389 182.621 430.768 175.867 430.79 169.04V116.367C430.82 108.253 428.919 100.248 425.246 93.0121C421.573 85.7766 416.233 79.5182 409.666 74.7533C403.098 69.9884 395.492 66.8535 387.475 65.6072C379.458 64.361 371.26 65.0391 363.556 67.5856C341.305 74.9376 317.414 90.4697 292.58 113.718C288.706 117.34 285.416 121.54 282.828 126.17H228.508C225.927 121.54 222.643 117.339 218.773 113.718C193.939 90.5359 170.048 74.9377 147.813 67.6022C140.111 65.0484 131.912 64.3643 123.893 65.6064C115.874 66.8486 108.265 69.9814 101.696 74.7459C95.1275 79.5104 89.7863 85.7698 86.1143 93.0071C82.4423 100.244 80.545 108.252 80.5789 116.367V169.007C80.5959 175.833 81.9691 182.587 84.6186 188.878C63.7744 215.123 52.003 244.846 52.003 271.853C51.8092 298.457 60.9287 324.291 77.7809 344.876C92.7807 363.223 114.122 377.994 139.486 387.73C156.981 394.332 175.538 397.672 194.237 397.583H319.616C342.585 397.664 365.283 392.618 386.056 382.812C399.253 376.571 411.392 368.302 422.032 358.306C433.921 347.297 443.381 333.927 449.807 319.051C456.232 304.176 459.483 288.123 459.35 271.919C459.35 244.879 447.578 215.156 426.734 188.911ZM407.363 342.773C392.255 356.711 373.98 366.759 354.119 372.049C343.909 374.85 333.366 376.253 322.778 376.222H191.356C179.726 376.299 168.15 374.624 157.018 371.254C109.668 356.6 73.3273 322.456 73.3273 271.903C73.3273 244.15 88.8073 214.279 111.29 190.765C108.31 187.968 105.933 184.591 104.307 180.84C102.681 177.089 101.841 173.046 101.837 168.958V116.367C101.796 111.622 102.888 106.935 105.023 102.696C107.159 98.458 110.275 94.7909 114.113 92.0002C117.951 89.2094 122.4 87.3757 127.09 86.6516C131.779 85.9274 136.574 86.3338 141.075 87.8369C160.379 94.212 181.588 108.171 204.154 129.233C209.277 134.035 212.557 140.48 213.425 147.448H297.861C298.704 140.476 301.982 134.025 307.116 129.233C329.682 108.121 350.907 94.1623 370.211 87.8369C374.713 86.3306 379.51 85.9217 384.202 86.6443C388.894 87.3669 393.345 89.2001 397.185 91.9912C401.026 94.7823 404.143 98.4506 406.28 102.691C408.416 106.931 409.508 111.62 409.466 116.367V169.007C409.467 173.089 408.633 177.127 407.015 180.875C405.398 184.622 403.032 187.999 400.062 190.798C422.545 214.312 438.025 244.183 438.025 271.936C438.116 285.226 435.436 298.389 430.157 310.586C424.878 322.782 417.115 333.745 407.363 342.773Z" fill="#181C28"/>
<path d="M393.307 259.947C377.529 352.675 331.834 293.064 256.007 293.064C180.18 293.064 134.75 350.258 118.708 259.947C111.39 218.815 180.18 184.257 256.007 184.257C331.834 184.257 400.31 218.766 393.307 259.947Z" fill="#1D212D"/>
<path d="M327.828 458.833C331.9 491.95 355.609 555.088 374.996 552.72C394.383 550.352 402.131 483.373 398.059 450.206C393.986 417.039 375.013 392.085 355.576 394.552C336.139 397.019 323.771 425.666 327.828 458.833Z" fill="#F2F1CE"/>
<path d="M395.278 399.304C383.837 384.302 368.655 376.752 353.622 378.59C338.589 380.428 325.692 391.439 318.225 408.776C311.868 423.497 309.649 441.893 311.967 460.787C314.285 479.68 321.785 505.048 331.089 525.68C345.063 556.628 360.063 570.67 376.95 568.583C393.837 566.497 404.996 549.276 411.072 515.861C415.112 493.573 416.238 467.046 413.936 448.252C411.635 429.458 404.996 412.055 395.278 399.304ZM375.013 552.72C355.626 555.088 331.967 492 327.845 458.833C323.722 425.666 336.123 396.854 355.593 394.469C375.063 392.085 394.003 417.039 398.076 450.206C402.148 483.373 394.4 550.336 375.013 552.72Z" fill="#171C28"/>
<path d="M115.926 450.206C111.853 483.323 119.602 550.336 138.989 552.72C158.376 555.105 182.035 492 186.157 458.833C190.28 425.666 177.879 396.854 158.409 394.47C138.939 392.085 120.049 417.039 115.926 450.206Z" fill="#F2F1CE"/>
<path d="M195.776 408.776C188.293 391.439 175.396 380.444 160.363 378.59C145.33 376.735 130.148 384.302 118.708 399.305C108.989 412.055 102.367 429.441 100.065 448.252C97.7641 467.062 98.8734 493.573 102.93 515.861C108.989 549.276 120.148 566.514 137.035 568.583C153.922 570.653 168.922 556.628 182.896 525.68C192.217 505.048 199.717 479.564 202.035 460.787C204.352 442.009 202.117 423.497 195.776 408.776ZM138.989 552.72C119.602 550.336 111.853 483.373 115.926 450.206C119.999 417.039 139.022 392.085 158.409 394.469C177.796 396.854 190.23 425.666 186.157 458.833C182.084 492 158.376 555.171 138.989 552.72Z" fill="#171C28"/>
<path d="M200.506 231.284H194.397C188.655 231.284 184 235.94 184 241.683V273.923C184 279.666 188.655 284.322 194.397 284.322H200.506C206.249 284.322 210.904 279.666 210.904 273.923V241.683C210.904 235.94 206.249 231.284 200.506 231.284Z" fill="#EBEE62"/>
<path d="M316.763 231.284H310.654C304.912 231.284 300.257 235.94 300.257 241.683V273.923C300.257 279.666 304.912 284.322 310.654 284.322H316.763C322.506 284.322 327.161 279.666 327.161 273.923V241.683C327.161 235.94 322.506 231.284 316.763 231.284Z" fill="#EBEE62"/>
</g>
<defs>
<clipPath id="clip0_444_161">
<rect width="512" height="512" rx="65" fill="white"/>
</clipPath>
</defs>
</svg>
