<svg width="512" height="512" viewBox="0 0 512 512" fill="none" xmlns="http://www.w3.org/2000/svg">
<g clip-path="url(#clip0_444_267)">
<rect width="512" height="512" rx="65" fill="white"/>
<path d="M-22 -18H540V544H-22V-18Z" fill="#91FF8E"/>
<path d="M438.025 271.881C438.123 285.18 435.446 298.353 430.167 310.558C424.887 322.764 417.121 333.734 407.363 342.769C392.255 356.706 373.98 366.754 354.119 372.044C343.908 374.845 333.366 376.249 322.778 376.217H191.356C179.726 376.294 168.15 374.619 157.018 371.25C109.668 356.595 73.3271 322.451 73.3271 271.898C73.3271 244.146 88.8072 214.274 111.29 190.761C108.321 187.961 105.954 184.584 104.337 180.837C102.72 177.089 101.886 173.051 101.886 168.969V116.363C101.845 111.617 102.938 106.93 105.073 102.692C107.208 98.4533 110.324 94.7862 114.162 91.9955C118.001 89.2047 122.45 87.371 127.139 86.6469C131.829 85.9227 136.624 86.3291 141.125 87.8322C160.429 94.2072 181.637 108.166 204.203 129.229C209.327 134.028 212.603 140.475 213.458 147.443H297.894C298.755 140.473 302.037 134.026 307.166 129.229C329.732 108.116 350.957 94.1576 370.261 87.8322C374.76 86.3356 379.551 85.9343 384.236 86.6615C388.921 87.3888 393.366 89.2237 397.199 92.0137C401.033 94.8036 404.146 98.4682 406.28 102.703C408.413 106.938 409.505 111.621 409.466 116.363V169.003C409.466 173.084 408.632 177.123 407.015 180.87C405.398 184.617 403.032 187.994 400.062 190.794C422.545 214.257 438.025 244.129 438.025 271.881Z" fill="#CFF2CE"/>
<path d="M257.464 376.217C217.133 376.217 180.644 387.56 154.353 365.835C152.995 380.572 152.283 395.839 152.283 411.471C152.283 537.664 198.64 602.176 255.659 602.176C312.679 602.176 359.019 537.598 359.019 411.471C359.019 396.783 358.39 382.443 357.198 368.551C331.188 388.669 296.089 376.217 257.464 376.217Z" fill="#CFF2CE"/>
<path d="M229.186 390.458C221.471 391.037 214.286 391.6 207.564 391.6C194.567 391.6 186.703 389.497 180.478 384.348L153.773 362.292L150.611 396.783C149.386 410.146 148.773 423.873 148.773 437.584C148.773 491.929 158.608 537.449 177.25 569.225C196.24 601.613 224.12 619.464 255.726 619.464C287.331 619.464 315.195 601.613 334.185 569.225C352.827 537.449 362.678 491.929 362.678 437.584C362.678 424.751 362.132 411.835 361.023 399.201L358.142 365.752L331.652 386.302C326.205 390.524 319.334 392.329 308.705 392.329L229.186 390.458ZM342.844 388.024C343.871 399.946 344.5 424.999 344.5 437.584C344.5 545.827 304.765 577.04 255.842 577.04C206.918 577.04 167.167 545.827 167.167 437.584C167.167 424.188 167.78 401.784 168.939 389.133" fill="#C0E2C3"/>
<path d="M378.44 366.713L375.129 327.717L344.185 351.678C337.828 356.645 329.831 358.698 317.431 358.698C309.666 358.698 301.007 357.87 291.835 357.043C280.924 355.999 269.633 354.923 257.514 354.923C246.008 354.923 235.213 355.751 224.766 356.579C215.776 357.274 207.299 357.92 199.568 357.92C184.402 357.92 175.247 355.47 167.979 349.459L136.853 323.743L133.161 363.881C131.737 379.463 131.009 395.475 131.009 411.471C131.009 474.808 142.499 527.878 164.22 564.936C186.356 602.707 218.856 623.504 255.71 623.504C292.563 623.504 325.047 602.707 347.199 564.936C368.92 527.878 380.311 474.808 380.311 411.471C380.344 396.502 379.698 381.45 378.44 366.713ZM255.676 602.177C198.574 602.177 152.3 537.598 152.3 411.471C152.3 395.839 153.012 380.572 154.37 365.835C180.661 387.56 217.15 376.217 257.481 376.217C296.106 376.217 331.205 388.67 357.215 368.551C358.407 382.444 359.036 396.783 359.036 411.471C359.02 537.664 312.745 602.177 255.676 602.177Z" fill="#171C28"/>
<path d="M438.34 271.881C438.433 285.179 435.755 298.351 430.476 310.556C425.197 322.761 417.432 333.732 407.678 342.769C392.569 356.706 374.295 366.754 354.434 372.044C344.218 374.846 333.669 376.25 323.076 376.217H191.654C180.029 376.292 168.459 374.618 157.333 371.25C109.982 356.463 73.5591 322.385 73.5591 271.881C73.5591 244.129 89.0391 214.257 111.522 190.744C108.555 187.944 106.191 184.566 104.577 180.819C102.962 177.071 102.131 173.033 102.135 168.953V116.363C102.082 111.605 103.169 106.904 105.304 102.652C107.44 98.4002 110.562 94.7216 114.41 91.9237C118.257 89.1257 122.719 87.2898 127.421 86.5693C132.124 85.8488 136.93 86.2647 141.439 87.7823C160.744 94.1574 181.968 108.116 204.518 129.179C209.647 133.976 212.928 140.423 213.789 147.393H298.225C299.087 140.423 302.368 133.976 307.497 129.179C330.046 108.067 351.271 94.1077 370.592 87.7823C375.093 86.2909 379.885 85.8952 384.57 86.6281C389.255 87.361 393.697 89.2013 397.528 91.9962C401.358 94.7912 404.467 98.46 406.595 102.698C408.723 106.936 409.81 111.62 409.764 116.363V169.002C409.768 173.083 408.937 177.121 407.322 180.868C405.708 184.616 403.344 187.993 400.377 190.794C422.893 214.257 438.34 244.129 438.34 271.881Z" fill="#CFF2CE"/>
<path d="M323.407 141.201C336.437 128.98 354.334 114.707 371.999 108.944C373.782 108.376 375.673 108.236 377.519 108.537C379.366 108.838 381.115 109.572 382.624 110.678C384.133 111.783 385.36 113.23 386.203 114.9C387.047 116.57 387.484 118.416 387.479 120.287V164.995C387.48 166.961 386.992 168.896 386.06 170.627C385.129 172.358 383.782 173.831 382.141 174.912C380.499 175.994 378.615 176.651 376.657 176.825C374.699 176.999 372.729 176.683 370.923 175.908C357.21 169.926 343.036 165.064 328.539 161.369C326.481 160.836 324.603 159.76 323.102 158.254C321.601 156.747 320.533 154.864 320.008 152.803C319.484 150.742 319.522 148.578 320.12 146.537C320.718 144.496 321.853 142.653 323.407 141.201Z" fill="#171C28"/>
<path d="M187.945 141.201C174.916 128.98 157.035 114.707 139.353 108.944C137.571 108.376 135.679 108.236 133.833 108.537C131.986 108.838 130.238 109.572 128.728 110.678C127.219 111.783 125.993 113.23 125.149 114.9C124.305 116.57 123.868 118.416 123.873 120.287V164.995C123.873 166.961 124.36 168.896 125.292 170.627C126.224 172.358 127.571 173.831 129.212 174.912C130.853 175.994 132.737 176.651 134.695 176.825C136.653 176.999 138.623 176.683 140.429 175.908C154.142 169.926 168.316 165.064 182.813 161.369C184.872 160.836 186.749 159.76 188.25 158.254C189.751 156.747 190.819 154.864 191.344 152.803C191.869 150.742 191.83 148.578 191.232 146.537C190.634 144.496 189.499 142.653 187.945 141.201Z" fill="#171C28"/>
<path d="M392.976 259.942C377.198 352.671 331.503 342.139 255.676 342.139C179.849 342.139 134.419 350.253 118.376 259.942C111.059 218.811 179.849 184.253 255.676 184.253C331.503 184.253 399.979 218.761 392.976 259.942Z" fill="#191C28"/>
<path d="M297.183 488.568L258.21 537.796C257.899 538.174 257.508 538.479 257.066 538.688C256.624 538.897 256.141 539.005 255.652 539.005C255.162 539.005 254.679 538.897 254.237 538.688C253.795 538.479 253.404 538.174 253.094 537.796L214.121 488.568C213.153 487.243 212.632 485.646 212.632 484.006C212.632 482.366 213.153 480.768 214.121 479.444L253.094 430.198C253.404 429.821 253.795 429.516 254.237 429.307C254.679 429.098 255.162 428.99 255.652 428.99C256.141 428.99 256.624 429.098 257.066 429.307C257.508 429.516 257.899 429.821 258.21 430.198L297.183 479.444C298.15 480.768 298.671 482.366 298.671 484.006C298.671 485.646 298.15 487.243 297.183 488.568Z" fill="#AAE6A9"/>
<path d="M272.365 483.931L255.693 504.977L239.037 483.931L255.693 462.885L272.365 483.931Z" fill="#7DD881"/>
<path d="M255.693 462.885L255.676 443.578L223.756 483.898L239.037 483.931L255.693 462.885Z" fill="#ACEDAF"/>
<path d="M287.58 483.898L272.365 483.931L255.693 462.885L255.677 443.578L287.58 483.898Z" fill="#3EE145"/>
<path d="M255.693 504.977L272.365 483.931L287.58 483.898L255.677 524.218L255.693 504.977Z" fill="#48B53E"/>
<path d="M255.676 524.218L255.693 504.977L239.037 483.931L223.756 483.898L255.676 524.218Z" fill="#6ACD6E"/>
<path d="M426.734 188.906C429.383 182.616 430.757 175.861 430.774 169.036V116.363C430.802 108.25 428.902 100.247 425.23 93.013C421.558 85.7792 416.219 79.5221 409.654 74.7576C403.089 69.9931 395.485 66.8576 387.47 65.6098C379.455 64.362 371.259 65.0376 363.556 67.5809C341.305 74.9329 317.414 90.465 292.58 113.713C288.706 117.335 285.416 121.536 282.828 126.165H228.508C225.927 121.535 222.643 117.334 218.773 113.713C193.939 90.5313 170.048 74.933 147.813 67.5975C140.11 65.0443 131.91 64.3606 123.891 65.6028C115.871 66.8451 108.262 69.9776 101.692 74.7417C95.1217 79.5059 89.7789 85.7649 86.1049 93.0019C82.431 100.239 80.5312 108.246 80.5623 116.363V169.003C80.585 175.829 81.9639 182.584 84.6187 188.873C63.7745 215.118 52.003 244.841 52.003 271.848C51.8092 298.453 60.9288 324.287 77.781 344.872C92.7808 363.219 114.204 377.989 139.485 387.726C156.981 394.328 175.538 397.667 194.237 397.578H319.599C342.574 397.66 365.278 392.614 386.056 382.808C399.25 376.562 411.389 368.293 422.032 358.301C433.919 347.285 443.375 333.909 449.795 319.027C456.216 304.146 459.458 288.088 459.316 271.881C459.316 244.874 447.578 215.151 426.734 188.906ZM407.363 342.769C392.255 356.706 373.98 366.754 354.119 372.045C343.908 374.845 333.366 376.249 322.778 376.217H191.356C179.726 376.294 168.15 374.619 157.019 371.25C109.668 356.595 73.3273 322.451 73.3273 271.898C73.3273 244.146 88.8074 214.274 111.291 190.761C108.321 187.961 105.954 184.584 104.337 180.837C102.72 177.089 101.886 173.051 101.887 168.969V116.363C101.845 111.617 102.938 106.93 105.073 102.692C107.208 98.4533 110.325 94.7862 114.163 91.9955C118.001 89.2048 122.45 87.371 127.139 86.6469C131.829 85.9227 136.624 86.3291 141.125 87.8322C160.429 94.2073 181.637 108.166 204.203 129.229C209.327 134.028 212.603 140.475 213.458 147.443H297.894C298.756 140.473 302.037 134.026 307.166 129.229C329.732 108.117 350.957 94.1576 370.261 87.8322C374.76 86.3356 379.551 85.9343 384.236 86.6615C388.922 87.3888 393.366 89.2237 397.2 92.0137C401.033 94.8037 404.146 98.4683 406.28 102.703C408.413 106.938 409.506 111.621 409.466 116.363V169.003C409.467 173.084 408.633 177.123 407.015 180.87C405.398 184.617 403.032 187.994 400.062 190.794C422.545 214.307 438.025 244.179 438.025 271.931C438.116 285.221 435.436 298.384 430.157 310.581C424.878 322.778 417.115 333.74 407.363 342.769Z" fill="#181C28"/>
<path d="M393.307 259.943C377.529 352.671 331.834 293.06 256.007 293.06C180.18 293.06 134.75 350.27 118.708 259.943C111.39 218.811 180.18 184.319 256.007 184.319C331.834 184.319 400.311 218.761 393.307 259.943Z" fill="#1D212D"/>
<path d="M327.828 458.829C331.901 491.946 355.609 555.084 374.996 552.716C394.383 550.348 402.132 483.368 398.059 450.202C393.986 417.035 374.88 392.081 355.576 394.465C336.271 396.85 323.755 425.662 327.828 458.829Z" fill="#CFF2CE"/>
<path d="M395.278 399.3C383.837 384.298 368.655 376.747 353.622 378.585C338.59 380.423 325.692 391.435 318.225 408.772C311.868 423.492 309.649 441.889 311.967 460.782C314.285 479.676 321.785 505.043 331.09 525.676C345.063 556.624 360.063 570.665 376.95 568.579C393.837 566.493 404.996 549.272 411.056 515.856C415.112 493.568 416.238 467.041 413.936 448.247C411.635 429.453 404.996 412.05 395.278 399.3ZM374.996 552.716C355.609 555.084 331.95 491.995 327.828 458.828C323.705 425.661 336.189 396.849 355.576 394.465C374.963 392.081 393.986 417.034 398.059 450.201C402.132 483.368 394.4 550.331 374.996 552.716Z" fill="#171C28"/>
<path d="M115.926 450.202C111.854 483.319 119.602 550.332 138.989 552.716C158.376 555.101 182.035 491.996 186.158 458.829C190.28 425.662 177.88 396.85 158.41 394.465C138.94 392.081 119.999 417.035 115.926 450.202Z" fill="#CFF2CE"/>
<path d="M195.776 408.772C188.293 391.435 175.396 380.44 160.363 378.585C145.33 376.731 130.148 384.298 118.708 399.3C108.989 412.05 102.367 429.437 100.049 448.247C97.7313 467.058 98.8736 493.568 102.93 515.856C108.989 549.272 120.148 566.509 137.035 568.579C153.923 570.649 168.923 556.624 182.896 525.676C192.217 505.044 199.717 479.56 202.035 460.782C204.353 442.005 202.117 423.492 195.776 408.772ZM138.989 552.716C119.602 550.332 111.854 483.368 115.926 450.201C119.999 417.034 139.105 392.081 158.409 394.465C177.714 396.85 190.23 425.662 186.157 458.828C182.085 491.995 158.376 555.167 138.989 552.716Z" fill="#171C28"/>
<path d="M200.506 252H194.397C188.655 252 184 256.656 184 262.399V274.222C184 279.965 188.655 284.621 194.397 284.621H200.506C206.249 284.621 210.904 279.965 210.904 274.222V262.399C210.904 256.656 206.249 252 200.506 252Z" fill="#62EE68"/>
<path d="M316.78 252H310.671C304.928 252 300.273 256.656 300.273 262.399V274.222C300.273 279.965 304.928 284.621 310.671 284.621H316.78C322.522 284.621 327.177 279.965 327.177 274.222V262.399C327.177 256.656 322.522 252 316.78 252Z" fill="#62EE68"/>
</g>
<defs>
<clipPath id="clip0_444_267">
<rect width="512" height="512" rx="65" fill="white"/>
</clipPath>
</defs>
</svg>
