<svg width="512" height="512" viewBox="0 0 512 512" fill="none" xmlns="http://www.w3.org/2000/svg">
<g clip-path="url(#clip0_444_320)">
<rect width="512" height="512" rx="65" fill="white"/>
<path d="M-22 -18H540V544H-22V-18Z" fill="#CD8EFF"/>
<path d="M437.975 271.9C438.071 285.198 435.394 298.37 430.114 310.576C424.835 322.781 417.069 333.752 407.313 342.788C392.205 356.725 373.93 366.773 354.069 372.063C343.858 374.864 333.316 376.267 322.728 376.236H191.306C179.676 376.313 168.1 374.638 156.969 371.268C109.618 356.614 73.2607 322.454 73.2607 271.917C73.2607 244.164 88.7574 214.293 111.241 190.779C108.269 187.978 105.901 184.598 104.284 180.848C102.667 177.098 101.834 173.056 101.837 168.972V116.332C101.796 111.588 102.889 106.903 105.023 102.666C107.157 98.4298 110.272 94.764 114.108 91.9736C117.944 89.1832 122.39 87.349 127.078 86.6233C131.765 85.8976 136.558 86.3014 141.058 87.8012C160.379 94.1763 181.587 108.135 204.153 129.198C209.277 133.997 212.553 140.444 213.408 147.412H297.844C298.706 140.442 301.987 133.995 307.116 129.198C329.682 108.086 350.907 94.1266 370.211 87.8012C374.711 86.3014 379.504 85.8976 384.191 86.6233C388.879 87.349 393.325 89.1832 397.161 91.9736C400.997 94.764 404.112 98.4298 406.246 102.666C408.381 106.903 409.473 111.588 409.433 116.332V168.955C409.435 173.039 408.602 177.081 406.985 180.831C405.368 184.582 403.001 187.962 400.029 190.763C422.495 214.276 437.975 244.148 437.975 271.9Z" fill="#E6CEF2"/>
<path d="M257.414 376.236C217.084 376.236 180.594 387.578 154.303 365.854C152.945 380.591 152.233 395.858 152.233 411.473C152.233 537.666 198.59 602.195 255.61 602.195C312.629 602.195 358.969 537.616 358.969 411.473C358.969 396.802 358.34 382.462 357.148 368.569C331.139 388.688 296.04 376.236 257.414 376.236Z" fill="#E6CEF2"/>
<path d="M378.39 366.731L375.079 327.736L344.135 351.696C337.777 356.664 329.781 358.717 317.381 358.717C309.616 358.717 300.957 357.889 291.785 357.061C280.874 356.018 269.583 354.942 257.464 354.942C245.875 354.942 235.163 355.77 224.716 356.598C215.726 357.276 207.249 357.939 199.517 357.939C184.352 357.939 175.197 355.488 167.928 349.477L136.803 323.762L133.111 363.966C131.687 379.548 130.958 395.56 130.958 411.539C130.958 474.892 142.449 527.963 164.17 565.004C186.306 602.775 218.805 623.589 255.659 623.589C292.513 623.589 324.996 602.775 347.132 565.004C368.87 527.963 380.343 474.892 380.343 411.539C380.227 396.52 379.648 381.386 378.39 366.731ZM255.61 602.195C198.508 602.195 152.233 537.616 152.233 411.473C152.233 395.858 152.945 380.591 154.303 365.854C180.594 387.579 217.083 376.236 257.414 376.236C296.04 376.236 331.139 388.688 357.148 368.569C358.34 382.462 358.969 396.719 358.969 411.473C358.969 537.666 312.695 602.195 255.61 602.195Z" fill="#171C28"/>
<path d="M438.29 271.9C438.382 285.198 435.704 298.369 430.424 310.574C425.145 322.779 417.381 333.75 407.628 342.788C392.519 356.725 374.245 366.773 354.383 372.063C344.167 374.865 333.619 376.269 323.026 376.236H191.604C179.973 376.313 168.398 374.638 157.266 371.268C109.916 356.614 73.5752 322.454 73.5752 271.917C73.5752 244.164 89.055 214.293 111.538 190.779C108.569 187.977 106.204 184.597 104.589 180.847C102.975 177.096 102.145 173.055 102.151 168.972V116.332C102.111 111.588 103.203 106.903 105.337 102.666C107.472 98.4298 110.586 94.764 114.422 91.9736C118.258 89.1832 122.705 87.349 127.392 86.6233C132.079 85.8976 136.872 86.3014 141.372 87.8012C160.677 94.1763 181.902 108.135 204.451 129.198C209.58 133.995 212.862 140.442 213.723 147.412H298.159C299.02 140.442 302.301 133.995 307.43 129.198C329.98 108.086 351.205 94.1266 370.526 87.8012C375.025 86.3047 379.816 85.9033 384.501 86.6305C389.186 87.3578 393.63 89.1927 397.464 91.9827C401.298 94.7727 404.411 98.4373 406.544 102.672C408.678 106.907 409.77 111.59 409.73 116.332V168.955C409.736 173.038 408.906 177.08 407.292 180.83C405.677 184.58 403.313 187.961 400.343 190.763C422.81 214.276 438.29 244.148 438.29 271.9Z" fill="#E6CEF2"/>
<path d="M323.357 141.186C336.387 128.966 354.284 114.692 371.949 108.93C373.732 108.361 375.623 108.221 377.47 108.522C379.316 108.824 381.065 109.557 382.574 110.663C384.083 111.769 385.31 113.216 386.154 114.885C386.997 116.555 387.434 118.401 387.429 120.272V164.981C387.43 166.947 386.942 168.882 386.011 170.613C385.079 172.344 383.732 173.816 382.091 174.898C380.449 175.979 378.565 176.637 376.607 176.81C374.65 176.984 372.679 176.669 370.873 175.893C357.161 169.911 342.987 165.049 328.49 161.354C326.431 160.822 324.553 159.746 323.052 158.239C321.552 156.732 320.483 154.85 319.959 152.789C319.434 150.727 319.473 148.563 320.071 146.522C320.668 144.481 321.804 142.638 323.357 141.186Z" fill="#171C28"/>
<path d="M187.895 141.186C174.866 128.966 156.969 114.692 139.303 108.93C137.521 108.361 135.63 108.221 133.783 108.522C131.937 108.824 130.188 109.557 128.679 110.663C127.169 111.769 125.943 113.216 125.099 114.885C124.255 116.555 123.818 118.401 123.823 120.272V164.981C123.823 166.947 124.31 168.882 125.242 170.613C126.174 172.344 127.521 173.816 129.162 174.898C130.803 175.979 132.687 176.637 134.645 176.81C136.603 176.984 138.573 176.669 140.379 175.893C154.092 169.911 168.266 165.049 182.763 161.354C184.822 160.822 186.7 159.746 188.201 158.239C189.701 156.732 190.77 154.85 191.294 152.789C191.819 150.727 191.78 148.563 191.182 146.522C190.584 144.481 189.449 142.638 187.895 141.186Z" fill="#171C28"/>
<path d="M392.926 259.961C377.148 352.689 331.453 342.158 255.626 342.158C179.799 342.158 134.37 350.272 118.327 259.961C111.009 218.829 179.799 184.338 255.626 184.338C331.453 184.338 399.93 218.78 392.926 259.961Z" fill="#191C28"/>
<path d="M297.132 488.57L258.159 537.815C257.849 538.193 257.458 538.497 257.016 538.706C256.573 538.915 256.09 539.024 255.601 539.024C255.112 539.024 254.629 538.915 254.187 538.706C253.744 538.497 253.354 538.193 253.043 537.815L214.07 488.57C213.102 487.249 212.58 485.654 212.58 484.016C212.58 482.378 213.102 480.783 214.07 479.462L253.043 430.217C253.354 429.839 253.744 429.535 254.187 429.326C254.629 429.117 255.112 429.008 255.601 429.008C256.09 429.008 256.573 429.117 257.016 429.326C257.458 429.535 257.849 429.839 258.159 430.217L297.132 479.462C298.101 480.783 298.623 482.378 298.623 484.016C298.623 485.654 298.101 487.249 297.132 488.57Z" fill="#DAA9E6"/>
<path d="M272.315 483.95L255.643 504.996L238.987 483.95L255.643 462.887L272.315 483.95Z" fill="#CB7DD8"/>
<path d="M255.643 462.887L255.626 443.597L223.706 483.917L238.987 483.95L255.643 462.887Z" fill="#E0ACED"/>
<path d="M287.53 483.917L272.315 483.95L255.643 462.887L255.626 443.597L287.53 483.917Z" fill="#C03EE1"/>
<path d="M255.643 504.996L272.315 483.95L287.53 483.917L255.626 524.237L255.643 504.996Z" fill="#9D3EB5"/>
<path d="M255.626 524.237L255.643 504.996L238.987 483.95L223.706 483.917L255.626 524.237Z" fill="#B96ACD"/>
<path d="M426.684 188.925C429.346 182.604 430.719 175.814 430.723 168.955V116.332C430.724 102.738 425.332 89.6989 415.732 80.0757C406.132 70.4525 393.107 65.0307 379.515 65C374.075 64.9968 368.669 65.869 363.506 67.5832C341.254 74.9352 317.364 90.4506 292.513 113.715C288.648 117.342 285.365 121.542 282.778 126.168H228.457C225.881 121.535 222.597 117.333 218.722 113.715C193.888 90.4506 169.998 74.9352 147.763 67.5832C140.064 65.0478 131.873 64.3772 123.865 65.6264C115.856 66.8756 108.258 70.009 101.697 74.7686C95.1358 79.5283 89.7984 85.7782 86.124 93.0041C82.4496 100.23 80.5432 108.225 80.5618 116.332V168.955C80.5717 175.815 81.9507 182.605 84.6179 188.925C63.7738 215.17 52.0025 244.893 52.0025 271.9C51.8269 298.481 60.9451 324.288 77.7803 344.857C92.7801 363.204 114.204 377.975 139.485 387.695C156.97 394.323 175.521 397.691 194.219 397.63H319.599C342.573 397.703 365.274 392.657 386.055 382.86C399.24 376.559 411.361 368.24 421.982 358.204C433.872 347.199 443.332 333.832 449.759 318.96C456.185 304.087 459.434 288.036 459.299 271.834C459.299 244.893 447.528 215.17 426.684 188.925ZM407.313 342.788C392.204 356.725 373.93 366.773 354.069 372.063C343.858 374.864 333.315 376.268 322.728 376.236H191.306C179.675 376.313 168.1 374.638 156.968 371.269C109.618 356.614 73.2605 322.454 73.2605 271.917C73.2605 244.164 88.7571 214.293 111.24 190.779C108.268 187.978 105.901 184.598 104.284 180.848C102.667 177.098 101.834 173.056 101.836 168.972V116.332C101.796 111.588 102.888 106.903 105.023 102.666C107.157 98.4299 110.272 94.7641 114.107 91.9737C117.943 89.1833 122.39 87.3491 127.078 86.6234C131.765 85.8976 136.558 86.3015 141.058 87.8013C160.379 94.1764 181.587 108.135 204.153 129.198C209.277 133.997 212.553 140.444 213.408 147.412H297.844C298.705 140.442 301.987 133.995 307.116 129.198C329.681 108.086 350.906 94.1267 370.211 87.8013C374.711 86.3015 379.504 85.8976 384.191 86.6234C388.879 87.3491 393.325 89.1833 397.161 91.9737C400.997 94.7641 404.112 98.4299 406.246 102.666C408.38 106.903 409.473 111.588 409.432 116.332V168.955C409.435 173.039 408.602 177.081 406.985 180.832C405.368 184.582 403 187.962 400.028 190.763C422.512 214.276 437.992 244.148 437.992 271.9C438.085 285.2 435.405 298.372 430.123 310.578C424.841 322.783 417.072 333.753 407.313 342.788Z" fill="#181C28"/>
<path d="M393.257 259.961C377.479 352.689 331.784 293.078 255.957 293.078C180.13 293.078 134.701 350.288 118.658 259.961C111.34 218.829 180.13 184.338 255.957 184.338C331.784 184.338 400.261 218.78 393.257 259.961Z" fill="#1D212D"/>
<path d="M299.102 395.063C265.99 399.137 202.862 422.849 205.246 442.239C207.63 461.629 274.566 469.378 307.728 465.305C340.89 461.232 365.84 442.206 363.456 422.816C361.072 403.425 332.297 390.99 299.102 395.063Z" fill="#E6CEF2"/>
<path d="M358.704 462.523C373.704 451.081 381.254 435.897 379.416 420.861C377.578 405.826 366.569 392.927 349.234 385.459C334.516 379.1 316.122 376.882 297.248 379.2C278.374 381.518 252.977 389.019 232.348 398.325C201.405 412.3 187.382 427.303 189.451 444.192C191.521 461.082 208.772 472.243 242.166 478.32C264.45 482.36 290.973 483.486 309.764 481.184C328.556 478.883 345.906 472.243 358.704 462.523ZM205.329 442.239C202.945 422.848 266.04 399.186 299.185 395.063C332.331 390.94 361.155 403.342 363.539 422.815C365.923 442.288 340.973 461.231 307.811 465.305C274.649 469.378 207.646 461.645 205.279 442.239H205.329Z" fill="#171C28"/>
<path d="M223.243 415.645C249.567 395.063 291.437 342.258 279.417 326.858C267.398 311.458 206.008 339.31 179.683 359.876C153.359 380.442 141.77 409.552 153.79 425.001C165.809 440.45 196.918 436.211 223.243 415.645Z" fill="#E6CEF2"/>
<path d="M137.498 388.473C130.528 406.009 131.869 422.915 141.19 434.837C150.511 446.759 166.587 452.174 185.296 449.64C201.173 447.504 218.16 439.904 233.093 428.23C248.027 416.556 265.974 397.017 278.854 378.389C298.175 350.487 302.48 330.369 292.099 316.989C281.719 303.61 261.09 302.898 229.335 314.903C208.16 322.901 184.832 335.601 169.915 347.258C154.998 358.916 143.475 373.57 137.498 388.473ZM279.417 326.858C291.437 342.258 249.616 395.063 223.242 415.646C196.869 436.228 165.826 440.401 153.707 425.001C141.588 409.602 153.276 380.459 179.6 359.876C205.925 339.294 267.381 311.459 279.417 326.858Z" fill="#171C28"/>
<path d="M200.506 235.901H194.397C188.655 235.901 184 240.557 184 246.3V273.937C184 279.68 188.655 284.335 194.397 284.335H200.506C206.249 284.335 210.904 279.68 210.904 273.937V246.3C210.904 240.557 206.249 235.901 200.506 235.901Z" fill="#DA62EE"/>
<path d="M316.78 251.715H310.671C304.929 251.715 300.273 256.371 300.273 262.114V273.937C300.273 279.68 304.929 284.335 310.671 284.335H316.78C322.522 284.335 327.177 279.68 327.177 273.937V262.114C327.177 256.371 322.522 251.715 316.78 251.715Z" fill="#DA62EE"/>
</g>
<defs>
<clipPath id="clip0_444_320">
<rect width="512" height="512" rx="65" fill="white"/>
</clipPath>
</defs>
</svg>
